<?xml version="1.0" encoding="UTF-8"?><svg id="a" xmlns="http://www.w3.org/2000/svg" viewBox="0 0 158.44 75.13"><defs><style>.b{fill:#231f20;}.c{fill:none;stroke:#fed206;stroke-miterlimit:10;stroke-width:4px;}</style></defs><rect class="c" x="23.41" y="56.34" width="53.04" height="9.07" transform="translate(-14.97 16.31) rotate(-16.17)"/><rect class="c" x="7.71" y="14.86" width="53.12" height="33" transform="translate(-11.63 24.22) rotate(-33.63)"/><path class="b" d="M26.77,42.56c1.31.82,3.3,1.55,5.36,1.55,2.59,0,4.03-1.33,4.03-3.31,0-1.83-1.12-2.91-3.93-4.03-3.66-1.42-6.01-3.57-6.01-7.05,0-3.97,3.04-6.97,7.85-6.97,2.4,0,4.16.56,5.32,1.2l-.97,3.58c-.8-.46-2.35-1.15-4.43-1.15-2.57,0-3.66,1.5-3.66,2.92,0,1.86,1.28,2.74,4.24,3.97,3.85,1.61,5.71,3.72,5.71,7.21,0,3.9-2.69,7.29-8.41,7.29-2.35,0-4.78-.73-6-1.54l.9-3.67Z"/><path class="b" d="M48.05,24.96c0,1.32-.87,2.39-2.31,2.39-1.34,0-2.22-1.07-2.22-2.39,0-1.35.91-2.4,2.27-2.4s2.25,1.03,2.26,2.4ZM43.76,47.39v-17.52h4.05v17.52h-4.05Z"/><path class="b" d="M66.83,29.87c-.08,1.18-.14,2.63-.14,5.03v9.94c0,3.67-.68,6.29-2.37,7.94-1.67,1.62-3.99,2.13-6.2,2.13-2.04,0-4.2-.48-5.58-1.39l.87-3.38c1.03.68,2.74,1.35,4.67,1.35,2.63,0,4.61-1.52,4.61-5.3v-1.5h-.07c-.91,1.53-2.54,2.57-4.67,2.57-3.97,0-6.8-3.6-6.8-8.55,0-5.78,3.42-9.26,7.25-9.26,2.46,0,3.89,1.28,4.66,2.73h.07l.15-2.33h3.54ZM62.64,36.9c0-.43-.04-.84-.13-1.19-.43-1.63-1.59-2.85-3.31-2.85-2.24,0-3.94,2.15-3.94,5.73,0,2.98,1.38,5.39,3.92,5.39,1.52,0,2.81-1.07,3.27-2.69.13-.46.18-1.06.18-1.55v-2.84Z"/><path class="b" d="M70.92,35.08c0-2.02-.06-3.69-.13-5.21h3.46l.19,2.57h.09c.77-1.36,2.23-2.97,4.93-2.97,2.12,0,3.76,1.29,4.44,3.23h.07c.56-.96,1.23-1.69,1.96-2.2.91-.67,1.92-1.03,3.26-1.03,2.65,0,5.35,1.98,5.35,7.6v10.32h-3.95v-9.69c0-2.92-.92-4.63-2.86-4.63-1.39,0-2.4,1.07-2.82,2.33-.13.42-.21.98-.21,1.48v10.52h-3.95v-10.13c0-2.47-.9-4.19-2.76-4.19-1.52,0-2.53,1.3-2.92,2.5-.14.44-.2.97-.2,1.47v10.36h-3.95v-12.31Z"/><path class="b" d="M101.68,39.85c.11,3.18,2.35,4.56,4.95,4.56,1.86,0,3.2-.32,4.42-.81l.6,3.05c-1.37.64-3.27,1.11-5.6,1.11-5.2,0-8.25-3.51-8.25-8.88,0-4.84,2.68-9.41,7.84-9.41s6.9,4.68,6.9,8.52c0,.82-.07,1.48-.14,1.86h-10.72ZM108.73,36.77c.02-1.62-.63-4.27-3.34-4.27-2.49,0-3.53,2.48-3.71,4.27h7.05Z"/><path class="b" d="M130.58,21.83v20.64c0,1.8.06,3.73.13,4.92h-3.61l-.18-2.77h-.07c-.96,1.96-2.89,3.17-5.2,3.17-3.83,0-6.86-3.57-6.86-8.96-.02-5.87,3.33-9.36,7.18-9.36,2.19,0,3.77.99,4.49,2.28h.07v-9.92h4.05ZM126.53,37.17c0-.35-.02-.8-.09-1.15-.36-1.71-1.66-3.11-3.48-3.11-2.61,0-4.06,2.52-4.06,5.77s1.46,5.57,4.01,5.57c1.66,0,3.09-1.24,3.5-3.15.09-.4.12-.83.12-1.29v-2.63Z"/><path class="b" d="M139.23,24.96c0,1.32-.87,2.39-2.31,2.39-1.34,0-2.22-1.07-2.22-2.39,0-1.35.91-2.4,2.27-2.4s2.25,1.03,2.26,2.4ZM134.94,47.39v-17.52h4.05v17.52h-4.05Z"/><path class="b" d="M152.38,47.39l-.28-1.95h-.1c-.97,1.38-2.65,2.35-4.72,2.35-3.25,0-5.05-2.54-5.05-5.21,0-4.42,3.6-6.66,9.5-6.63v-.29c0-1.15-.42-3.07-3.25-3.06-1.57,0-3.22.55-4.31,1.31l-.8-2.88c1.21-.8,3.29-1.56,5.81-1.56,5.14,0,6.61,3.54,6.61,7.39v6.31c0,1.59.07,3.14.25,4.22h-3.66ZM151.85,38.81c-2.86-.04-5.59.62-5.59,3.29,0,1.71,1.03,2.52,2.31,2.52,1.62,0,2.78-1.14,3.17-2.42.09-.31.11-.66.11-.96v-2.42Z"/></svg>