<?xml version="1.0" encoding="UTF-8"?><svg id="Layer_1" xmlns="http://www.w3.org/2000/svg" viewBox="0 0 215.63 123.07"><defs><style>.cls-1,.cls-2{fill:none;}.cls-3{fill:#fff;}.cls-2{stroke:#fed206;stroke-miterlimit:10;stroke-width:5px;}</style></defs><rect class="cls-2" x="29.89" y="103.7" width="53.04" height="9.07" transform="translate(-27.91 19.99) rotate(-16.17)"/><line class="cls-1" x1="39" y2="8.5"/><rect class="cls-2" x="13.69" y="61.47" width="53.12" height="33" transform="translate(-36.44 35.33) rotate(-33.63)"/><path class="cls-3" d="M32.74,89.17c1.31.82,3.3,1.55,5.36,1.55,2.59,0,4.03-1.33,4.03-3.31,0-1.83-1.12-2.91-3.93-4.03-3.66-1.42-6.01-3.57-6.01-7.05,0-3.97,3.04-6.97,7.85-6.97,2.4,0,4.16.56,5.32,1.2l-.97,3.58c-.8-.46-2.35-1.15-4.43-1.15-2.57,0-3.66,1.5-3.66,2.92,0,1.86,1.28,2.74,4.24,3.97,3.85,1.61,5.71,3.72,5.71,7.21,0,3.9-2.69,7.29-8.41,7.29-2.35,0-4.78-.73-6-1.54l.9-3.67Z"/><path class="cls-3" d="M54.03,71.57c0,1.32-.87,2.39-2.31,2.39-1.34,0-2.22-1.07-2.22-2.39,0-1.35.91-2.4,2.27-2.4s2.25,1.03,2.26,2.4ZM49.74,94v-17.52h4.05v17.52h-4.05Z"/><path class="cls-3" d="M72.8,76.48c-.08,1.18-.14,2.63-.14,5.03v9.94c0,3.67-.68,6.29-2.37,7.94-1.67,1.62-3.99,2.13-6.2,2.13-2.04,0-4.2-.48-5.58-1.39l.87-3.38c1.03.68,2.74,1.35,4.67,1.35,2.63,0,4.61-1.52,4.61-5.3v-1.5h-.07c-.91,1.53-2.54,2.57-4.67,2.57-3.97,0-6.8-3.6-6.8-8.55,0-5.78,3.42-9.26,7.25-9.26,2.46,0,3.89,1.28,4.66,2.73h.07l.15-2.33h3.54ZM68.62,83.51c0-.43-.04-.84-.13-1.19-.43-1.63-1.59-2.85-3.31-2.85-2.24,0-3.94,2.15-3.94,5.73,0,2.98,1.38,5.39,3.92,5.39,1.52,0,2.81-1.07,3.27-2.69.13-.46.18-1.06.18-1.55v-2.84Z"/><path class="cls-3" d="M76.89,81.69c0-2.02-.06-3.69-.13-5.21h3.46l.19,2.57h.09c.77-1.36,2.23-2.97,4.93-2.97,2.12,0,3.76,1.29,4.44,3.23h.07c.56-.96,1.23-1.69,1.96-2.2.91-.67,1.92-1.03,3.26-1.03,2.65,0,5.35,1.98,5.35,7.6v10.32h-3.95v-9.69c0-2.92-.92-4.63-2.86-4.63-1.39,0-2.4,1.07-2.82,2.33-.13.42-.21.98-.21,1.48v10.52h-3.95v-10.13c0-2.47-.9-4.19-2.76-4.19-1.52,0-2.53,1.3-2.92,2.5-.14.44-.2.97-.2,1.47v10.36h-3.95v-12.31Z"/><path class="cls-3" d="M107.66,86.46c.11,3.18,2.35,4.56,4.95,4.56,1.86,0,3.2-.32,4.42-.81l.6,3.05c-1.37.64-3.27,1.11-5.6,1.11-5.2,0-8.25-3.51-8.25-8.88,0-4.84,2.68-9.41,7.84-9.41s6.9,4.68,6.9,8.52c0,.82-.07,1.48-.14,1.86h-10.72ZM114.71,83.38c.02-1.62-.63-4.27-3.34-4.27-2.49,0-3.53,2.48-3.71,4.27h7.05Z"/><path class="cls-3" d="M136.56,68.44v20.64c0,1.8.06,3.73.13,4.92h-3.61l-.18-2.77h-.07c-.96,1.96-2.89,3.17-5.2,3.17-3.83,0-6.86-3.57-6.86-8.96-.02-5.87,3.33-9.36,7.18-9.36,2.19,0,3.77.99,4.49,2.28h.07v-9.92h4.05ZM132.51,83.78c0-.35-.02-.8-.09-1.15-.36-1.71-1.66-3.11-3.48-3.11-2.61,0-4.06,2.52-4.06,5.77s1.46,5.57,4.01,5.57c1.66,0,3.09-1.24,3.5-3.15.09-.4.12-.83.12-1.29v-2.63Z"/><path class="cls-3" d="M145.21,71.57c0,1.32-.87,2.39-2.31,2.39-1.34,0-2.22-1.07-2.22-2.39,0-1.35.91-2.4,2.27-2.4s2.25,1.03,2.26,2.4ZM140.92,94v-17.52h4.05v17.52h-4.05Z"/><path class="cls-3" d="M158.36,94l-.28-1.95h-.1c-.97,1.38-2.65,2.35-4.72,2.35-3.25,0-5.05-2.54-5.05-5.21,0-4.42,3.6-6.66,9.5-6.63v-.29c0-1.15-.42-3.07-3.25-3.06-1.57,0-3.22.55-4.31,1.31l-.8-2.88c1.21-.8,3.29-1.56,5.81-1.56,5.14,0,6.61,3.54,6.61,7.39v6.31c0,1.59.07,3.14.25,4.22h-3.66ZM157.83,85.42c-2.86-.04-5.59.62-5.59,3.29,0,1.71,1.03,2.52,2.31,2.52,1.62,0,2.78-1.14,3.17-2.42.09-.31.11-.66.11-.96v-2.42Z"/><path class="cls-3" d="M52.08,111.84c.29.19.82.36,1.26.36.92,0,1.46-.6,1.46-1.49,0-.81-.47-1.3-1.16-1.82-.69-.48-1.65-1.3-1.65-2.43,0-1.33.93-2.3,2.32-2.3.54,0,1.02.17,1.23.32l-.24.86c-.22-.16-.59-.3-1.04-.3-.86,0-1.26.65-1.26,1.25,0,.87.45,1.21,1.29,1.8,1.05.75,1.52,1.55,1.52,2.52,0,1.51-1.06,2.46-2.45,2.46-.6,0-1.23-.2-1.48-.38l.21-.85Z"/><path class="cls-3" d="M58.02,105.08c0,.39-.23.65-.61.65-.32,0-.58-.26-.57-.65,0-.4.25-.65.59-.65.36,0,.6.26.6.65ZM56.93,113v-6.29h1v6.29h-1Z"/><path class="cls-3" d="M63.18,106.71c-.02.43-.06.99-.06,1.96v3.52c0,1.66-.21,2.29-.62,2.74-.38.43-.97.67-1.67.67-.54,0-1.05-.13-1.39-.31l.23-.79c.25.13.67.28,1.17.28.79,0,1.28-.5,1.28-1.92v-.64h-.03c-.21.49-.67.76-1.2.76-1.11,0-1.85-1.25-1.85-3.1,0-2.32,1.05-3.27,1.98-3.27.67,0,.98.44,1.17.81h.03l.05-.71h.9ZM62.13,108.88c0-.16-.01-.32-.05-.46-.11-.43-.34-.96-.91-.96-.72,0-1.11.98-1.11,2.37,0,1.61.51,2.34,1.11,2.34.31,0,.7-.14.9-.9.06-.2.06-.39.06-.57v-1.82Z"/><path class="cls-3" d="M64.49,108.34c0-.74-.04-1.12-.05-1.62h.87l.05.75h.03c.27-.51.78-.86,1.44-.86.87,0,1.52.64,1.52,2.17v4.23h-1v-4.05c0-.75-.14-1.49-.87-1.49-.42,0-.82.35-.94,1.02-.03.15-.05.35-.05.56v3.96h-1v-4.66Z"/><path class="cls-3" d="M72.24,113l-.07-.67h-.03c-.28.49-.72.77-1.26.77-.84,0-1.49-.71-1.49-1.8,0-1.57,1.26-2.26,2.68-2.28v-.2c0-.85-.22-1.43-1.01-1.43-.39,0-.74.12-1.04.33l-.21-.7c.26-.19.84-.41,1.47-.41,1.26,0,1.8.82,1.8,2.24v2.73c0,.47,0,1.02.07,1.42h-.9ZM72.09,109.74c-.51,0-1.73.1-1.73,1.47,0,.82.42,1.11.77,1.11.44,0,.81-.33.93-.94.03-.12.03-.25.03-.36v-1.28Z"/><path class="cls-3" d="M74.48,104h1v9h-1v-9Z"/><path class="cls-3" d="M79.09,104.37c.4-.1.87-.17,1.45-.17.81,0,1.49.19,1.94.64.42.42.65,1.05.65,1.82,0,.81-.2,1.34-.53,1.79-.48.66-1.29.98-2.07.98-.17,0-.3,0-.44-.02v3.59h-.99v-8.63ZM80.08,108.57c.11.02.23.03.4.03.98,0,1.64-.64,1.64-1.88,0-.9-.37-1.7-1.48-1.7-.23,0-.42.03-.55.07v3.49Z"/><path class="cls-3" d="M84.11,108.34c0-.53-.04-1.16-.05-1.62h.89l.05.98h.03c.2-.6.74-1.09,1.32-1.09.09,0,.15,0,.21.01v1.02c-.06,0-.12,0-.21,0-.63,0-1.11.59-1.21,1.31-.02.17-.04.36-.04.57v3.48h-1v-4.66Z"/><path class="cls-3" d="M91.02,109.85c0,2.43-1.13,3.25-2.09,3.25-1.13,0-2.05-1.03-2.05-3.24s1.03-3.26,2.11-3.26,2.02,1.05,2.02,3.24ZM87.89,109.85c0,1.04.19,2.45,1.09,2.45s1.04-1.47,1.04-2.45-.18-2.45-1.06-2.45-1.06,1.48-1.06,2.45Z"/><path class="cls-3" d="M95.2,112.84c-.22.13-.6.23-1.04.23-1.37,0-2.3-1.11-2.3-3.19,0-1.8.92-3.27,2.49-3.27.34,0,.7.09.89.2l-.2.81c-.13-.07-.38-.17-.72-.17-1,0-1.45,1.2-1.45,2.43,0,1.47.56,2.35,1.48,2.35.27,0,.5-.06.73-.17l.13.77Z"/><path class="cls-3" d="M96.69,109.94c0,1.93.77,2.34,1.49,2.34.43,0,.79-.1,1.04-.24l.17.73c-.35.2-.89.3-1.39.3-1.51,0-2.29-1.23-2.29-3.16,0-2.04.87-3.31,2.12-3.31s1.8,1.35,1.8,2.77c0,.25,0,.41-.02.56h-2.92ZM98.67,109.21c.02-1.26-.46-1.82-.93-1.82-.66,0-.99.95-1.03,1.82h1.97Z"/><path class="cls-3" d="M100.53,111.96c.22.15.61.33,1.02.33.57,0,.93-.35.93-.92,0-.47-.18-.81-.81-1.23-.82-.53-1.27-1.07-1.27-1.79,0-1.02.76-1.74,1.74-1.74.49,0,.86.16,1.12.32l-.27.76c-.24-.17-.5-.28-.84-.28-.54,0-.81.4-.81.8s.16.66.78,1.08c.73.47,1.3,1.04,1.3,1.92,0,1.26-.86,1.87-1.9,1.87-.46,0-.97-.14-1.24-.36l.24-.76Z"/><path class="cls-3" d="M104.29,111.96c.22.15.61.33,1.02.33.57,0,.93-.35.93-.92,0-.47-.18-.81-.81-1.23-.82-.53-1.27-1.07-1.27-1.79,0-1.02.76-1.74,1.74-1.74.49,0,.86.16,1.12.32l-.27.76c-.24-.17-.5-.28-.84-.28-.54,0-.81.4-.81.8s.16.66.78,1.08c.73.47,1.3,1.04,1.3,1.92,0,1.26-.86,1.87-1.9,1.87-.46,0-.97-.14-1.24-.36l.24-.76Z"/><path class="cls-3" d="M109.3,105.08c0,.39-.23.65-.61.65-.32,0-.58-.26-.57-.65,0-.4.25-.65.59-.65.36,0,.6.26.6.65ZM108.22,113v-6.29h1v6.29h-1Z"/><path class="cls-3" d="M110.61,108.34c0-.74-.04-1.12-.05-1.62h.87l.05.75h.03c.27-.51.78-.86,1.44-.86.87,0,1.52.64,1.52,2.17v4.23h-1v-4.05c0-.75-.14-1.49-.87-1.49-.42,0-.82.35-.94,1.02-.03.15-.05.35-.05.56v3.96h-1v-4.66Z"/><path class="cls-3" d="M119.73,106.71c-.02.43-.06.99-.06,1.96v3.52c0,1.66-.21,2.29-.62,2.74-.38.43-.97.67-1.67.67-.54,0-1.05-.13-1.39-.31l.23-.79c.25.13.67.28,1.17.28.79,0,1.28-.5,1.28-1.92v-.64h-.03c-.21.49-.67.76-1.2.76-1.11,0-1.85-1.25-1.85-3.1,0-2.32,1.05-3.27,1.98-3.27.67,0,.98.44,1.17.81h.03l.05-.71h.9ZM118.68,108.88c0-.16-.01-.32-.05-.46-.11-.43-.34-.96-.91-.96-.72,0-1.11.98-1.11,2.37,0,1.61.51,2.34,1.11,2.34.31,0,.7-.14.9-.9.06-.2.06-.39.06-.57v-1.82Z"/><path class="cls-3" d="M125.59,113l-.07-.67h-.03c-.28.49-.72.77-1.26.77-.84,0-1.49-.71-1.49-1.8,0-1.57,1.26-2.26,2.68-2.28v-.2c0-.85-.22-1.43-1.01-1.43-.39,0-.74.12-1.04.33l-.21-.7c.26-.19.84-.41,1.47-.41,1.26,0,1.8.82,1.8,2.24v2.73c0,.47,0,1.02.07,1.42h-.9ZM125.44,109.74c-.51,0-1.73.1-1.73,1.47,0,.82.42,1.11.77,1.11.44,0,.81-.33.93-.94.03-.12.03-.25.03-.36v-1.28Z"/><path class="cls-3" d="M127.83,108.34c0-.74-.04-1.12-.05-1.62h.87l.05.75h.03c.27-.51.78-.86,1.44-.86.87,0,1.52.64,1.52,2.17v4.23h-1v-4.05c0-.75-.14-1.49-.87-1.49-.42,0-.82.35-.94,1.02-.03.15-.05.35-.05.56v3.96h-1v-4.66Z"/><path class="cls-3" d="M136.89,104v7.49c0,.42.04,1.14.05,1.5h-.86l-.07-.79h-.04c-.2.45-.65.89-1.32.89-1.06,0-1.83-1.15-1.83-3.23,0-2.23.93-3.27,1.9-3.27.47,0,.9.21,1.15.74h.03v-3.35h.99ZM135.89,109.1c0-.13,0-.28-.02-.41-.06-.66-.45-1.22-.93-1.22-.83,0-1.12,1.16-1.12,2.41,0,1.33.34,2.39,1.06,2.39.31,0,.74-.16.97-1.07.03-.12.04-.27.04-.42v-1.68Z"/><path class="cls-3" d="M145.7,109.23c-.06-1.16-.12-2.44-.09-3.43h-.05c-.19.98-.42,2.02-.69,3.05l-1.08,4.1h-.64l-1.03-3.94c-.29-1.12-.55-2.2-.72-3.21h-.04c0,1.03-.05,2.26-.11,3.5l-.16,3.7h-.9l.52-8.76h1.09l1.02,4.01c.29,1.16.51,2.02.7,3.01h.04c.17-1,.37-1.83.65-3.01l1-4.01h1.12l.5,8.76h-.94l-.19-3.77Z"/><path class="cls-3" d="M148.82,109.94c0,1.93.77,2.34,1.49,2.34.43,0,.79-.1,1.04-.24l.17.73c-.35.2-.89.3-1.39.3-1.51,0-2.29-1.23-2.29-3.16,0-2.04.87-3.31,2.12-3.31s1.8,1.35,1.8,2.77c0,.25,0,.41-.02.56h-2.92ZM150.79,109.21c.02-1.26-.46-1.82-.93-1.82-.66,0-.99.95-1.03,1.82h1.97Z"/><path class="cls-3" d="M156.62,104v7.49c0,.42.04,1.14.05,1.5h-.86l-.07-.79h-.04c-.2.45-.65.89-1.32.89-1.06,0-1.83-1.15-1.83-3.23,0-2.23.93-3.27,1.9-3.27.47,0,.9.21,1.15.74h.03v-3.35h.99ZM155.63,109.1c0-.13,0-.28-.02-.41-.06-.66-.45-1.22-.93-1.22-.83,0-1.12,1.16-1.12,2.41,0,1.33.34,2.39,1.06,2.39.31,0,.74-.16.97-1.07.03-.12.04-.27.04-.42v-1.68Z"/><path class="cls-3" d="M159.1,105.08c0,.39-.23.65-.61.65-.32,0-.58-.26-.57-.65,0-.4.25-.65.59-.65.36,0,.6.26.6.65ZM158.02,113v-6.29h1v6.29h-1Z"/><path class="cls-3" d="M162.9,113l-.07-.67h-.03c-.28.49-.72.77-1.26.77-.84,0-1.49-.71-1.49-1.8,0-1.57,1.26-2.26,2.68-2.28v-.2c0-.85-.22-1.43-1.01-1.43-.39,0-.74.12-1.04.33l-.21-.7c.26-.19.84-.41,1.47-.41,1.26,0,1.8.82,1.8,2.24v2.73c0,.47,0,1.02.07,1.42h-.9ZM162.75,109.74c-.51,0-1.73.1-1.73,1.47,0,.82.42,1.11.77,1.11.44,0,.81-.33.92-.94.03-.12.03-.25.03-.36v-1.28Z"/><path class="cls-3" d="M168.31,110.37l-.58,2.63h-.97l2-8.76h1.11l1.94,8.76h-.99l-.58-2.63h-1.94ZM170.12,109.57l-.46-2.23c-.13-.62-.25-1.34-.35-2h-.04c-.1.66-.23,1.41-.35,2.01l-.46,2.22h1.67Z"/><path class="cls-3" d="M172.79,108.67c0-.97-.04-1.52-.05-1.96h.89l.05.8h.03c.34-.67.84-.9,1.33-.9,1.09,0,1.82,1.16,1.82,3.23,0,2.34-.96,3.27-1.95,3.27-.59,0-.93-.37-1.1-.73h-.03v3.12h-.99v-6.82ZM173.78,110.69c0,.19.01.37.05.52.19.9.64,1.06.92,1.06.83,0,1.1-1.14,1.1-2.41s-.31-2.4-1.11-2.4c-.45,0-.86.57-.92,1.14-.03.15-.04.31-.04.48v1.61Z"/><path class="cls-3" d="M177.98,108.67c0-.97-.04-1.52-.05-1.96h.89l.05.8h.03c.34-.67.84-.9,1.33-.9,1.09,0,1.82,1.16,1.82,3.23,0,2.34-.96,3.27-1.95,3.27-.59,0-.93-.37-1.1-.73h-.03v3.12h-.99v-6.82ZM178.97,110.69c0,.19.01.37.05.52.19.9.64,1.06.92,1.06.83,0,1.1-1.14,1.1-2.41s-.31-2.4-1.11-2.4c-.45,0-.86.57-.92,1.14-.03.15-.04.31-.04.48v1.61Z"/><path class="cls-3" d="M183.17,104h1v9h-1v-9Z"/><path class="cls-3" d="M186.74,105.08c0,.39-.23.65-.61.65-.32,0-.58-.26-.57-.65,0-.4.25-.65.59-.65.36,0,.6.26.6.65ZM185.66,113v-6.29h1v6.29h-1Z"/><path class="cls-3" d="M191.12,112.84c-.22.13-.6.23-1.04.23-1.37,0-2.3-1.11-2.3-3.19,0-1.8.92-3.27,2.49-3.27.34,0,.7.09.88.2l-.2.81c-.13-.07-.38-.17-.72-.17-1,0-1.45,1.2-1.45,2.43,0,1.47.56,2.35,1.48,2.35.27,0,.5-.06.72-.17l.13.77Z"/><path class="cls-3" d="M194.5,113l-.07-.67h-.04c-.28.49-.72.77-1.26.77-.84,0-1.49-.71-1.49-1.8,0-1.57,1.26-2.26,2.69-2.28v-.2c0-.85-.22-1.43-1.01-1.43-.39,0-.74.12-1.04.33l-.21-.7c.26-.19.84-.41,1.47-.41,1.26,0,1.8.82,1.8,2.24v2.73c0,.47,0,1.02.07,1.42h-.9ZM194.35,109.74c-.51,0-1.73.1-1.73,1.47,0,.82.42,1.11.77,1.11.43,0,.81-.33.92-.94.03-.12.03-.25.03-.36v-1.28Z"/><path class="cls-3" d="M197.85,105.04v1.67h1.21v.76h-1.21v3.74c0,.82.29,1.04.66,1.04.16,0,.29-.01.4-.04l.04.77c-.18.07-.41.1-.74.1-.4,0-.75-.11-.99-.38-.25-.29-.37-.71-.37-1.58v-3.65h-.77v-.76h.77v-1.38l1-.29Z"/><path class="cls-3" d="M201.03,105.08c0,.39-.23.65-.61.65-.32,0-.58-.26-.57-.65,0-.4.25-.65.59-.65.36,0,.6.26.6.65ZM199.94,113v-6.29h1v6.29h-1Z"/><path class="cls-3" d="M206.2,109.85c0,2.43-1.13,3.25-2.09,3.25-1.13,0-2.05-1.03-2.05-3.24s1.03-3.26,2.11-3.26,2.02,1.05,2.02,3.24ZM203.06,109.85c0,1.04.19,2.45,1.09,2.45s1.04-1.47,1.04-2.45-.18-2.45-1.06-2.45-1.06,1.48-1.06,2.45Z"/><path class="cls-3" d="M207.31,108.34c0-.74-.04-1.12-.05-1.62h.88l.05.75h.03c.27-.51.78-.86,1.44-.86.87,0,1.52.64,1.52,2.17v4.23h-1v-4.05c0-.75-.14-1.49-.87-1.49-.42,0-.82.35-.94,1.02-.03.15-.05.35-.05.56v3.96h-1v-4.66Z"/><path class="cls-3" d="M212.41,111.96c.22.15.61.33,1.02.33.57,0,.93-.35.93-.92,0-.47-.18-.81-.81-1.23-.82-.53-1.27-1.07-1.27-1.79,0-1.02.76-1.74,1.74-1.74.49,0,.86.16,1.12.32l-.27.76c-.24-.17-.5-.28-.84-.28-.54,0-.81.4-.81.8s.16.66.78,1.08c.73.47,1.3,1.04,1.3,1.92,0,1.26-.86,1.87-1.9,1.87-.46,0-.97-.14-1.24-.36l.24-.76Z"/></svg>