<?xml version="1.0" encoding="UTF-8"?><svg id="a" xmlns="http://www.w3.org/2000/svg" viewBox="0 0 203.91 75.13"><defs><style>.b{fill:#fff;}.c{fill:#fed206;}</style></defs><path class="c" d="M60.13,51.11l-1.09.32h-.02l-6.42,1.86-.06.24c1.38.9,3.54,1.38,5.58,1.38,2.2,0,4.52-.5,6.2-2.13.89-.87,1.5-2.01,1.87-3.43l-6.06,1.76ZM59.04,51.43c.39-.06.75-.17,1.09-.32l-1.09.32ZM59.04,51.43c.39-.06.75-.17,1.09-.32l-1.09.32ZM41.17,57.31c-1.33,0-2.22.93-2.22,2.17,0,.72.32,1.28.82,1.7l1.21-.35c-.76-.42-1.12-.77-1.12-1.48,0-.55.36-1.19,1.27-1.19.57,0,1,.2,1.21.35l.25-.84c-.28-.18-.78-.36-1.42-.36ZM41.17,57.31c-1.33,0-2.22.93-2.22,2.17,0,.72.32,1.28.82,1.7l1.21-.35c-.76-.42-1.12-.77-1.12-1.48,0-.55.36-1.19,1.27-1.19.57,0,1,.2,1.21.35l.25-.84c-.28-.18-.78-.36-1.42-.36ZM41.17,57.31c-1.33,0-2.22.93-2.22,2.17,0,.72.32,1.28.82,1.7l1.21-.35c-.76-.42-1.12-.77-1.12-1.48,0-.55.36-1.19,1.27-1.19.57,0,1,.2,1.21.35l.25-.84c-.28-.18-.78-.36-1.42-.36ZM43.99,59.71v.25l.86-.25h-.86ZM43.99,59.71v.25l.86-.25h-.86ZM41.17,57.31c-1.33,0-2.22.93-2.22,2.17,0,.72.32,1.28.82,1.7l1.21-.35c-.76-.42-1.12-.77-1.12-1.48,0-.55.36-1.19,1.27-1.19.57,0,1,.2,1.21.35l.25-.84c-.28-.18-.78-.36-1.42-.36ZM41.17,57.31c-1.33,0-2.22.93-2.22,2.17,0,.72.32,1.28.82,1.7l1.21-.35c-.76-.42-1.12-.77-1.12-1.48,0-.55.36-1.19,1.27-1.19.57,0,1,.2,1.21.35l.25-.84c-.28-.18-.78-.36-1.42-.36ZM44.44,57.47c-.32,0-.56.27-.55.64-.01.36.22.63.54.63.35,0,.57-.27.57-.63s-.22-.64-.56-.64ZM43.99,59.71v.25l.86-.25h-.86ZM43.99,59.71v.25l.86-.25h-.86ZM41.17,57.31c-1.33,0-2.22.93-2.22,2.17,0,.72.32,1.28.82,1.7l1.21-.35c-.76-.42-1.12-.77-1.12-1.48,0-.55.36-1.19,1.27-1.19.57,0,1,.2,1.21.35l.25-.84c-.28-.18-.78-.36-1.42-.36ZM44.44,57.47c-.32,0-.56.27-.55.64-.01.36.22.63.54.63.35,0,.57-.27.57-.63s-.22-.64-.56-.64ZM41.17,57.31c-1.33,0-2.22.93-2.22,2.17,0,.72.32,1.28.82,1.7l1.21-.35c-.76-.42-1.12-.77-1.12-1.48,0-.55.36-1.19,1.27-1.19.57,0,1,.2,1.21.35l.25-.84c-.28-.18-.78-.36-1.42-.36ZM44.44,57.47c-.32,0-.56.27-.55.64-.01.36.22.63.54.63.35,0,.57-.27.57-.63s-.22-.64-.56-.64ZM43.99,59.71v.25l.86-.25h-.86ZM43.99,65.23v.28h.91v-.54l-.91.26ZM43.99,65.23v.28h.91v-.54l-.91.26ZM43.99,59.71v.25l.86-.25h-.86ZM41.17,57.31c-1.33,0-2.22.93-2.22,2.17,0,.72.32,1.28.82,1.7l1.21-.35c-.76-.42-1.12-.77-1.12-1.48,0-.55.36-1.19,1.27-1.19.57,0,1,.2,1.21.35l.25-.84c-.28-.18-.78-.36-1.42-.36ZM44.44,57.47c-.32,0-.56.27-.55.64-.01.36.22.63.54.63.35,0,.57-.27.57-.63s-.22-.64-.56-.64ZM41.17,57.31c-1.33,0-2.22.93-2.22,2.17,0,.72.32,1.28.82,1.7l1.21-.35c-.76-.42-1.12-.77-1.12-1.48,0-.55.36-1.19,1.27-1.19.57,0,1,.2,1.21.35l.25-.84c-.28-.18-.78-.36-1.42-.36ZM44.44,57.47c-.32,0-.56.27-.55.64-.01.36.22.63.54.63.35,0,.57-.27.57-.63s-.22-.64-.56-.64ZM43.99,59.71v.25l.86-.25h-.86ZM43.99,65.23v.28h.91v-.54l-.91.26ZM49.42,63.66s-.01.02-.01.03c-.19.68-.65,1.01-1.14,1.01-.37,0-.68-.16-.9-.45l-.9.26c.34.61.89.98,1.54.98.7,0,1.2-.38,1.46-.9h.02v.63c0,1.42-.62,1.96-1.49,1.96-.58,0-1.05-.2-1.36-.41l-.22.79c.38.27.98.42,1.55.42.63,0,1.29-.19,1.74-.67.45-.49.67-1.22.67-2.62v-1.31l-.96.28ZM44.44,57.47c-.32,0-.56.27-.55.64-.01.36.22.63.54.63.35,0,.57-.27.57-.63s-.22-.64-.56-.64ZM41.17,57.31c-1.33,0-2.22.93-2.22,2.17,0,.72.32,1.28.82,1.7l1.21-.35c-.76-.42-1.12-.77-1.12-1.48,0-.55.36-1.19,1.27-1.19.57,0,1,.2,1.21.35l.25-.84c-.28-.18-.78-.36-1.42-.36ZM44.44,57.47c-.32,0-.56.27-.55.64-.01.36.22.63.54.63.35,0,.57-.27.57-.63s-.22-.64-.56-.64ZM43.99,59.71v.25l.86-.25h-.86ZM43.99,65.23v.28h.91v-.54l-.91.26ZM49.42,63.66s-.01.02-.01.03c-.19.68-.65,1.01-1.14,1.01-.37,0-.68-.16-.9-.45l-.9.26c.34.61.89.98,1.54.98.7,0,1.2-.38,1.46-.9h.02v.63c0,1.42-.62,1.96-1.49,1.96-.58,0-1.05-.2-1.36-.41l-.22.79c.38.27.98.42,1.55.42.63,0,1.29-.19,1.74-.67.45-.49.67-1.22.67-2.62v-1.31l-.96.28ZM51.77,62.98v2.53h.9v-2.79l-.9.26ZM44.44,57.47c-.32,0-.56.27-.55.64-.01.36.22.63.54.63.35,0,.57-.27.57-.63s-.22-.64-.56-.64ZM41.17,57.31c-1.33,0-2.22.93-2.22,2.17,0,.72.32,1.28.82,1.7l1.21-.35c-.76-.42-1.12-.77-1.12-1.48,0-.55.36-1.19,1.27-1.19.57,0,1,.2,1.21.35l.25-.84c-.28-.18-.78-.36-1.42-.36ZM44.44,57.47c-.32,0-.56.27-.55.64-.01.36.22.63.54.63.35,0,.57-.27.57-.63s-.22-.64-.56-.64ZM43.99,59.71v.25l.86-.25h-.86ZM43.99,65.23v.28h.91v-.54l-.91.26ZM49.42,63.66s-.01.02-.01.03c-.19.68-.65,1.01-1.14,1.01-.37,0-.68-.16-.9-.45l-.9.26c.34.61.89.98,1.54.98.7,0,1.2-.38,1.46-.9h.02v.63c0,1.42-.62,1.96-1.49,1.96-.58,0-1.05-.2-1.36-.41l-.22.79c.38.27.98.42,1.55.42.63,0,1.29-.19,1.74-.67.45-.49.67-1.22.67-2.62v-1.31l-.96.28ZM51.77,62.98v2.53h.9v-2.79l-.9.26ZM44.44,57.47c-.32,0-.56.27-.55.64-.01.36.22.63.54.63.35,0,.57-.27.57-.63s-.22-.64-.56-.64ZM41.17,57.31c-1.33,0-2.22.93-2.22,2.17,0,.72.32,1.28.82,1.7l1.21-.35c-.76-.42-1.12-.77-1.12-1.48,0-.55.36-1.19,1.27-1.19.57,0,1,.2,1.21.35l.25-.84c-.28-.18-.78-.36-1.42-.36ZM44.44,57.47c-.32,0-.56.27-.55.64-.01.36.22.63.54.63.35,0,.57-.27.57-.63s-.22-.64-.56-.64ZM43.99,59.71v.25l.86-.25h-.86ZM43.99,65.23v.28h.91v-.54l-.91.26ZM49.42,63.66s-.01.02-.01.03c-.19.68-.65,1.01-1.14,1.01-.37,0-.68-.16-.9-.45l-.9.26c.34.61.89.98,1.54.98.7,0,1.2-.38,1.46-.9h.02v.63c0,1.42-.62,1.96-1.49,1.96-.58,0-1.05-.2-1.36-.41l-.22.79c.38.27.98.42,1.55.42.63,0,1.29-.19,1.74-.67.45-.49.67-1.22.67-2.62v-1.31l-.96.28ZM51.77,62.98v2.53h.9v-2.79l-.9.26ZM54.91,62.07v3.44h.9v-3.7l-.9.26ZM59.02,61.07c-.04-.07-.11-.11-.21-.13l-1.2.34-1.24.36s.01.1.01.16v1.44c.28-1.12,1.24-1.82,2.72-1.96-.02-.09-.05-.16-.08-.21ZM56.38,64.62v.89c0,.12-.04.23-.11.33l.69-.2c-.27-.26-.48-.61-.58-1.02ZM54.91,66.08c-.31,0-.57-.26-.57-.57v-3.28l-1.1.32v2.96c0,.31-.26.57-.57.57h-.9c-.31,0-.57-.26-.57-.57v-2.37l-.25.08v1.47c0,.2,0,.38-.01.56-.02.33-.05.62-.1.88-.01.06-.02.12-.03.17-.03.13-.06.25-.1.37-.02.07-.04.13-.07.19-.11.28-.25.52-.43.73l5.24-1.51h-.54ZM44.44,57.47c-.32,0-.56.27-.55.64-.01.36.22.63.54.63.35,0,.57-.27.57-.63s-.22-.64-.56-.64ZM41.17,57.31c-1.33,0-2.22.93-2.22,2.17,0,.72.32,1.28.82,1.7l1.21-.35c-.76-.42-1.12-.77-1.12-1.48,0-.55.36-1.19,1.27-1.19.57,0,1,.2,1.21.35l.25-.84c-.28-.18-.78-.36-1.42-.36ZM44.44,57.47c-.32,0-.56.27-.55.64-.01.36.22.63.54.63.35,0,.57-.27.57-.63s-.22-.64-.56-.64ZM43.99,59.71v.25l.86-.25h-.86ZM43.99,65.23v.28h.91v-.54l-.91.26ZM49.42,63.66s-.01.02-.01.03c-.19.68-.65,1.01-1.14,1.01-.37,0-.68-.16-.9-.45l-.9.26c.34.61.89.98,1.54.98.7,0,1.2-.38,1.46-.9h.02v.63c0,1.42-.62,1.96-1.49,1.96-.58,0-1.05-.2-1.36-.41l-.22.79c.38.27.98.42,1.55.42.63,0,1.29-.19,1.74-.67.45-.49.67-1.22.67-2.62v-1.31l-.96.28ZM51.77,62.98v2.53h.9v-2.79l-.9.26ZM54.91,62.07v3.44h.9v-3.7l-.9.26ZM58.34,63.85c0,.29.08.44.23.44.39,0,.53-.36.57-.52.02-.05.02-.11.02-.18v-.47c-.82.11-.82.53-.82.73ZM58.34,63.85c0,.29.08.44.23.44.39,0,.53-.36.57-.52.02-.05.02-.11.02-.18v-.47c-.82.11-.82.53-.82.73ZM44.44,57.47c-.32,0-.56.27-.55.64-.01.36.22.63.54.63.35,0,.57-.27.57-.63s-.22-.64-.56-.64ZM41.17,57.31c-1.33,0-2.22.93-2.22,2.17,0,.72.32,1.28.82,1.7l1.21-.35c-.76-.42-1.12-.77-1.12-1.48,0-.55.36-1.19,1.27-1.19.57,0,1,.2,1.21.35l.25-.84c-.28-.18-.78-.36-1.42-.36ZM44.44,57.47c-.32,0-.56.27-.55.64-.01.36.22.63.54.63.35,0,.57-.27.57-.63s-.22-.64-.56-.64ZM43.99,59.71v.25l.86-.25h-.86ZM43.99,65.23v.28h.91v-.54l-.91.26ZM49.42,63.66s-.01.02-.01.03c-.19.68-.65,1.01-1.14,1.01-.37,0-.68-.16-.9-.45l-.9.26c.34.61.89.98,1.54.98.7,0,1.2-.38,1.46-.9h.02v.63c0,1.42-.62,1.96-1.49,1.96-.58,0-1.05-.2-1.36-.41l-.22.79c.38.27.98.42,1.55.42.63,0,1.29-.19,1.74-.67.45-.49.67-1.22.67-2.62v-1.31l-.96.28ZM51.77,62.98v2.53h.9v-2.79l-.9.26ZM54.91,62.07v3.44h.9v-3.7l-.9.26ZM44.44,57.47c-.32,0-.56.27-.55.64-.01.36.22.63.54.63.35,0,.57-.27.57-.63s-.22-.64-.56-.64ZM44.44,57.47c-.32,0-.56.27-.55.64-.01.36.22.63.54.63.35,0,.57-.27.57-.63s-.22-.64-.56-.64ZM60.9,60.33c.18.4.28.92.28,1.54v2.27c0,.1,0,.19.01.28l.27-.08v-4.17l-.56.16ZM44.44,57.47c-.32,0-.56.27-.55.64-.01.36.22.63.54.63.35,0,.57-.27.57-.63s-.22-.64-.56-.64ZM44.44,57.47c-.32,0-.56.27-.55.64-.01.36.22.63.54.63.35,0,.57-.27.57-.63s-.22-.64-.56-.64ZM44.44,57.47c-.32,0-.56.27-.55.64-.01.36.22.63.54.63.35,0,.57-.27.57-.63s-.22-.64-.56-.64ZM44.44,57.47c-.32,0-.56.27-.55.64-.01.36.22.63.54.63.35,0,.57-.27.57-.63s-.22-.64-.56-.64ZM68.3,58.75s-.07-.01-.11-.02h.02s-.19.01-.19.01v2.18h.07c.75,0,1.11-.38,1.11-1.16,0-.66-.29-.99-.9-1.01ZM44.44,57.47c-.32,0-.56.27-.55.64-.01.36.22.63.54.63.35,0,.57-.27.57-.63s-.22-.64-.56-.64ZM44.44,57.47c-.32,0-.56.27-.55.64-.01.36.22.63.54.63.35,0,.57-.27.57-.63s-.22-.64-.56-.64ZM44.44,57.47c-.32,0-.56.27-.55.64-.01.36.22.63.54.63.35,0,.57-.27.57-.63s-.22-.64-.56-.64ZM44.44,57.47c-.32,0-.56.27-.55.64-.01.36.22.63.54.63.35,0,.57-.27.57-.63s-.22-.64-.56-.64ZM44.44,57.47c-.32,0-.56.27-.55.64-.01.36.22.63.54.63.35,0,.57-.27.57-.63s-.22-.64-.56-.64ZM44.44,57.47c-.32,0-.56.27-.55.64-.01.36.22.63.54.63.35,0,.57-.27.57-.63s-.22-.64-.56-.64ZM44.44,57.47c-.32,0-.56.27-.55.64-.01.36.22.63.54.63.35,0,.57-.27.57-.63s-.22-.64-.56-.64ZM44.44,57.47c-.32,0-.56.27-.55.64-.01.36.22.63.54.63.35,0,.57-.27.57-.63s-.22-.64-.56-.64ZM44.44,57.47c-.32,0-.56.27-.55.64-.01.36.22.63.54.63.35,0,.57-.27.57-.63s-.22-.64-.56-.64ZM44.44,57.47c-.32,0-.56.27-.55.64-.01.36.22.63.54.63.35,0,.57-.27.57-.63s-.22-.64-.56-.64ZM44.44,57.47c-.32,0-.56.27-.55.64-.01.36.22.63.54.63.35,0,.57-.27.57-.63s-.22-.64-.56-.64ZM44.44,57.47c-.32,0-.56.27-.55.64-.01.36.22.63.54.63.35,0,.57-.27.57-.63s-.22-.64-.56-.64ZM44.44,57.47c-.32,0-.56.27-.55.64-.01.36.22.63.54.63.35,0,.57-.27.57-.63s-.22-.64-.56-.64ZM44.44,57.47c-.32,0-.56.27-.55.64-.01.36.22.63.54.63.35,0,.57-.27.57-.63s-.22-.64-.56-.64ZM44.44,57.47c-.32,0-.56.27-.55.64-.01.36.22.63.54.63.35,0,.57-.27.57-.63s-.22-.64-.56-.64ZM44.44,57.47c-.32,0-.56.27-.55.64-.01.36.22.63.54.63.35,0,.57-.27.57-.63s-.22-.64-.56-.64ZM44.44,57.47c-.32,0-.56.27-.55.64-.01.36.22.63.54.63.35,0,.57-.27.57-.63s-.22-.64-.56-.64ZM44.44,57.47c-.32,0-.56.27-.55.64-.01.36.22.63.54.63.35,0,.57-.27.57-.63s-.22-.64-.56-.64ZM44.44,57.47c-.32,0-.56.27-.55.64-.01.36.22.63.54.63.35,0,.57-.27.57-.63s-.22-.64-.56-.64ZM44.44,57.47c-.32,0-.56.27-.55.64-.01.36.22.63.54.63.35,0,.57-.27.57-.63s-.22-.64-.56-.64ZM44.44,57.47c-.32,0-.56.27-.55.64-.01.36.22.63.54.63.35,0,.57-.27.57-.63s-.22-.64-.56-.64ZM44.44,57.47c-.32,0-.56.27-.55.64-.01.36.22.63.54.63.35,0,.57-.27.57-.63s-.22-.64-.56-.64ZM44.44,57.47c-.32,0-.56.27-.55.64-.01.36.22.63.54.63.35,0,.57-.27.57-.63s-.22-.64-.56-.64ZM44.44,57.47c-.32,0-.56.27-.55.64-.01.36.22.63.54.63.35,0,.57-.27.57-.63s-.22-.64-.56-.64ZM44.44,57.47c-.32,0-.56.27-.55.64-.01.36.22.63.54.63.35,0,.57-.27.57-.63s-.22-.64-.56-.64ZM44.44,57.47c-.32,0-.56.27-.55.64-.01.36.22.63.54.63.35,0,.57-.27.57-.63s-.22-.64-.56-.64ZM44.44,57.47c-.32,0-.56.27-.55.64-.01.36.22.63.54.63.35,0,.57-.27.57-.63s-.22-.64-.56-.64ZM44.44,57.47c-.32,0-.56.27-.55.64-.01.36.22.63.54.63.35,0,.57-.27.57-.63s-.22-.64-.56-.64ZM44.44,57.47c-.32,0-.56.27-.55.64-.01.36.22.63.54.63.35,0,.57-.27.57-.63s-.22-.64-.56-.64ZM44.44,57.47c-.32,0-.56.27-.55.64-.01.36.22.63.54.63.35,0,.57-.27.57-.63s-.22-.64-.56-.64ZM44.44,57.47c-.32,0-.56.27-.55.64-.01.36.22.63.54.63.35,0,.57-.27.57-.63s-.22-.64-.56-.64ZM44.44,57.47c-.32,0-.56.27-.55.64-.01.36.22.63.54.63.35,0,.57-.27.57-.63s-.22-.64-.56-.64ZM44.44,57.47c-.32,0-.56.27-.55.64-.01.36.22.63.54.63.35,0,.57-.27.57-.63s-.22-.64-.56-.64ZM44.44,57.47c-.32,0-.56.27-.55.64-.01.36.22.63.54.63.35,0,.57-.27.57-.63s-.22-.64-.56-.64ZM44.44,57.47c-.32,0-.56.27-.55.64-.01.36.22.63.54.63.35,0,.57-.27.57-.63s-.22-.64-.56-.64ZM44.44,57.47c-.32,0-.56.27-.55.64-.01.36.22.63.54.63.35,0,.57-.27.57-.63s-.22-.64-.56-.64ZM44.44,57.47c-.32,0-.56.27-.55.64-.01.36.22.63.54.63.35,0,.57-.27.57-.63s-.22-.64-.56-.64ZM44.44,57.47c-.32,0-.56.27-.55.64-.01.36.22.63.54.63.35,0,.57-.27.57-.63s-.22-.64-.56-.64ZM44.44,57.47c-.32,0-.56.27-.55.64-.01.36.22.63.54.63.35,0,.57-.27.57-.63s-.22-.64-.56-.64ZM44.44,57.47c-.32,0-.56.27-.55.64-.01.36.22.63.54.63.35,0,.57-.27.57-.63s-.22-.64-.56-.64ZM44.44,57.47c-.32,0-.56.27-.55.64-.01.36.22.63.54.63.35,0,.57-.27.57-.63s-.22-.64-.56-.64ZM44.44,57.47c-.32,0-.56.27-.55.64-.01.36.22.63.54.63.35,0,.57-.27.57-.63s-.22-.64-.56-.64ZM44.44,57.47c-.32,0-.56.27-.55.64-.01.36.22.63.54.63.35,0,.57-.27.57-.63s-.22-.64-.56-.64ZM44.44,57.47c-.32,0-.56.27-.55.64-.01.36.22.63.54.63.35,0,.57-.27.57-.63s-.22-.64-.56-.64ZM44.44,57.47c-.32,0-.56.27-.55.64-.01.36.22.63.54.63.35,0,.57-.27.57-.63s-.22-.64-.56-.64ZM44.44,57.47c-.32,0-.56.27-.55.64-.01.36.22.63.54.63.35,0,.57-.27.57-.63s-.22-.64-.56-.64ZM44.44,57.47c-.32,0-.56.27-.55.64-.01.36.22.63.54.63.35,0,.57-.27.57-.63s-.22-.64-.56-.64ZM44.44,57.47c-.32,0-.56.27-.55.64-.01.36.22.63.54.63.35,0,.57-.27.57-.63s-.22-.64-.56-.64ZM44.44,57.47c-.32,0-.56.27-.55.64-.01.36.22.63.54.63.35,0,.57-.27.57-.63s-.22-.64-.56-.64ZM41.17,57.31c-1.33,0-2.22.93-2.22,2.17,0,.72.32,1.28.82,1.7l1.21-.35c-.76-.42-1.12-.77-1.12-1.48,0-.55.36-1.19,1.27-1.19.57,0,1,.2,1.21.35l.25-.84c-.28-.18-.78-.36-1.42-.36ZM44.44,57.47c-.32,0-.56.27-.55.64-.01.36.22.63.54.63.35,0,.57-.27.57-.63s-.22-.64-.56-.64ZM43.99,59.71v.25l.86-.25h-.86ZM43.99,65.23v.28h.91v-.54l-.91.26ZM49.42,63.66s-.01.02-.01.03c-.19.68-.65,1.01-1.14,1.01-.37,0-.68-.16-.9-.45l-.9.26c.34.61.89.98,1.54.98.7,0,1.2-.38,1.46-.9h.02v.63c0,1.42-.62,1.96-1.49,1.96-.58,0-1.05-.2-1.36-.41l-.22.79c.38.27.98.42,1.55.42.63,0,1.29-.19,1.74-.67.45-.49.67-1.22.67-2.62v-1.31l-.96.28ZM51.77,62.98v2.53h.9v-2.79l-.9.26ZM54.91,62.07v3.44h.9v-3.7l-.9.26ZM59.02,61.07c-.04-.07-.11-.11-.21-.13l-1.2.34-1.24.36s.01.1.01.16v1.44c.28-1.12,1.24-1.82,2.72-1.96-.02-.09-.05-.16-.08-.21ZM44.44,57.47c-.32,0-.56.27-.55.64-.01.36.22.63.54.63.35,0,.57-.27.57-.63s-.22-.64-.56-.64ZM44.44,57.47c-.32,0-.56.27-.55.64-.01.36.22.63.54.63.35,0,.57-.27.57-.63s-.22-.64-.56-.64ZM49.42,63.66s-.01.02-.01.03c-.19.68-.65,1.01-1.14,1.01-.37,0-.68-.16-.9-.45l-.9.26c.34.61.89.98,1.54.98.7,0,1.2-.38,1.46-.9h.02v.63c0,1.42-.62,1.96-1.49,1.96-.58,0-1.05-.2-1.36-.41l-.22.79c.38.27.98.42,1.55.42.63,0,1.29-.19,1.74-.67.45-.49.67-1.22.67-2.62v-1.31l-.96.28ZM51.77,62.98v2.53h.9v-2.79l-.9.26ZM54.91,62.07v3.44h.9v-3.7l-.9.26ZM59.02,61.07c-.04-.07-.11-.11-.21-.13l-1.2.34-1.24.36s.01.1.01.16v1.44c.28-1.12,1.24-1.82,2.72-1.96-.02-.09-.05-.16-.08-.21ZM44.44,57.47c-.32,0-.56.27-.55.64-.01.36.22.63.54.63.35,0,.57-.27.57-.63s-.22-.64-.56-.64ZM44.44,57.47c-.32,0-.56.27-.55.64-.01.36.22.63.54.63.35,0,.57-.27.57-.63s-.22-.64-.56-.64ZM71.07,60.86c-.09.3-.23.57-.41.81l.42-.12v-.17c0-.18,0-.35-.01-.52ZM58.12,55.48c-2.28,0-4.48-.55-5.89-1.48-.17-.11-.27-.31-.25-.52l-11.66,3.38c.27-.08.55-.12.85-.12.65,0,1.28.17,1.73.45.21.14.31.4.23.64l-.25.84c-.05.18-.18.32-.36.38-.06.02-.12.03-.18.03-.12,0-.23-.04-.33-.11-.16-.11-.48-.24-.88-.24-.63,0-.7.43-.7.62,0,.36.08.57.82.98l-.07.28s.03.02.05.03l.12-.25s.1.05.11.06c.1.05.19.1.28.16l1.68-.49v-.41c0-.27.2-.5.45-.55-.08-.05-.15-.11-.22-.18-.22-.23-.34-.54-.33-.89-.01-.31.11-.63.34-.86.2-.21.48-.33.78-.33.64,0,1.13.52,1.13,1.21,0,.46-.22.84-.57,1.04.21.04.38.19.44.39l14.37-4.17c-.54.08-1.1.11-1.69.11ZM75.51,46.65l-.07.02v.72c0,.31-.26.57-.57.57h-3.88l-4.17,1.21c-.02.11-.05.22-.08.33-.41,1.54-1.07,2.75-2.02,3.68-.55.53-1.18.98-1.88,1.31l9.94-2.88,1.41,4.87-3.76,1.09.04.04c.42.43.68,1.02.75,1.69.1-.1.24-.16.38-.16h.8c.17,0,.32.08.42.19.3-.2.64-.32.99-.32.13,0,.25.02.37.05.26.06.44.29.44.55v.49s.04-.05.06-.08c.51-.65,1.26-1.01,2.09-1.01.3,0,.58.05.84.14,0,0,.03.01.05.01.21.08.41.18.59.31l.9-.26-3.64-12.56ZM44.44,57.47c-.32,0-.56.27-.55.64-.01.36.22.63.54.63.35,0,.57-.27.57-.63s-.22-.64-.56-.64ZM59.02,61.07c-.04-.07-.11-.11-.21-.13l-1.2.34-1.24.36s.01.1.01.16v1.44c.28-1.12,1.24-1.82,2.72-1.96-.02-.09-.05-.16-.08-.21ZM54.91,62.07v3.44h.9v-3.7l-.9.26ZM51.77,62.98v2.53h.9v-2.79l-.9.26ZM49.42,63.66s-.01.02-.01.03c-.19.68-.65,1.01-1.14,1.01-.37,0-.68-.16-.9-.45l-.9.26c.34.61.89.98,1.54.98.7,0,1.2-.38,1.46-.9h.02v.63c0,1.42-.62,1.96-1.49,1.96-.58,0-1.05-.2-1.36-.41l-.22.79c.38.27.98.42,1.55.42.63,0,1.29-.19,1.74-.67.45-.49.67-1.22.67-2.62v-1.31l-.96.28ZM44.44,57.47c-.32,0-.56.27-.55.64-.01.36.22.63.54.63.35,0,.57-.27.57-.63s-.22-.64-.56-.64ZM44.44,57.47c-.32,0-.56.27-.55.64-.01.36.22.63.54.63.35,0,.57-.27.57-.63s-.22-.64-.56-.64ZM59.02,61.07c-.04-.07-.11-.11-.21-.13l-1.2.34-1.24.36s.01.1.01.16v1.44c.28-1.12,1.24-1.82,2.72-1.96-.02-.09-.05-.16-.08-.21ZM54.91,62.07v3.44h.9v-3.7l-.9.26ZM51.77,62.98v2.53h.9v-2.79l-.9.26ZM49.42,63.66s-.01.02-.01.03c-.19.68-.65,1.01-1.14,1.01-.37,0-.68-.16-.9-.45l-.9.26c.34.61.89.98,1.54.98.7,0,1.2-.38,1.46-.9h.02v.63c0,1.42-.62,1.96-1.49,1.96-.58,0-1.05-.2-1.36-.41l-.22.79c.38.27.98.42,1.55.42.63,0,1.29-.19,1.74-.67.45-.49.67-1.22.67-2.62v-1.31l-.96.28ZM48.01,66.06c-.84,0-1.59-.47-2.03-1.27-.02-.03-.04-.07-.06-.11l-.45.13v.7c0,.31-.26.57-.57.57h-.91c-.31,0-.57-.26-.57-.57v-.12l-1.36.4c-.37.21-.82.35-1.32.38l-13.65,3.96-1.41-4.86,13.46-3.91c-.49-.52-.76-1.17-.76-1.88,0-1.29.78-2.29,1.93-2.62l-19.47,5.64-.12.04v.04s3.64,12.51,3.64,12.51l22.84-6.62c-.31-.06-.6-.16-.85-.29-.09-.05-.18-.1-.26-.16-.19-.14-.28-.38-.22-.61l.22-.79c.05-.18.18-.32.35-.38.07-.03.13-.04.2-.04.11,0,.22.04.32.1.17.12.54.31,1.04.31.22,0,.68,0,.85-.72-.26.11-.54.17-.84.17ZM43.99,65.23v.28h.91v-.54l-.91.26ZM43.99,59.71v.25l.86-.25h-.86ZM44.44,57.47c-.32,0-.56.27-.55.64-.01.36.22.63.54.63.35,0,.57-.27.57-.63s-.22-.64-.56-.64ZM41.17,57.31c-1.33,0-2.22.93-2.22,2.17,0,.72.32,1.28.82,1.7l1.21-.35c-.76-.42-1.12-.77-1.12-1.48,0-.55.36-1.19,1.27-1.19.57,0,1,.2,1.21.35l.25-.84c-.28-.18-.78-.36-1.42-.36ZM44.44,57.47c-.32,0-.56.27-.55.64-.01.36.22.63.54.63.35,0,.57-.27.57-.63s-.22-.64-.56-.64ZM72.96,47.39h1.91v-.55l-1.91.55ZM44.44,57.47c-.32,0-.56.27-.55.64-.01.36.22.63.54.63.35,0,.57-.27.57-.63s-.22-.64-.56-.64ZM44.44,57.47c-.32,0-.56.27-.55.64-.01.36.22.63.54.63.35,0,.57-.27.57-.63s-.22-.64-.56-.64ZM44.44,57.47c-.32,0-.56.27-.55.64-.01.36.22.63.54.63.35,0,.57-.27.57-.63s-.22-.64-.56-.64ZM44.44,57.47c-.32,0-.56.27-.55.64-.01.36.22.63.54.63.35,0,.57-.27.57-.63s-.22-.64-.56-.64ZM44.44,57.47c-.32,0-.56.27-.55.64-.01.36.22.63.54.63.35,0,.57-.27.57-.63s-.22-.64-.56-.64ZM44.44,57.47c-.32,0-.56.27-.55.64-.01.36.22.63.54.63.35,0,.57-.27.57-.63s-.22-.64-.56-.64ZM44.44,57.47c-.32,0-.56.27-.55.64-.01.36.22.63.54.63.35,0,.57-.27.57-.63s-.22-.64-.56-.64ZM44.44,57.47c-.32,0-.56.27-.55.64-.01.36.22.63.54.63.35,0,.57-.27.57-.63s-.22-.64-.56-.64ZM44.44,57.47c-.32,0-.56.27-.55.64-.01.36.22.63.54.63.35,0,.57-.27.57-.63s-.22-.64-.56-.64ZM44.44,57.47c-.32,0-.56.27-.55.64-.01.36.22.63.54.63.35,0,.57-.27.57-.63s-.22-.64-.56-.64ZM44.44,57.47c-.32,0-.56.27-.55.64-.01.36.22.63.54.63.35,0,.57-.27.57-.63s-.22-.64-.56-.64ZM44.44,57.47c-.32,0-.56.27-.55.64-.01.36.22.63.54.63.35,0,.57-.27.57-.63s-.22-.64-.56-.64ZM44.44,57.47c-.32,0-.56.27-.55.64-.01.36.22.63.54.63.35,0,.57-.27.57-.63s-.22-.64-.56-.64ZM44.44,57.47c-.32,0-.56.27-.55.64-.01.36.22.63.54.63.35,0,.57-.27.57-.63s-.22-.64-.56-.64ZM44.44,57.47c-.32,0-.56.27-.55.64-.01.36.22.63.54.63.35,0,.57-.27.57-.63s-.22-.64-.56-.64ZM44.44,57.47c-.32,0-.56.27-.55.64-.01.36.22.63.54.63.35,0,.57-.27.57-.63s-.22-.64-.56-.64ZM44.44,57.47c-.32,0-.56.27-.55.64-.01.36.22.63.54.63.35,0,.57-.27.57-.63s-.22-.64-.56-.64ZM44.44,57.47c-.32,0-.56.27-.55.64-.01.36.22.63.54.63.35,0,.57-.27.57-.63s-.22-.64-.56-.64ZM44.44,57.47c-.32,0-.56.27-.55.64-.01.36.22.63.54.63.35,0,.57-.27.57-.63s-.22-.64-.56-.64ZM44.44,57.47c-.32,0-.56.27-.55.64-.01.36.22.63.54.63.35,0,.57-.27.57-.63s-.22-.64-.56-.64ZM44.44,57.47c-.32,0-.56.27-.55.64-.01.36.22.63.54.63.35,0,.57-.27.57-.63s-.22-.64-.56-.64ZM44.44,57.47c-.32,0-.56.27-.55.64-.01.36.22.63.54.63.35,0,.57-.27.57-.63s-.22-.64-.56-.64ZM44.44,57.47c-.32,0-.56.27-.55.64-.01.36.22.63.54.63.35,0,.57-.27.57-.63s-.22-.64-.56-.64ZM44.44,57.47c-.32,0-.56.27-.55.64-.01.36.22.63.54.63.35,0,.57-.27.57-.63s-.22-.64-.56-.64ZM44.44,57.47c-.32,0-.56.27-.55.64-.01.36.22.63.54.63.35,0,.57-.27.57-.63s-.22-.64-.56-.64ZM44.44,57.47c-.32,0-.56.27-.55.64-.01.36.22.63.54.63.35,0,.57-.27.57-.63s-.22-.64-.56-.64ZM44.44,57.47c-.32,0-.56.27-.55.64-.01.36.22.63.54.63.35,0,.57-.27.57-.63s-.22-.64-.56-.64ZM44.44,57.47c-.32,0-.56.27-.55.64-.01.36.22.63.54.63.35,0,.57-.27.57-.63s-.22-.64-.56-.64ZM44.44,57.47c-.32,0-.56.27-.55.64-.01.36.22.63.54.63.35,0,.57-.27.57-.63s-.22-.64-.56-.64ZM44.44,57.47c-.32,0-.56.27-.55.64-.01.36.22.63.54.63.35,0,.57-.27.57-.63s-.22-.64-.56-.64ZM44.44,57.47c-.32,0-.56.27-.55.64-.01.36.22.63.54.63.35,0,.57-.27.57-.63s-.22-.64-.56-.64ZM44.44,57.47c-.32,0-.56.27-.55.64-.01.36.22.63.54.63.35,0,.57-.27.57-.63s-.22-.64-.56-.64ZM44.44,57.47c-.32,0-.56.27-.55.64-.01.36.22.63.54.63.35,0,.57-.27.57-.63s-.22-.64-.56-.64ZM44.44,57.47c-.32,0-.56.27-.55.64-.01.36.22.63.54.63.35,0,.57-.27.57-.63s-.22-.64-.56-.64ZM44.44,57.47c-.32,0-.56.27-.55.64-.01.36.22.63.54.63.35,0,.57-.27.57-.63s-.22-.64-.56-.64ZM44.44,57.47c-.32,0-.56.27-.55.64-.01.36.22.63.54.63.35,0,.57-.27.57-.63s-.22-.64-.56-.64ZM44.44,57.47c-.32,0-.56.27-.55.64-.01.36.22.63.54.63.35,0,.57-.27.57-.63s-.22-.64-.56-.64ZM44.44,57.47c-.32,0-.56.27-.55.64-.01.36.22.63.54.63.35,0,.57-.27.57-.63s-.22-.64-.56-.64ZM44.44,57.47c-.32,0-.56.27-.55.64-.01.36.22.63.54.63.35,0,.57-.27.57-.63s-.22-.64-.56-.64ZM44.44,57.47c-.32,0-.56.27-.55.64-.01.36.22.63.54.63.35,0,.57-.27.57-.63s-.22-.64-.56-.64ZM76.77,59.58c-.64,0-1.23.27-1.65.8l2.34-.68c-.21-.08-.44-.12-.69-.12ZM44.44,57.47c-.32,0-.56.27-.55.64-.01.36.22.63.54.63.35,0,.57-.27.57-.63s-.22-.64-.56-.64ZM44.44,57.47c-.32,0-.56.27-.55.64-.01.36.22.63.54.63.35,0,.57-.27.57-.63s-.22-.64-.56-.64ZM73.81,59.58c-.58,0-1.12.48-1.34,1.19h-.03l-.04-1.06h-.8c.03.49.05,1.05.05,1.67l1.28-.37c.21-.28.5-.45.84-.45.11,0,.19,0,.28.03v-.98c-.08-.02-.15-.03-.24-.03ZM44.44,57.47c-.32,0-.56.27-.55.64-.01.36.22.63.54.63.35,0,.57-.27.57-.63s-.22-.64-.56-.64ZM44.44,57.47c-.32,0-.56.27-.55.64-.01.36.22.63.54.63.35,0,.57-.27.57-.63s-.22-.64-.56-.64ZM44.44,57.47c-.32,0-.56.27-.55.64-.01.36.22.63.54.63.35,0,.57-.27.57-.63s-.22-.64-.56-.64ZM44.44,57.47c-.32,0-.56.27-.55.64-.01.36.22.63.54.63.35,0,.57-.27.57-.63s-.22-.64-.56-.64ZM70.07,58.01c-.09-.09-.2-.18-.31-.25l-1.44.42c.92.04,1.45.62,1.45,1.58,0,1.11-.64,1.73-1.68,1.73-.25,0-.46-.02-.64-.07v-2.99l-.9.26v4.17l.9-.26v-.36c.19.05.4.06.64.06.2,0,.4-.02.6-.06h.01l.56-.16s.01-.01.02-.01c.34-.15.64-.37.87-.66.34-.42.52-.97.52-1.71s-.22-1.3-.6-1.69ZM44.44,57.47c-.32,0-.56.27-.55.64-.01.36.22.63.54.63.35,0,.57-.27.57-.63s-.22-.64-.56-.64ZM44.44,57.47c-.32,0-.56.27-.55.64-.01.36.22.63.54.63.35,0,.57-.27.57-.63s-.22-.64-.56-.64ZM44.44,57.47c-.32,0-.56.27-.55.64-.01.36.22.63.54.63.35,0,.57-.27.57-.63s-.22-.64-.56-.64ZM44.44,57.47c-.32,0-.56.27-.55.64-.01.36.22.63.54.63.35,0,.57-.27.57-.63s-.22-.64-.56-.64ZM63.5,59.58v4.17l2.48-.73v-4.16l-2.48.72ZM44.44,57.47c-.32,0-.56.27-.55.64-.01.36.22.63.54.63.35,0,.57-.27.57-.63s-.22-.64-.56-.64ZM44.44,57.47c-.32,0-.56.27-.55.64-.01.36.22.63.54.63.35,0,.57-.27.57-.63s-.22-.64-.56-.64ZM62.03,60v4.17l.9-.26v-4.17l-.9.26ZM44.44,57.47c-.32,0-.56.27-.55.64-.01.36.22.63.54.63.35,0,.57-.27.57-.63s-.22-.64-.56-.64ZM44.44,57.47c-.32,0-.56.27-.55.64-.01.36.22.63.54.63.35,0,.57-.27.57-.63s-.22-.64-.56-.64ZM44.44,57.47c-.32,0-.56.27-.55.64-.01.36.22.63.54.63.35,0,.57-.27.57-.63s-.22-.64-.56-.64ZM44.44,57.47c-.32,0-.56.27-.55.64-.01.36.22.63.54.63.35,0,.57-.27.57-.63s-.22-.64-.56-.64ZM58.34,63.85c0,.29.08.44.23.44.39,0,.53-.36.57-.52.02-.05.02-.11.02-.18v-.47c-.82.11-.82.53-.82.73ZM58.34,63.85c0,.29.08.44.23.44.39,0,.53-.36.57-.52.02-.05.02-.11.02-.18v-.47c-.82.11-.82.53-.82.73ZM58.34,63.85c0,.29.08.44.23.44.39,0,.53-.36.57-.52.02-.05.02-.11.02-.18v-.47c-.82.11-.82.53-.82.73ZM58.34,63.85c0,.29.08.44.23.44.39,0,.53-.36.57-.52.02-.05.02-.11.02-.18v-.47c-.82.11-.82.53-.82.73ZM58.34,63.85c0,.29.08.44.23.44.39,0,.53-.36.57-.52.02-.05.02-.11.02-.18v-.47c-.82.11-.82.53-.82.73ZM58.34,63.85c0,.29.08.44.23.44.39,0,.53-.36.57-.52.02-.05.02-.11.02-.18v-.47c-.82.11-.82.53-.82.73ZM58.34,63.85c0,.29.08.44.23.44.39,0,.53-.36.57-.52.02-.05.02-.11.02-.18v-.47c-.82.11-.82.53-.82.73ZM58.34,63.85c0,.29.08.44.23.44.39,0,.53-.36.57-.52.02-.05.02-.11.02-.18v-.47c-.82.11-.82.53-.82.73ZM58.34,63.85c0,.29.08.44.23.44.39,0,.53-.36.57-.52.02-.05.02-.11.02-.18v-.47c-.82.11-.82.53-.82.73ZM58.34,63.85c0,.29.08.44.23.44.39,0,.53-.36.57-.52.02-.05.02-.11.02-.18v-.47c-.82.11-.82.53-.82.73ZM58.34,63.85c0,.29.08.44.23.44.39,0,.53-.36.57-.52.02-.05.02-.11.02-.18v-.47c-.82.11-.82.53-.82.73ZM58.34,63.85c0,.29.08.44.23.44.39,0,.53-.36.57-.52.02-.05.02-.11.02-.18v-.47c-.82.11-.82.53-.82.73ZM58.34,63.85c0,.29.08.44.23.44.39,0,.53-.36.57-.52.02-.05.02-.11.02-.18v-.47c-.82.11-.82.53-.82.73ZM58.34,63.85c0,.29.08.44.23.44.39,0,.53-.36.57-.52.02-.05.02-.11.02-.18v-.47c-.82.11-.82.53-.82.73ZM58.34,63.85c0,.29.08.44.23.44.39,0,.53-.36.57-.52.02-.05.02-.11.02-.18v-.47c-.82.11-.82.53-.82.73ZM58.34,63.85c0,.29.08.44.23.44.39,0,.53-.36.57-.52.02-.05.02-.11.02-.18v-.47c-.82.11-.82.53-.82.73ZM58.34,63.85c0,.29.08.44.23.44.39,0,.53-.36.57-.52.02-.05.02-.11.02-.18v-.47c-.82.11-.82.53-.82.73ZM58.34,63.85c0,.29.08.44.23.44.39,0,.53-.36.57-.52.02-.05.02-.11.02-.18v-.47c-.82.11-.82.53-.82.73ZM58.34,63.85c0,.29.08.44.23.44.39,0,.53-.36.57-.52.02-.05.02-.11.02-.18v-.47c-.82.11-.82.53-.82.73ZM58.34,63.85c0,.29.08.44.23.44.39,0,.53-.36.57-.52.02-.05.02-.11.02-.18v-.47c-.82.11-.82.53-.82.73ZM58.34,63.85c0,.29.08.44.23.44.39,0,.53-.36.57-.52.02-.05.02-.11.02-.18v-.47c-.82.11-.82.53-.82.73ZM58.34,63.85c0,.29.08.44.23.44.39,0,.53-.36.57-.52.02-.05.02-.11.02-.18v-.47c-.82.11-.82.53-.82.73ZM58.34,63.85c0,.29.08.44.23.44.39,0,.53-.36.57-.52.02-.05.02-.11.02-.18v-.47c-.82.11-.82.53-.82.73ZM58.34,63.85c0,.29.08.44.23.44.39,0,.53-.36.57-.52.02-.05.02-.11.02-.18v-.47c-.82.11-.82.53-.82.73ZM58.34,63.85c0,.29.08.44.23.44.39,0,.53-.36.57-.52.02-.05.02-.11.02-.18v-.47c-.82.11-.82.53-.82.73ZM58.34,63.85c0,.29.08.44.23.44.39,0,.53-.36.57-.52.02-.05.02-.11.02-.18v-.47c-.82.11-.82.53-.82.73ZM58.34,63.85c0,.29.08.44.23.44.39,0,.53-.36.57-.52.02-.05.02-.11.02-.18v-.47c-.82.11-.82.53-.82.73ZM58.34,63.85c0,.29.08.44.23.44.39,0,.53-.36.57-.52.02-.05.02-.11.02-.18v-.47c-.82.11-.82.53-.82.73ZM58.34,63.85c0,.29.08.44.23.44.39,0,.53-.36.57-.52.02-.05.02-.11.02-.18v-.47c-.82.11-.82.53-.82.73ZM58.34,63.85c0,.29.08.44.23.44.39,0,.53-.36.57-.52.02-.05.02-.11.02-.18v-.47c-.82.11-.82.53-.82.73ZM58.34,63.85c0,.29.08.44.23.44.39,0,.53-.36.57-.52.02-.05.02-.11.02-.18v-.47c-.82.11-.82.53-.82.73ZM58.34,63.85c0,.29.08.44.23.44.39,0,.53-.36.57-.52.02-.05.02-.11.02-.18v-.47c-.82.11-.82.53-.82.73ZM58.34,63.85c0,.29.08.44.23.44.39,0,.53-.36.57-.52.02-.05.02-.11.02-.18v-.47c-.82.11-.82.53-.82.73ZM58.34,63.85c0,.29.08.44.23.44.39,0,.53-.36.57-.52.02-.05.02-.11.02-.18v-.47c-.82.11-.82.53-.82.73ZM58.34,63.85c0,.29.08.44.23.44.39,0,.53-.36.57-.52.02-.05.02-.11.02-.18v-.47c-.82.11-.82.53-.82.73ZM58.34,63.85c0,.29.08.44.23.44.39,0,.53-.36.57-.52.02-.05.02-.11.02-.18v-.47c-.82.11-.82.53-.82.73ZM58.34,63.85c0,.29.08.44.23.44.39,0,.53-.36.57-.52.02-.05.02-.11.02-.18v-.47c-.82.11-.82.53-.82.73ZM58.34,63.85c0,.29.08.44.23.44.39,0,.53-.36.57-.52.02-.05.02-.11.02-.18v-.47c-.82.11-.82.53-.82.73ZM58.34,63.85c0,.29.08.44.23.44.39,0,.53-.36.57-.52.02-.05.02-.11.02-.18v-.47c-.82.11-.82.53-.82.73ZM58.34,63.85c0,.29.08.44.23.44.39,0,.53-.36.57-.52.02-.05.02-.11.02-.18v-.47c-.82.11-.82.53-.82.73ZM58.34,63.85c0,.29.08.44.23.44.39,0,.53-.36.57-.52.02-.05.02-.11.02-.18v-.47c-.82.11-.82.53-.82.73ZM58.34,63.85c0,.29.08.44.23.44.39,0,.53-.36.57-.52.02-.05.02-.11.02-.18v-.47c-.82.11-.82.53-.82.73ZM58.34,63.85c0,.29.08.44.23.44.39,0,.53-.36.57-.52.02-.05.02-.11.02-.18v-.47c-.82.11-.82.53-.82.73ZM58.34,63.85c0,.29.08.44.23.44.39,0,.53-.36.57-.52.02-.05.02-.11.02-.18v-.47c-.82.11-.82.53-.82.73ZM58.34,63.85c0,.29.08.44.23.44.39,0,.53-.36.57-.52.02-.05.02-.11.02-.18v-.47c-.82.11-.82.53-.82.73ZM58.34,63.85c0,.29.08.44.23.44.39,0,.53-.36.57-.52.02-.05.02-.11.02-.18v-.47c-.82.11-.82.53-.82.73ZM58.34,63.85c0,.29.08.44.23.44.39,0,.53-.36.57-.52.02-.05.02-.11.02-.18v-.47c-.82.11-.82.53-.82.73ZM58.34,63.85c0,.29.08.44.23.44.39,0,.53-.36.57-.52.02-.05.02-.11.02-.18v-.47c-.82.11-.82.53-.82.73ZM58.34,63.85c0,.29.08.44.23.44.39,0,.53-.36.57-.52.02-.05.02-.11.02-.18v-.47c-.82.11-.82.53-.82.73ZM58.34,63.85c0,.29.08.44.23.44.39,0,.53-.36.57-.52.02-.05.02-.11.02-.18v-.47c-.82.11-.82.53-.82.73ZM58.34,63.85c0,.29.08.44.23.44.39,0,.53-.36.57-.52.02-.05.02-.11.02-.18v-.47c-.82.11-.82.53-.82.73ZM58.34,63.85c0,.29.08.44.23.44.39,0,.53-.36.57-.52.02-.05.02-.11.02-.18v-.47c-.82.11-.82.53-.82.73ZM58.34,63.85c0,.29.08.44.23.44.39,0,.53-.36.57-.52.02-.05.02-.11.02-.18v-.47c-.82.11-.82.53-.82.73ZM58.34,63.85c0,.29.08.44.23.44.39,0,.53-.36.57-.52.02-.05.02-.11.02-.18v-.47c-.82.11-.82.53-.82.73ZM58.34,63.85c0,.29.08.44.23.44.39,0,.53-.36.57-.52.02-.05.02-.11.02-.18v-.47c-.82.11-.82.53-.82.73ZM58.34,63.85c0,.29.08.44.23.44.39,0,.53-.36.57-.52.02-.05.02-.11.02-.18v-.47c-.82.11-.82.53-.82.73ZM58.34,63.85c0,.29.08.44.23.44.39,0,.53-.36.57-.52.02-.05.02-.11.02-.18v-.47c-.82.11-.82.53-.82.73ZM58.34,63.85c0,.29.08.44.23.44.39,0,.53-.36.57-.52.02-.05.02-.11.02-.18v-.47c-.82.11-.82.53-.82.73ZM58.34,63.85c0,.29.08.44.23.44.39,0,.53-.36.57-.52.02-.05.02-.11.02-.18v-.47c-.82.11-.82.53-.82.73ZM58.34,63.85c0,.29.08.44.23.44.39,0,.53-.36.57-.52.02-.05.02-.11.02-.18v-.47c-.82.11-.82.53-.82.73ZM58.34,63.85c0,.29.08.44.23.44.39,0,.53-.36.57-.52.02-.05.02-.11.02-.18v-.47c-.82.11-.82.53-.82.73ZM58.34,63.85c0,.29.08.44.23.44.39,0,.53-.36.57-.52.02-.05.02-.11.02-.18v-.47c-.82.11-.82.53-.82.73ZM58.34,63.85c0,.29.08.44.23.44.39,0,.53-.36.57-.52.02-.05.02-.11.02-.18v-.47c-.82.11-.82.53-.82.73ZM58.34,63.85c0,.29.08.44.23.44.39,0,.53-.36.57-.52.02-.05.02-.11.02-.18v-.47c-.82.11-.82.53-.82.73ZM58.34,63.85c0,.29.08.44.23.44.39,0,.53-.36.57-.52.02-.05.02-.11.02-.18v-.47c-.82.11-.82.53-.82.73ZM58.34,63.85c0,.29.08.44.23.44.39,0,.53-.36.57-.52.02-.05.02-.11.02-.18v-.47c-.82.11-.82.53-.82.73ZM58.34,63.85c0,.29.08.44.23.44.39,0,.53-.36.57-.52.02-.05.02-.11.02-.18v-.47c-.82.11-.82.53-.82.73ZM58.34,63.85c0,.29.08.44.23.44.39,0,.53-.36.57-.52.02-.05.02-.11.02-.18v-.47c-.82.11-.82.53-.82.73ZM58.34,63.85c0,.29.08.44.23.44.39,0,.53-.36.57-.52.02-.05.02-.11.02-.18v-.47c-.82.11-.82.53-.82.73ZM58.34,63.85c0,.29.08.44.23.44.39,0,.53-.36.57-.52.02-.05.02-.11.02-.18v-.47c-.82.11-.82.53-.82.73ZM58.34,63.85c0,.29.08.44.23.44.39,0,.53-.36.57-.52.02-.05.02-.11.02-.18v-.47c-.82.11-.82.53-.82.73ZM58.34,63.85c0,.29.08.44.23.44.39,0,.53-.36.57-.52.02-.05.02-.11.02-.18v-.47c-.82.11-.82.53-.82.73ZM58.34,63.85c0,.29.08.44.23.44.39,0,.53-.36.57-.52.02-.05.02-.11.02-.18v-.47c-.82.11-.82.53-.82.73ZM58.34,63.85c0,.29.08.44.23.44.39,0,.53-.36.57-.52.02-.05.02-.11.02-.18v-.47c-.82.11-.82.53-.82.73ZM58.34,63.85c0,.29.08.44.23.44.39,0,.53-.36.57-.52.02-.05.02-.11.02-.18v-.47c-.82.11-.82.53-.82.73ZM58.34,63.85c0,.29.08.44.23.44.39,0,.53-.36.57-.52.02-.05.02-.11.02-.18v-.47c-.82.11-.82.53-.82.73ZM58.34,63.85c0,.29.08.44.23.44.39,0,.53-.36.57-.52.02-.05.02-.11.02-.18v-.47c-.82.11-.82.53-.82.73ZM58.34,63.85c0,.29.08.44.23.44.39,0,.53-.36.57-.52.02-.05.02-.11.02-.18v-.47c-.82.11-.82.53-.82.73ZM58.34,63.85c0,.29.08.44.23.44.39,0,.53-.36.57-.52.02-.05.02-.11.02-.18v-.47c-.82.11-.82.53-.82.73ZM58.34,63.85c0,.29.08.44.23.44.39,0,.53-.36.57-.52.02-.05.02-.11.02-.18v-.47c-.82.11-.82.53-.82.73ZM58.34,63.85c0,.29.08.44.23.44.39,0,.53-.36.57-.52.02-.05.02-.11.02-.18v-.47c-.82.11-.82.53-.82.73ZM58.34,63.85c0,.29.08.44.23.44.39,0,.53-.36.57-.52.02-.05.02-.11.02-.18v-.47c-.82.11-.82.53-.82.73ZM58.34,63.85c0,.29.08.44.23.44.39,0,.53-.36.57-.52.02-.05.02-.11.02-.18v-.47c-.82.11-.82.53-.82.73ZM58.34,63.85c0,.29.08.44.23.44.39,0,.53-.36.57-.52.02-.05.02-.11.02-.18v-.47c-.82.11-.82.53-.82.73ZM58.34,63.85c0,.29.08.44.23.44.39,0,.53-.36.57-.52.02-.05.02-.11.02-.18v-.47c-.82.11-.82.53-.82.73ZM58.34,63.85c0,.29.08.44.23.44.39,0,.53-.36.57-.52.02-.05.02-.11.02-.18v-.47c-.82.11-.82.53-.82.73ZM58.34,63.85c0,.29.08.44.23.44.39,0,.53-.36.57-.52.02-.05.02-.11.02-.18v-.47c-.82.11-.82.53-.82.73ZM58.34,63.85c0,.29.08.44.23.44.39,0,.53-.36.57-.52.02-.05.02-.11.02-.18v-.47c-.82.11-.82.53-.82.73ZM58.34,63.85c0,.29.08.44.23.44.39,0,.53-.36.57-.52.02-.05.02-.11.02-.18v-.47c-.82.11-.82.53-.82.73ZM58.34,63.85c0,.29.08.44.23.44.39,0,.53-.36.57-.52.02-.05.02-.11.02-.18v-.47c-.82.11-.82.53-.82.73ZM58.34,63.85c0,.29.08.44.23.44.39,0,.53-.36.57-.52.02-.05.02-.11.02-.18v-.47c-.82.11-.82.53-.82.73ZM58.34,63.85c0,.29.08.44.23.44.39,0,.53-.36.57-.52.02-.05.02-.11.02-.18v-.47c-.82.11-.82.53-.82.73ZM58.34,63.85c0,.29.08.44.23.44.39,0,.53-.36.57-.52.02-.05.02-.11.02-.18v-.47c-.82.11-.82.53-.82.73ZM58.34,63.85c0,.29.08.44.23.44.39,0,.53-.36.57-.52.02-.05.02-.11.02-.18v-.47c-.82.11-.82.53-.82.73ZM58.34,63.85c0,.29.08.44.23.44.39,0,.53-.36.57-.52.02-.05.02-.11.02-.18v-.47c-.82.11-.82.53-.82.73ZM58.34,63.85c0,.29.08.44.23.44.39,0,.53-.36.57-.52.02-.05.02-.11.02-.18v-.47c-.82.11-.82.53-.82.73ZM58.34,63.85c0,.29.08.44.23.44.39,0,.53-.36.57-.52.02-.05.02-.11.02-.18v-.47c-.82.11-.82.53-.82.73ZM58.34,63.85c0,.29.08.44.23.44.39,0,.53-.36.57-.52.02-.05.02-.11.02-.18v-.47c-.82.11-.82.53-.82.73ZM58.34,63.85c0,.29.08.44.23.44.39,0,.53-.36.57-.52.02-.05.02-.11.02-.18v-.47c-.82.11-.82.53-.82.73ZM58.34,63.85c0,.29.08.44.23.44.39,0,.53-.36.57-.52.02-.05.02-.11.02-.18v-.47c-.82.11-.82.53-.82.73ZM58.34,63.85c0,.29.08.44.23.44.39,0,.53-.36.57-.52.02-.05.02-.11.02-.18v-.47c-.82.11-.82.53-.82.73ZM58.34,63.85c0,.29.08.44.23.44.39,0,.53-.36.57-.52.02-.05.02-.11.02-.18v-.47c-.82.11-.82.53-.82.73ZM58.34,63.85c0,.29.08.44.23.44.39,0,.53-.36.57-.52.02-.05.02-.11.02-.18v-.47c-.82.11-.82.53-.82.73ZM58.34,63.85c0,.29.08.44.23.44.39,0,.53-.36.57-.52.02-.05.02-.11.02-.18v-.47c-.82.11-.82.53-.82.73ZM58.34,63.85c0,.29.08.44.23.44.39,0,.53-.36.57-.52.02-.05.02-.11.02-.18v-.47c-.82.11-.82.53-.82.73ZM58.34,63.85c0,.29.08.44.23.44.39,0,.53-.36.57-.52.02-.05.02-.11.02-.18v-.47c-.82.11-.82.53-.82.73ZM58.34,63.85c0,.29.08.44.23.44.39,0,.53-.36.57-.52.02-.05.02-.11.02-.18v-.47c-.82.11-.82.53-.82.73ZM58.34,63.85c0,.29.08.44.23.44.39,0,.53-.36.57-.52.02-.05.02-.11.02-.18v-.47c-.82.11-.82.53-.82.73ZM58.34,63.85c0,.29.08.44.23.44.39,0,.53-.36.57-.52.02-.05.02-.11.02-.18v-.47c-.82.11-.82.53-.82.73ZM58.34,63.85c0,.29.08.44.23.44.39,0,.53-.36.57-.52.02-.05.02-.11.02-.18v-.47c-.82.11-.82.53-.82.73ZM58.34,63.85c0,.29.08.44.23.44.39,0,.53-.36.57-.52.02-.05.02-.11.02-.18v-.47c-.82.11-.82.53-.82.73ZM58.34,63.85c0,.29.08.44.23.44.39,0,.53-.36.57-.52.02-.05.02-.11.02-.18v-.47c-.82.11-.82.53-.82.73ZM58.34,63.85c0,.29.08.44.23.44.39,0,.53-.36.57-.52.02-.05.02-.11.02-.18v-.47c-.82.11-.82.53-.82.73ZM58.34,63.85c0,.29.08.44.23.44.39,0,.53-.36.57-.52.02-.05.02-.11.02-.18v-.47c-.82.11-.82.53-.82.73ZM60.61,64.14v-2.27c0-.5-.07-.99-.26-1.38l-.87.25c.19.27.23.63.23.94v.14c-1.76,0-2.85.73-2.85,2.14,0,.64.28,1.22.78,1.49l2.1-.62h.05s.83-.25.83-.25c0-.14,0-.29,0-.44ZM59.73,63.59c0,.1-.01.22-.04.33-.14.51-.53.94-1.12.94-.42,0-.8-.3-.8-1.01,0-1.16,1.11-1.34,1.96-1.32v1.06ZM58.57,64.29c.39,0,.53-.36.57-.52.02-.05.02-.11.02-.18v-.47c-.82.11-.82.53-.82.73,0,.29.08.44.23.44ZM58.34,63.85c0,.29.08.44.23.44.39,0,.53-.36.57-.52.02-.05.02-.11.02-.18v-.47c-.82.11-.82.53-.82.73ZM58.34,63.85c0,.29.08.44.23.44.39,0,.53-.36.57-.52.02-.05.02-.11.02-.18v-.47c-.82.11-.82.53-.82.73ZM58.34,63.85c0,.29.08.44.23.44.39,0,.53-.36.57-.52.02-.05.02-.11.02-.18v-.47c-.82.11-.82.53-.82.73ZM58.34,63.85c0,.29.08.44.23.44.39,0,.53-.36.57-.52.02-.05.02-.11.02-.18v-.47c-.82.11-.82.53-.82.73ZM58.34,63.85c0,.29.08.44.23.44.39,0,.53-.36.57-.52.02-.05.02-.11.02-.18v-.47c-.82.11-.82.53-.82.73ZM58.34,63.85c0,.29.08.44.23.44.39,0,.53-.36.57-.52.02-.05.02-.11.02-.18v-.47c-.82.11-.82.53-.82.73ZM58.34,63.85c0,.29.08.44.23.44.39,0,.53-.36.57-.52.02-.05.02-.11.02-.18v-.47c-.82.11-.82.53-.82.73ZM58.34,63.85c0,.29.08.44.23.44.39,0,.53-.36.57-.52.02-.05.02-.11.02-.18v-.47c-.82.11-.82.53-.82.73ZM58.34,63.85c0,.29.08.44.23.44.39,0,.53-.36.57-.52.02-.05.02-.11.02-.18v-.47c-.82.11-.82.53-.82.73ZM58.34,63.85c0,.29.08.44.23.44.39,0,.53-.36.57-.52.02-.05.02-.11.02-.18v-.47c-.82.11-.82.53-.82.73ZM58.34,63.85c0,.29.08.44.23.44.39,0,.53-.36.57-.52.02-.05.02-.11.02-.18v-.47c-.82.11-.82.53-.82.73ZM58.34,63.85c0,.29.08.44.23.44.39,0,.53-.36.57-.52.02-.05.02-.11.02-.18v-.47c-.82.11-.82.53-.82.73ZM58.34,63.85c0,.29.08.44.23.44.39,0,.53-.36.57-.52.02-.05.02-.11.02-.18v-.47c-.82.11-.82.53-.82.73ZM58.34,63.85c0,.29.08.44.23.44.39,0,.53-.36.57-.52.02-.05.02-.11.02-.18v-.47c-.82.11-.82.53-.82.73ZM58.34,63.85c0,.29.08.44.23.44.39,0,.53-.36.57-.52.02-.05.02-.11.02-.18v-.47c-.82.11-.82.53-.82.73ZM58.34,63.85c0,.29.08.44.23.44.39,0,.53-.36.57-.52.02-.05.02-.11.02-.18v-.47c-.82.11-.82.53-.82.73ZM58.34,63.85c0,.29.08.44.23.44.39,0,.53-.36.57-.52.02-.05.02-.11.02-.18v-.47c-.82.11-.82.53-.82.73ZM58.34,63.85c0,.29.08.44.23.44.39,0,.53-.36.57-.52.02-.05.02-.11.02-.18v-.47c-.82.11-.82.53-.82.73ZM58.34,63.85c0,.29.08.44.23.44.39,0,.53-.36.57-.52.02-.05.02-.11.02-.18v-.47c-.82.11-.82.53-.82.73ZM58.34,63.85c0,.29.08.44.23.44.39,0,.53-.36.57-.52.02-.05.02-.11.02-.18v-.47c-.82.11-.82.53-.82.73ZM58.34,63.85c0,.29.08.44.23.44.39,0,.53-.36.57-.52.02-.05.02-.11.02-.18v-.47c-.82.11-.82.53-.82.73ZM58.34,63.85c0,.29.08.44.23.44.39,0,.53-.36.57-.52.02-.05.02-.11.02-.18v-.47c-.82.11-.82.53-.82.73ZM58.34,63.85c0,.29.08.44.23.44.39,0,.53-.36.57-.52.02-.05.02-.11.02-.18v-.47c-.82.11-.82.53-.82.73ZM58.34,63.85c0,.29.08.44.23.44.39,0,.53-.36.57-.52.02-.05.02-.11.02-.18v-.47c-.82.11-.82.53-.82.73ZM58.34,63.85c0,.29.08.44.23.44.39,0,.53-.36.57-.52.02-.05.02-.11.02-.18v-.47c-.82.11-.82.53-.82.73ZM58.34,63.85c0,.29.08.44.23.44.39,0,.53-.36.57-.52.02-.05.02-.11.02-.18v-.47c-.82.11-.82.53-.82.73ZM58.34,63.85c0,.29.08.44.23.44.39,0,.53-.36.57-.52.02-.05.02-.11.02-.18v-.47c-.82.11-.82.53-.82.73ZM58.34,63.85c0,.29.08.44.23.44.39,0,.53-.36.57-.52.02-.05.02-.11.02-.18v-.47c-.82.11-.82.53-.82.73ZM58.34,63.85c0,.29.08.44.23.44.39,0,.53-.36.57-.52.02-.05.02-.11.02-.18v-.47c-.82.11-.82.53-.82.73ZM58.34,63.85c0,.29.08.44.23.44.39,0,.53-.36.57-.52.02-.05.02-.11.02-.18v-.47c-.82.11-.82.53-.82.73ZM58.34,63.85c0,.29.08.44.23.44.39,0,.53-.36.57-.52.02-.05.02-.11.02-.18v-.47c-.82.11-.82.53-.82.73ZM58.34,63.85c0,.29.08.44.23.44.39,0,.53-.36.57-.52.02-.05.02-.11.02-.18v-.47c-.82.11-.82.53-.82.73ZM58.34,63.85c0,.29.08.44.23.44.39,0,.53-.36.57-.52.02-.05.02-.11.02-.18v-.47c-.82.11-.82.53-.82.73ZM58.34,63.85c0,.29.08.44.23.44.39,0,.53-.36.57-.52.02-.05.02-.11.02-.18v-.47c-.82.11-.82.53-.82.73ZM58.34,63.85c0,.29.08.44.23.44.39,0,.53-.36.57-.52.02-.05.02-.11.02-.18v-.47c-.82.11-.82.53-.82.73ZM58.34,63.85c0,.29.08.44.23.44.39,0,.53-.36.57-.52.02-.05.02-.11.02-.18v-.47c-.82.11-.82.53-.82.73ZM58.34,63.85c0,.29.08.44.23.44.39,0,.53-.36.57-.52.02-.05.02-.11.02-.18v-.47c-.82.11-.82.53-.82.73ZM58.34,63.85c0,.29.08.44.23.44.39,0,.53-.36.57-.52.02-.05.02-.11.02-.18v-.47c-.82.11-.82.53-.82.73ZM58.34,63.85c0,.29.08.44.23.44.39,0,.53-.36.57-.52.02-.05.02-.11.02-.18v-.47c-.82.11-.82.53-.82.73ZM58.34,63.85c0,.29.08.44.23.44.39,0,.53-.36.57-.52.02-.05.02-.11.02-.18v-.47c-.82.11-.82.53-.82.73ZM58.34,63.85c0,.29.08.44.23.44.39,0,.53-.36.57-.52.02-.05.02-.11.02-.18v-.47c-.82.11-.82.53-.82.73ZM58.34,63.85c0,.29.08.44.23.44.39,0,.53-.36.57-.52.02-.05.02-.11.02-.18v-.47c-.82.11-.82.53-.82.73ZM58.34,63.85c0,.29.08.44.23.44.39,0,.53-.36.57-.52.02-.05.02-.11.02-.18v-.47c-.82.11-.82.53-.82.73ZM58.34,63.85c0,.29.08.44.23.44.39,0,.53-.36.57-.52.02-.05.02-.11.02-.18v-.47c-.82.11-.82.53-.82.73ZM58.34,63.85c0,.29.08.44.23.44.39,0,.53-.36.57-.52.02-.05.02-.11.02-.18v-.47c-.82.11-.82.53-.82.73ZM58.34,63.85c0,.29.08.44.23.44.39,0,.53-.36.57-.52.02-.05.02-.11.02-.18v-.47c-.82.11-.82.53-.82.73ZM58.34,63.85c0,.29.08.44.23.44.39,0,.53-.36.57-.52.02-.05.02-.11.02-.18v-.47c-.82.11-.82.53-.82.73ZM58.34,63.85c0,.29.08.44.23.44.39,0,.53-.36.57-.52.02-.05.02-.11.02-.18v-.47c-.82.11-.82.53-.82.73ZM58.34,63.85c0,.29.08.44.23.44.39,0,.53-.36.57-.52.02-.05.02-.11.02-.18v-.47c-.82.11-.82.53-.82.73ZM58.34,63.85c0,.29.08.44.23.44.39,0,.53-.36.57-.52.02-.05.02-.11.02-.18v-.47c-.82.11-.82.53-.82.73ZM58.34,63.85c0,.29.08.44.23.44.39,0,.53-.36.57-.52.02-.05.02-.11.02-.18v-.47c-.82.11-.82.53-.82.73ZM58.34,63.85c0,.29.08.44.23.44.39,0,.53-.36.57-.52.02-.05.02-.11.02-.18v-.47c-.82.11-.82.53-.82.73ZM58.34,63.85c0,.29.08.44.23.44.39,0,.53-.36.57-.52.02-.05.02-.11.02-.18v-.47c-.82.11-.82.53-.82.73ZM58.34,63.85c0,.29.08.44.23.44.39,0,.53-.36.57-.52.02-.05.02-.11.02-.18v-.47c-.82.11-.82.53-.82.73ZM58.34,63.85c0,.29.08.44.23.44.39,0,.53-.36.57-.52.02-.05.02-.11.02-.18v-.47c-.82.11-.82.53-.82.73ZM58.34,63.85c0,.29.08.44.23.44.39,0,.53-.36.57-.52.02-.05.02-.11.02-.18v-.47c-.82.11-.82.53-.82.73ZM58.34,63.85c0,.29.08.44.23.44.39,0,.53-.36.57-.52.02-.05.02-.11.02-.18v-.47c-.82.11-.82.53-.82.73ZM58.34,63.85c0,.29.08.44.23.44.39,0,.53-.36.57-.52.02-.05.02-.11.02-.18v-.47c-.82.11-.82.53-.82.73ZM58.34,63.85c0,.29.08.44.23.44.39,0,.53-.36.57-.52.02-.05.02-.11.02-.18v-.47c-.82.11-.82.53-.82.73ZM58.34,63.85c0,.29.08.44.23.44.39,0,.53-.36.57-.52.02-.05.02-.11.02-.18v-.47c-.82.11-.82.53-.82.73ZM58.34,63.85c0,.29.08.44.23.44.39,0,.53-.36.57-.52.02-.05.02-.11.02-.18v-.47c-.82.11-.82.53-.82.73ZM58.34,63.85c0,.29.08.44.23.44.39,0,.53-.36.57-.52.02-.05.02-.11.02-.18v-.47c-.82.11-.82.53-.82.73ZM58.34,63.85c0,.29.08.44.23.44.39,0,.53-.36.57-.52.02-.05.02-.11.02-.18v-.47c-.82.11-.82.53-.82.73ZM58.34,63.85c0,.29.08.44.23.44.39,0,.53-.36.57-.52.02-.05.02-.11.02-.18v-.47c-.82.11-.82.53-.82.73ZM58.34,63.85c0,.29.08.44.23.44.39,0,.53-.36.57-.52.02-.05.02-.11.02-.18v-.47c-.82.11-.82.53-.82.73ZM58.34,63.85c0,.29.08.44.23.44.39,0,.53-.36.57-.52.02-.05.02-.11.02-.18v-.47c-.82.11-.82.53-.82.73ZM58.34,63.85c0,.29.08.44.23.44.39,0,.53-.36.57-.52.02-.05.02-.11.02-.18v-.47c-.82.11-.82.53-.82.73ZM58.34,63.85c0,.29.08.44.23.44.39,0,.53-.36.57-.52.02-.05.02-.11.02-.18v-.47c-.82.11-.82.53-.82.73ZM58.34,63.85c0,.29.08.44.23.44.39,0,.53-.36.57-.52.02-.05.02-.11.02-.18v-.47c-.82.11-.82.53-.82.73ZM58.34,63.85c0,.29.08.44.23.44.39,0,.53-.36.57-.52.02-.05.02-.11.02-.18v-.47c-.82.11-.82.53-.82.73ZM58.34,63.85c0,.29.08.44.23.44.39,0,.53-.36.57-.52.02-.05.02-.11.02-.18v-.47c-.82.11-.82.53-.82.73ZM58.34,63.85c0,.29.08.44.23.44.39,0,.53-.36.57-.52.02-.05.02-.11.02-.18v-.47c-.82.11-.82.53-.82.73ZM58.34,63.85c0,.29.08.44.23.44.39,0,.53-.36.57-.52.02-.05.02-.11.02-.18v-.47c-.82.11-.82.53-.82.73ZM58.34,63.85c0,.29.08.44.23.44.39,0,.53-.36.57-.52.02-.05.02-.11.02-.18v-.47c-.82.11-.82.53-.82.73ZM58.34,63.85c0,.29.08.44.23.44.39,0,.53-.36.57-.52.02-.05.02-.11.02-.18v-.47c-.82.11-.82.53-.82.73ZM58.34,63.85c0,.29.08.44.23.44.39,0,.53-.36.57-.52.02-.05.02-.11.02-.18v-.47c-.82.11-.82.53-.82.73ZM58.34,63.85c0,.29.08.44.23.44.39,0,.53-.36.57-.52.02-.05.02-.11.02-.18v-.47c-.82.11-.82.53-.82.73ZM58.34,63.85c0,.29.08.44.23.44.39,0,.53-.36.57-.52.02-.05.02-.11.02-.18v-.47c-.82.11-.82.53-.82.73ZM58.34,63.85c0,.29.08.44.23.44.39,0,.53-.36.57-.52.02-.05.02-.11.02-.18v-.47c-.82.11-.82.53-.82.73ZM58.34,63.85c0,.29.08.44.23.44.39,0,.53-.36.57-.52.02-.05.02-.11.02-.18v-.47c-.82.11-.82.53-.82.73ZM58.34,63.85c0,.29.08.44.23.44.39,0,.53-.36.57-.52.02-.05.02-.11.02-.18v-.47c-.82.11-.82.53-.82.73ZM58.34,63.85c0,.29.08.44.23.44.39,0,.53-.36.57-.52.02-.05.02-.11.02-.18v-.47c-.82.11-.82.53-.82.73ZM58.34,63.85c0,.29.08.44.23.44.39,0,.53-.36.57-.52.02-.05.02-.11.02-.18v-.47c-.82.11-.82.53-.82.73ZM58.34,63.85c0,.29.08.44.23.44.39,0,.53-.36.57-.52.02-.05.02-.11.02-.18v-.47c-.82.11-.82.53-.82.73ZM58.34,63.85c0,.29.08.44.23.44.39,0,.53-.36.57-.52.02-.05.02-.11.02-.18v-.47c-.82.11-.82.53-.82.73ZM58.34,63.85c0,.29.08.44.23.44.39,0,.53-.36.57-.52.02-.05.02-.11.02-.18v-.47c-.82.11-.82.53-.82.73ZM58.34,63.85c0,.29.08.44.23.44.39,0,.53-.36.57-.52.02-.05.02-.11.02-.18v-.47c-.82.11-.82.53-.82.73ZM58.34,63.85c0,.29.08.44.23.44.39,0,.53-.36.57-.52.02-.05.02-.11.02-.18v-.47c-.82.11-.82.53-.82.73ZM58.34,63.85c0,.29.08.44.23.44.39,0,.53-.36.57-.52.02-.05.02-.11.02-.18v-.47c-.82.11-.82.53-.82.73ZM58.34,63.85c0,.29.08.44.23.44.39,0,.53-.36.57-.52.02-.05.02-.11.02-.18v-.47c-.82.11-.82.53-.82.73ZM58.34,63.85c0,.29.08.44.23.44.39,0,.53-.36.57-.52.02-.05.02-.11.02-.18v-.47c-.82.11-.82.53-.82.73ZM58.34,63.85c0,.29.08.44.23.44.39,0,.53-.36.57-.52.02-.05.02-.11.02-.18v-.47c-.82.11-.82.53-.82.73ZM58.34,63.85c0,.29.08.44.23.44.39,0,.53-.36.57-.52.02-.05.02-.11.02-.18v-.47c-.82.11-.82.53-.82.73ZM58.34,63.85c0,.29.08.44.23.44.39,0,.53-.36.57-.52.02-.05.02-.11.02-.18v-.47c-.82.11-.82.53-.82.73ZM58.34,63.85c0,.29.08.44.23.44.39,0,.53-.36.57-.52.02-.05.02-.11.02-.18v-.47c-.82.11-.82.53-.82.73ZM58.34,63.85c0,.29.08.44.23.44.39,0,.53-.36.57-.52.02-.05.02-.11.02-.18v-.47c-.82.11-.82.53-.82.73ZM58.34,63.85c0,.29.08.44.23.44.39,0,.53-.36.57-.52.02-.05.02-.11.02-.18v-.47c-.82.11-.82.53-.82.73ZM58.34,63.85c0,.29.08.44.23.44.39,0,.53-.36.57-.52.02-.05.02-.11.02-.18v-.47c-.82.11-.82.53-.82.73ZM58.34,63.85c0,.29.08.44.23.44.39,0,.53-.36.57-.52.02-.05.02-.11.02-.18v-.47c-.82.11-.82.53-.82.73ZM58.34,63.85c0,.29.08.44.23.44.39,0,.53-.36.57-.52.02-.05.02-.11.02-.18v-.47c-.82.11-.82.53-.82.73ZM58.34,63.85c0,.29.08.44.23.44.39,0,.53-.36.57-.52.02-.05.02-.11.02-.18v-.47c-.82.11-.82.53-.82.73ZM58.34,63.85c0,.29.08.44.23.44.39,0,.53-.36.57-.52.02-.05.02-.11.02-.18v-.47c-.82.11-.82.53-.82.73ZM58.34,63.85c0,.29.08.44.23.44.39,0,.53-.36.57-.52.02-.05.02-.11.02-.18v-.47c-.82.11-.82.53-.82.73ZM58.34,63.85c0,.29.08.44.23.44.39,0,.53-.36.57-.52.02-.05.02-.11.02-.18v-.47c-.82.11-.82.53-.82.73ZM58.34,63.85c0,.29.08.44.23.44.39,0,.53-.36.57-.52.02-.05.02-.11.02-.18v-.47c-.82.11-.82.53-.82.73ZM58.34,63.85c0,.29.08.44.23.44.39,0,.53-.36.57-.52.02-.05.02-.11.02-.18v-.47c-.82.11-.82.53-.82.73ZM58.34,63.85c0,.29.08.44.23.44.39,0,.53-.36.57-.52.02-.05.02-.11.02-.18v-.47c-.82.11-.82.53-.82.73ZM58.34,63.85c0,.29.08.44.23.44.39,0,.53-.36.57-.52.02-.05.02-.11.02-.18v-.47c-.82.11-.82.53-.82.73ZM58.34,63.85c0,.29.08.44.23.44.39,0,.53-.36.57-.52.02-.05.02-.11.02-.18v-.47c-.82.11-.82.53-.82.73ZM58.34,63.85c0,.29.08.44.23.44.39,0,.53-.36.57-.52.02-.05.02-.11.02-.18v-.47c-.82.11-.82.53-.82.73ZM58.34,63.85c0,.29.08.44.23.44.39,0,.53-.36.57-.52.02-.05.02-.11.02-.18v-.47c-.82.11-.82.53-.82.73ZM58.34,63.85c0,.29.08.44.23.44.39,0,.53-.36.57-.52.02-.05.02-.11.02-.18v-.47c-.82.11-.82.53-.82.73ZM58.34,63.85c0,.29.08.44.23.44.39,0,.53-.36.57-.52.02-.05.02-.11.02-.18v-.47c-.82.11-.82.53-.82.73ZM58.34,63.85c0,.29.08.44.23.44.39,0,.53-.36.57-.52.02-.05.02-.11.02-.18v-.47c-.82.11-.82.53-.82.73ZM54.91,62.07v3.44h.9v-3.7l-.9.26ZM51.77,62.98v2.53h.9v-2.79l-.9.26ZM49.42,63.66s-.01.02-.01.03c-.19.68-.65,1.01-1.14,1.01-.37,0-.68-.16-.9-.45l-.9.26c.34.61.89.98,1.54.98.7,0,1.2-.38,1.46-.9h.02v.63c0,1.42-.62,1.96-1.49,1.96-.58,0-1.05-.2-1.36-.41l-.22.79c.38.27.98.42,1.55.42.63,0,1.29-.19,1.74-.67.45-.49.67-1.22.67-2.62v-1.31l-.96.28ZM43.99,65.23v.28h.91v-.54l-.91.26ZM43.99,59.71v.25l.86-.25h-.86ZM44.44,57.47c-.32,0-.56.27-.55.64-.01.36.22.63.54.63.35,0,.57-.27.57-.63s-.22-.64-.56-.64ZM41.17,57.31c-1.33,0-2.22.93-2.22,2.17,0,.72.32,1.28.82,1.7l1.21-.35c-.76-.42-1.12-.77-1.12-1.48,0-.55.36-1.19,1.27-1.19.57,0,1,.2,1.21.35l.25-.84c-.28-.18-.78-.36-1.42-.36ZM44.44,57.47c-.32,0-.56.27-.55.64-.01.36.22.63.54.63.35,0,.57-.27.57-.63s-.22-.64-.56-.64ZM58.34,63.85c0,.29.08.44.23.44.39,0,.53-.36.57-.52.02-.05.02-.11.02-.18v-.47c-.82.11-.82.53-.82.73ZM58.34,63.85c0,.29.08.44.23.44.39,0,.53-.36.57-.52.02-.05.02-.11.02-.18v-.47c-.82.11-.82.53-.82.73ZM54.91,62.07v3.44h.9v-3.7l-.9.26ZM51.77,62.98v2.53h.9v-2.79l-.9.26ZM49.42,63.66s-.01.02-.01.03c-.19.68-.65,1.01-1.14,1.01-.37,0-.68-.16-.9-.45l-.9.26c.34.61.89.98,1.54.98.7,0,1.2-.38,1.46-.9h.02v.63c0,1.42-.62,1.96-1.49,1.96-.58,0-1.05-.2-1.36-.41l-.22.79c.38.27.98.42,1.55.42.63,0,1.29-.19,1.74-.67.45-.49.67-1.22.67-2.62v-1.31l-.96.28ZM43.99,65.23v.28h.91v-.54l-.91.26ZM43.99,59.71v.25l.86-.25h-.86ZM44.44,57.47c-.32,0-.56.27-.55.64-.01.36.22.63.54.63.35,0,.57-.27.57-.63s-.22-.64-.56-.64ZM41.17,57.31c-1.33,0-2.22.93-2.22,2.17,0,.72.32,1.28.82,1.7l1.21-.35c-.76-.42-1.12-.77-1.12-1.48,0-.55.36-1.19,1.27-1.19.57,0,1,.2,1.21.35l.25-.84c-.28-.18-.78-.36-1.42-.36ZM44.44,57.47c-.32,0-.56.27-.55.64-.01.36.22.63.54.63.35,0,.57-.27.57-.63s-.22-.64-.56-.64ZM54.91,62.07v3.44h.9v-3.7l-.9.26ZM51.77,62.98v2.53h.9v-2.79l-.9.26ZM49.42,63.66s-.01.02-.01.03c-.19.68-.65,1.01-1.14,1.01-.37,0-.68-.16-.9-.45l-.9.26c.34.61.89.98,1.54.98.7,0,1.2-.38,1.46-.9h.02v.63c0,1.42-.62,1.96-1.49,1.96-.58,0-1.05-.2-1.36-.41l-.22.79c.38.27.98.42,1.55.42.63,0,1.29-.19,1.74-.67.45-.49.67-1.22.67-2.62v-1.31l-.96.28ZM43.99,65.23v.28h.91v-.54l-.91.26ZM43.99,59.71v.25l.86-.25h-.86ZM44.44,57.47c-.32,0-.56.27-.55.64-.01.36.22.63.54.63.35,0,.57-.27.57-.63s-.22-.64-.56-.64ZM41.17,57.31c-1.33,0-2.22.93-2.22,2.17,0,.72.32,1.28.82,1.7l1.21-.35c-.76-.42-1.12-.77-1.12-1.48,0-.55.36-1.19,1.27-1.19.57,0,1,.2,1.21.35l.25-.84c-.28-.18-.78-.36-1.42-.36ZM44.44,57.47c-.32,0-.56.27-.55.64-.01.36.22.63.54.63.35,0,.57-.27.57-.63s-.22-.64-.56-.64ZM51.77,62.98v2.53h.9v-2.79l-.9.26ZM49.42,63.66s-.01.02-.01.03c-.19.68-.65,1.01-1.14,1.01-.37,0-.68-.16-.9-.45l-.9.26c.34.61.89.98,1.54.98.7,0,1.2-.38,1.46-.9h.02v.63c0,1.42-.62,1.96-1.49,1.96-.58,0-1.05-.2-1.36-.41l-.22.79c.38.27.98.42,1.55.42.63,0,1.29-.19,1.74-.67.45-.49.67-1.22.67-2.62v-1.31l-.96.28ZM43.99,65.23v.28h.91v-.54l-.91.26ZM43.99,59.71v.25l.86-.25h-.86ZM44.44,57.47c-.32,0-.56.27-.55.64-.01.36.22.63.54.63.35,0,.57-.27.57-.63s-.22-.64-.56-.64ZM41.17,57.31c-1.33,0-2.22.93-2.22,2.17,0,.72.32,1.28.82,1.7l1.21-.35c-.76-.42-1.12-.77-1.12-1.48,0-.55.36-1.19,1.27-1.19.57,0,1,.2,1.21.35l.25-.84c-.28-.18-.78-.36-1.42-.36ZM44.44,57.47c-.32,0-.56.27-.55.64-.01.36.22.63.54.63.35,0,.57-.27.57-.63s-.22-.64-.56-.64ZM49.42,63.66s-.01.02-.01.03c-.19.68-.65,1.01-1.14,1.01-.37,0-.68-.16-.9-.45l-.9.26c.34.61.89.98,1.54.98.7,0,1.2-.38,1.46-.9h.02v.63c0,1.42-.62,1.96-1.49,1.96-.58,0-1.05-.2-1.36-.41l-.22.79c.38.27.98.42,1.55.42.63,0,1.29-.19,1.74-.67.45-.49.67-1.22.67-2.62v-1.31l-.96.28ZM43.99,65.23v.28h.91v-.54l-.91.26ZM43.99,59.71v.25l.86-.25h-.86ZM44.44,57.47c-.32,0-.56.27-.55.64-.01.36.22.63.54.63.35,0,.57-.27.57-.63s-.22-.64-.56-.64ZM41.17,57.31c-1.33,0-2.22.93-2.22,2.17,0,.72.32,1.28.82,1.7l1.21-.35c-.76-.42-1.12-.77-1.12-1.48,0-.55.36-1.19,1.27-1.19.57,0,1,.2,1.21.35l.25-.84c-.28-.18-.78-.36-1.42-.36ZM44.44,57.47c-.32,0-.56.27-.55.64-.01.36.22.63.54.63.35,0,.57-.27.57-.63s-.22-.64-.56-.64ZM49.42,63.66s-.01.02-.01.03c-.19.68-.65,1.01-1.14,1.01-.37,0-.68-.16-.9-.45l-.9.26c.34.61.89.98,1.54.98.7,0,1.2-.38,1.46-.9h.02v.63c0,1.42-.62,1.96-1.49,1.96-.58,0-1.05-.2-1.36-.41l-.22.79c.38.27.98.42,1.55.42.63,0,1.29-.19,1.74-.67.45-.49.67-1.22.67-2.62v-1.31l-.96.28ZM43.99,65.23v.28h.91v-.54l-.91.26ZM43.99,59.71v.25l.86-.25h-.86ZM44.44,57.47c-.32,0-.56.27-.55.64-.01.36.22.63.54.63.35,0,.57-.27.57-.63s-.22-.64-.56-.64ZM41.17,57.31c-1.33,0-2.22.93-2.22,2.17,0,.72.32,1.28.82,1.7l1.21-.35c-.76-.42-1.12-.77-1.12-1.48,0-.55.36-1.19,1.27-1.19.57,0,1,.2,1.21.35l.25-.84c-.28-.18-.78-.36-1.42-.36ZM44.44,57.47c-.32,0-.56.27-.55.64-.01.36.22.63.54.63.35,0,.57-.27.57-.63s-.22-.64-.56-.64ZM41.17,57.31c-1.33,0-2.22.93-2.22,2.17,0,.72.32,1.28.82,1.7l1.21-.35c-.76-.42-1.12-.77-1.12-1.48,0-.55.36-1.19,1.27-1.19.57,0,1,.2,1.21.35l.25-.84c-.28-.18-.78-.36-1.42-.36ZM43.99,59.71v.25l.86-.25h-.86ZM43.99,65.23v.28h.91v-.54l-.91.26ZM43.99,65.23v.28h.91v-.54l-.91.26ZM43.99,59.71v.25l.86-.25h-.86ZM44.44,57.47c-.32,0-.56.27-.55.64-.01.36.22.63.54.63.35,0,.57-.27.57-.63s-.22-.64-.56-.64ZM41.17,57.31c-1.33,0-2.22.93-2.22,2.17,0,.72.32,1.28.82,1.7l1.21-.35c-.76-.42-1.12-.77-1.12-1.48,0-.55.36-1.19,1.27-1.19.57,0,1,.2,1.21.35l.25-.84c-.28-.18-.78-.36-1.42-.36ZM44.44,57.47c-.32,0-.56.27-.55.64-.01.36.22.63.54.63.35,0,.57-.27.57-.63s-.22-.64-.56-.64ZM41.17,57.31c-1.33,0-2.22.93-2.22,2.17,0,.72.32,1.28.82,1.7l1.21-.35c-.76-.42-1.12-.77-1.12-1.48,0-.55.36-1.19,1.27-1.19.57,0,1,.2,1.21.35l.25-.84c-.28-.18-.78-.36-1.42-.36ZM43.99,59.71v.25l.86-.25h-.86ZM43.99,59.71v.25l.86-.25h-.86ZM44.44,57.47c-.32,0-.56.27-.55.64-.01.36.22.63.54.63.35,0,.57-.27.57-.63s-.22-.64-.56-.64ZM41.17,57.31c-1.33,0-2.22.93-2.22,2.17,0,.72.32,1.28.82,1.7l1.21-.35c-.76-.42-1.12-.77-1.12-1.48,0-.55.36-1.19,1.27-1.19.57,0,1,.2,1.21.35l.25-.84c-.28-.18-.78-.36-1.42-.36ZM41.17,57.31c-1.33,0-2.22.93-2.22,2.17,0,.72.32,1.28.82,1.7l1.21-.35c-.76-.42-1.12-.77-1.12-1.48,0-.55.36-1.19,1.27-1.19.57,0,1,.2,1.21.35l.25-.84c-.28-.18-.78-.36-1.42-.36ZM41.17,57.31c-1.33,0-2.22.93-2.22,2.17,0,.72.32,1.28.82,1.7l1.21-.35c-.76-.42-1.12-.77-1.12-1.48,0-.55.36-1.19,1.27-1.19.57,0,1,.2,1.21.35l.25-.84c-.28-.18-.78-.36-1.42-.36ZM41.17,57.31c-1.33,0-2.22.93-2.22,2.17,0,.72.32,1.28.82,1.7l1.21-.35c-.76-.42-1.12-.77-1.12-1.48,0-.55.36-1.19,1.27-1.19.57,0,1,.2,1.21.35l.25-.84c-.28-.18-.78-.36-1.42-.36ZM41.17,57.31c-1.33,0-2.22.93-2.22,2.17,0,.72.32,1.28.82,1.7l1.21-.35c-.76-.42-1.12-.77-1.12-1.48,0-.55.36-1.19,1.27-1.19.57,0,1,.2,1.21.35l.25-.84c-.28-.18-.78-.36-1.42-.36ZM59.04,51.43c.39-.06.75-.17,1.09-.32l-1.09.32ZM59.04,51.43c.39-.06.75-.17,1.09-.32l-1.09.32Z"/><path class="c" d="M43.76,42.46v4.8l4.05-2.69v-4.8l-4.05,2.69ZM51.09,42.19c-.33-1.05-.5-2.22-.5-3.46,0-.29.01-.57.03-.84l-2.24,1.5v4.8l2.77-1.84s-.04-.11-.06-.16ZM62.19,30.2c.17.13.32.29.48.45l.04-.79-.52.34ZM68.29,30.95L47.8.14.24,31.77l20.49,30.81.11-.08,22.4-14.89c-.03-.07-.05-.14-.05-.22v-4.55l-4.27,2.84c-.75.82-1.73,1.52-3,1.99l-14.07,9.36L5.79,32.88,46.69,5.69l16.03,24.09c.04-.27.28-.48.56-.48h3.54c.16,0,.31.07.41.18.11.12.17.27.16.43-.03.49-.06,1.04-.08,1.69l.98-.65ZM63.28,29.87l-.14,2.33h-.07c-.33-.62-.77-1.21-1.37-1.67l-4.4,2.93c.55-.4,1.2-.61,1.9-.61,1.46,0,2.5.87,3.05,2.12l4.48-2.98c.02-.84.05-1.52.09-2.12h-3.54ZM61.74,35.21c-.3-.68-1.02-1.79-2.54-1.79-.58,0-1.11.17-1.57.5-1.15.81-1.8,2.5-1.8,4.66,0,.21.01.43.02.64l5.92-3.93s-.02-.05-.03-.08ZM57.3,33.46l-6.08,4.04c-.04.4-.06.81-.06,1.23,0,1.19.16,2.3.47,3.3l3.68-2.45c-.03-.32-.05-.66-.05-1,0-2.46.8-4.25,2.04-5.12Z"/><path class="b" d="M40.28,40.48c0,3.9-2.69,7.29-8.42,7.29-2.34,0-4.78-.73-5.99-1.54l.89-3.67c1.31.82,3.3,1.54,5.37,1.54,2.58,0,4.03-1.33,4.03-3.31,0-1.83-1.12-2.91-3.93-4.03-3.67-1.42-6.01-3.57-6.01-7.04,0-3.98,3.04-6.97,7.85-6.97,2.41,0,4.17.56,5.32,1.2l-.97,3.58c-.8-.46-2.35-1.16-4.43-1.16-2.57,0-3.66,1.5-3.66,2.93,0,1.86,1.28,2.73,4.24,3.97,3.85,1.61,5.71,3.72,5.71,7.21Z"/><path class="b" d="M43.76,29.87v17.52h4.05v-17.52h-4.05Z"/><path class="b" d="M63.28,29.87l-.14,2.33h-.07c-.33-.62-.77-1.21-1.37-1.67-.8-.64-1.88-1.06-3.29-1.06-3.55,0-6.75,2.99-7.19,8.03-.04.4-.06.81-.06,1.23,0,1.19.16,2.3.47,3.3.96,3.17,3.32,5.25,6.33,5.25,2.13,0,3.76-1.04,4.67-2.57h.06v1.49c0,2.71-1.01,4.26-2.56,4.91l-1.09.32h-.02c-.3.05-.61.07-.93.07-1.93,0-3.64-.68-4.68-1.35l-.81,3.14-.06.24c1.38.9,3.54,1.38,5.58,1.38,2.2,0,4.52-.5,6.2-2.13.89-.87,1.5-2.01,1.87-3.43.35-1.27.5-2.78.5-4.51v-9.94c0-1.17.01-2.11.04-2.91.02-.84.05-1.52.09-2.12h-3.54ZM62.51,35.7c.09.36.13.77.13,1.2v2.84c0,.49-.05,1.09-.18,1.55-.46,1.61-1.76,2.69-3.28,2.69-2.25,0-3.59-1.9-3.87-4.4-.03-.32-.05-.66-.05-1,0-2.46.8-4.25,2.04-5.12.55-.4,1.2-.61,1.9-.61,1.46,0,2.5.87,3.05,2.12.11.23.19.48.26.73Z"/><path class="b" d="M94.53,37.07v10.32h-3.95v-9.69c0-2.92-.92-4.64-2.86-4.64-1.38,0-2.4,1.07-2.82,2.34-.12.42-.2.98-.2,1.47v10.52h-3.95v-10.13c0-2.47-.91-4.2-2.77-4.2-1.52,0-2.53,1.3-2.91,2.51-.15.44-.2.96-.2,1.46v10.36h-3.96v-12.31c0-2.03-.05-3.7-.13-5.21h3.46l.19,2.57h.09c.78-1.36,2.23-2.97,4.94-2.97,2.12,0,3.75,1.29,4.44,3.23h.07c.56-.96,1.23-1.69,1.96-2.2.91-.67,1.92-1.03,3.25-1.03,2.65,0,5.35,1.98,5.35,7.6Z"/><path class="b" d="M48.05,24.96c0,1.33-.88,2.39-2.31,2.39-1.34,0-2.23-1.06-2.22-2.39-.01-1.35.91-2.39,2.27-2.39s2.24,1.03,2.26,2.39Z"/><path class="b" d="M48.05,24.96c0,1.33-.88,2.39-2.31,2.39-1.34,0-2.23-1.06-2.22-2.39-.01-1.35.91-2.39,2.27-2.39s2.24,1.03,2.26,2.39Z"/><path class="b" d="M31.86,47.77c-2.34,0-4.78-.73-5.99-1.54l.89-3.67c1.31.82,3.3,1.54,5.37,1.54,2.58,0,4.03-1.33,4.03-3.31,0-1.83-1.12-2.91-3.93-4.03-3.67-1.42-6.01-3.57-6.01-7.04,0-3.98,3.04-6.97,7.85-6.97,2.41,0,4.17.56,5.32,1.2l-.97,3.58c-.8-.46-2.35-1.16-4.43-1.16-2.57,0-3.66,1.5-3.66,2.93,0,1.86,1.28,2.73,4.24,3.97,3.85,1.61,5.71,3.72,5.71,7.21,0,3.9-2.69,7.29-8.42,7.29Z"/><path class="b" d="M40.28,40.48c0,3.9-2.69,7.29-8.42,7.29-2.34,0-4.78-.73-5.99-1.54l.89-3.67c1.31.82,3.3,1.54,5.37,1.54,2.58,0,4.03-1.33,4.03-3.31,0-1.83-1.12-2.91-3.93-4.03-3.67-1.42-6.01-3.57-6.01-7.04,0-3.98,3.04-6.97,7.85-6.97,2.41,0,4.17.56,5.32,1.2l-.97,3.58c-.8-.46-2.35-1.16-4.43-1.16-2.57,0-3.66,1.5-3.66,2.93,0,1.86,1.28,2.73,4.24,3.97,3.85,1.61,5.71,3.72,5.71,7.21Z"/><rect class="b" x="43.76" y="29.87" width="4.05" height="17.52"/><rect class="b" x="43.76" y="29.87" width="4.05" height="17.52"/><path class="b" d="M63.28,29.87l-.14,2.33h-.07c-.33-.62-.77-1.21-1.37-1.67-.8-.64-1.88-1.06-3.29-1.06-3.55,0-6.75,2.99-7.19,8.03-.04.4-.06.81-.06,1.23,0,1.19.16,2.3.47,3.3.96,3.17,3.32,5.25,6.33,5.25,2.13,0,3.76-1.04,4.67-2.57h.06v1.49c0,2.71-1.01,4.26-2.56,4.91l-1.09.32h-.02c-.3.05-.61.07-.93.07-1.93,0-3.64-.68-4.68-1.35l-.81,3.14-.06.24c1.38.9,3.54,1.38,5.58,1.38,2.2,0,4.52-.5,6.2-2.13.89-.87,1.5-2.01,1.87-3.43.35-1.27.5-2.78.5-4.51v-9.94c0-1.17.01-2.11.04-2.91.02-.84.05-1.52.09-2.12h-3.54ZM62.51,35.7c.09.36.13.77.13,1.2v2.84c0,.49-.05,1.09-.18,1.55-.46,1.61-1.76,2.69-3.28,2.69-2.25,0-3.59-1.9-3.87-4.4-.03-.32-.05-.66-.05-1,0-2.46.8-4.25,2.04-5.12.55-.4,1.2-.61,1.9-.61,1.46,0,2.5.87,3.05,2.12.11.23.19.48.26.73ZM62.72,29.78s-.01.04-.01.06v.02l.04-.03-.03-.05Z"/><path class="b" d="M63.28,29.87l-.14,2.33h-.07c-.33-.62-.77-1.21-1.37-1.67-.8-.64-1.88-1.06-3.29-1.06-3.55,0-6.75,2.99-7.19,8.03-.04.4-.06.81-.06,1.23,0,1.19.16,2.3.47,3.3.96,3.17,3.32,5.25,6.33,5.25,2.13,0,3.76-1.04,4.67-2.57h.06v1.49c0,2.71-1.01,4.26-2.56,4.91-.34.15-.7.26-1.09.32h-.02c-.3.05-.61.07-.93.07-1.93,0-3.64-.68-4.68-1.35l-.81,3.14-.06.24c1.38.9,3.54,1.38,5.58,1.38,2.2,0,4.52-.5,6.2-2.13.89-.87,1.5-2.01,1.87-3.43.35-1.27.5-2.78.5-4.51v-9.94c0-1.17.01-2.11.04-2.91.02-.84.05-1.52.09-2.12h-3.54ZM62.51,35.7c.09.36.13.77.13,1.2v2.84c0,.49-.05,1.09-.18,1.55-.46,1.61-1.76,2.69-3.28,2.69-2.25,0-3.59-1.9-3.87-4.4-.03-.32-.05-.66-.05-1,0-2.46.8-4.25,2.04-5.12.55-.4,1.2-.61,1.9-.61,1.46,0,2.5.87,3.05,2.12.11.23.19.48.26.73Z"/><path class="b" d="M94.53,37.07v10.32h-3.95v-9.69c0-2.92-.92-4.64-2.86-4.64-1.38,0-2.4,1.07-2.82,2.34-.12.42-.2.98-.2,1.47v10.52h-3.95v-10.13c0-2.47-.91-4.2-2.77-4.2-1.52,0-2.53,1.3-2.91,2.51-.15.44-.2.96-.2,1.46v10.36h-3.96v-12.31c0-2.03-.05-3.7-.13-5.21h3.46l.19,2.57h.09c.78-1.36,2.23-2.97,4.94-2.97,2.12,0,3.75,1.29,4.44,3.23h.07c.56-.96,1.23-1.69,1.96-2.2.91-.67,1.92-1.03,3.25-1.03,2.65,0,5.35,1.98,5.35,7.6Z"/><path class="b" d="M94.53,37.07v10.32h-3.95v-9.69c0-2.92-.92-4.64-2.86-4.64-1.38,0-2.4,1.07-2.82,2.34-.12.42-.2.98-.2,1.47v10.52h-3.95v-10.13c0-2.47-.91-4.2-2.77-4.2-1.52,0-2.53,1.3-2.91,2.51-.15.44-.2.96-.2,1.46v10.36h-3.96v-12.31c0-2.03-.05-3.7-.13-5.21h3.46l.19,2.57h.09c.78-1.36,2.23-2.97,4.94-2.97,2.12,0,3.75,1.29,4.44,3.23h.07c.56-.96,1.23-1.69,1.96-2.2.91-.67,1.92-1.03,3.25-1.03,2.65,0,5.35,1.98,5.35,7.6Z"/><path class="b" d="M101.68,39.85c.11,3.18,2.35,4.56,4.95,4.56,1.86,0,3.2-.32,4.42-.81l.6,3.05c-1.37.64-3.27,1.11-5.6,1.11-5.2,0-8.25-3.51-8.25-8.88,0-4.84,2.68-9.41,7.84-9.41s6.9,4.68,6.9,8.52c0,.82-.07,1.48-.14,1.86h-10.72ZM108.73,36.77c.02-1.62-.63-4.27-3.34-4.27-2.49,0-3.53,2.48-3.71,4.27h7.05Z"/><path class="b" d="M130.58,21.83v20.64c0,1.8.06,3.73.13,4.92h-3.61l-.18-2.77h-.07c-.96,1.96-2.89,3.17-5.2,3.17-3.83,0-6.86-3.57-6.86-8.96-.02-5.87,3.33-9.36,7.18-9.36,2.19,0,3.77.99,4.49,2.28h.07v-9.92h4.05ZM126.53,37.17c0-.35-.02-.8-.09-1.15-.36-1.71-1.66-3.11-3.48-3.11-2.61,0-4.06,2.52-4.06,5.77s1.46,5.57,4.01,5.57c1.66,0,3.09-1.24,3.5-3.15.09-.4.12-.83.12-1.29v-2.63Z"/><path class="b" d="M139.23,24.96c0,1.32-.87,2.39-2.31,2.39-1.34,0-2.22-1.07-2.22-2.39,0-1.35.91-2.4,2.27-2.4s2.25,1.03,2.26,2.4ZM134.94,47.39v-17.52h4.05v17.52h-4.05Z"/><path class="b" d="M152.38,47.39l-.28-1.95h-.1c-.97,1.38-2.65,2.35-4.72,2.35-3.25,0-5.05-2.54-5.05-5.21,0-4.42,3.6-6.66,9.5-6.63v-.29c0-1.15-.42-3.07-3.25-3.06-1.57,0-3.22.55-4.31,1.31l-.8-2.88c1.21-.8,3.29-1.56,5.81-1.56,5.14,0,6.61,3.54,6.61,7.39v6.31c0,1.59.07,3.14.25,4.22h-3.66ZM151.85,38.81c-2.86-.04-5.59.62-5.59,3.29,0,1.71,1.03,2.52,2.31,2.52,1.62,0,2.78-1.14,3.17-2.42.09-.31.11-.66.11-.96v-2.42Z"/><path class="b" d="M42.85,63.3c0,1.29-.83,2.31-2.38,2.31-.64,0-1.32-.21-1.66-.47l.23-.85c.36.26.92.47,1.48.47.89,0,1.42-.56,1.42-1.38,0-.74-.39-1.19-1.24-1.62-.35-.16-.67-.35-.93-.58-.5-.42-.82-.98-.82-1.7,0-1.24.89-2.17,2.22-2.17.64,0,1.14.18,1.42.36l-.25.84c-.21-.15-.64-.35-1.21-.35-.91,0-1.27.64-1.27,1.19,0,.71.36,1.06,1.12,1.48.04.02.08.04.12.07.02.01.05.02.08.04,1.12.58,1.67,1.26,1.67,2.36Z"/><path class="b" d="M42.85,63.3c0,1.29-.83,2.31-2.38,2.31-.64,0-1.32-.21-1.66-.47l.23-.85c.36.26.92.47,1.48.47.89,0,1.42-.56,1.42-1.38,0-.74-.39-1.19-1.24-1.62-.35-.16-.67-.35-.93-.58-.5-.42-.82-.98-.82-1.7,0-1.24.89-2.17,2.22-2.17.64,0,1.14.18,1.42.36l-.25.84c-.21-.15-.64-.35-1.21-.35-.91,0-1.27.64-1.27,1.19,0,.71.36,1.06,1.12,1.48.04.02.08.04.12.07.02.01.05.02.08.04,1.12.58,1.67,1.26,1.67,2.36Z"/><path class="b" d="M42.85,63.3c0,1.29-.83,2.31-2.38,2.31-.64,0-1.32-.21-1.66-.47l.23-.85c.36.26.92.47,1.48.47.89,0,1.42-.56,1.42-1.38,0-.74-.39-1.19-1.24-1.62-.35-.16-.67-.35-.93-.58-.5-.42-.82-.98-.82-1.7,0-1.24.89-2.17,2.22-2.17.64,0,1.14.18,1.42.36l-.25.84c-.21-.15-.64-.35-1.21-.35-.91,0-1.27.64-1.27,1.19,0,.71.36,1.06,1.12,1.48.04.02.08.04.12.07.02.01.05.02.08.04,1.12.58,1.67,1.26,1.67,2.36Z"/><path class="b" d="M41.18,60.94s-.06-.03-.08-.04c-.04-.03-.08-.05-.12-.07-.76-.42-1.12-.77-1.12-1.48,0-.55.36-1.19,1.27-1.19.57,0,1,.2,1.21.35l.25-.84c-.28-.18-.78-.36-1.42-.36-1.33,0-2.22.93-2.22,2.17,0,.72.32,1.28.82,1.7.26.23.58.42.93.58.85.43,1.24.88,1.24,1.62,0,.82-.53,1.38-1.42,1.38-.56,0-1.12-.21-1.48-.47l-.23.85c.34.26,1.02.47,1.66.47,1.55,0,2.38-1.02,2.38-2.31,0-1.1-.55-1.78-1.67-2.36Z"/><rect class="b" x="43.99" y="59.71" width=".91" height="5.8"/><path class="b" d="M45,58.11c0,.36-.22.63-.57.63-.32,0-.55-.27-.54-.63-.01-.37.23-.64.55-.64.34,0,.56.27.56.64Z"/><path class="b" d="M45.47,62.11v.98c-.02-.15-.03-.3-.03-.45,0-.19.01-.36.03-.53Z"/><path class="b" d="M44.44,57.47c-.32,0-.56.27-.55.64-.01.36.22.63.54.63.35,0,.57-.27.57-.63s-.22-.64-.56-.64ZM43.99,59.71v5.8h.91v-5.8h-.91Z"/><rect class="b" x="43.99" y="59.71" width=".91" height="5.8"/><path class="b" d="M45,58.11c0,.36-.22.63-.57.63-.32,0-.55-.27-.54-.63-.01-.37.23-.64.55-.64.34,0,.56.27.56.64Z"/><path class="b" d="M45.47,62.11v.98c-.02-.15-.03-.3-.03-.45,0-.19.01-.36.03-.53Z"/><path class="b" d="M43.99,59.71v5.8h.91v-5.8h-.91ZM44.44,57.47c-.32,0-.56.27-.55.64-.01.36.22.63.54.63.35,0,.57-.27.57-.63s-.22-.64-.56-.64Z"/><path class="b" d="M49.62,59.71l-.04.8h-.02c-.21-.44-.63-.93-1.42-.93-1.07,0-2.13,1.04-2.13,3.06,0,.73.17,1.38.46,1.87.34.61.89.98,1.54.98.7,0,1.2-.38,1.46-.9h.02v.63c0,1.42-.62,1.96-1.49,1.96-.58,0-1.05-.2-1.36-.41l-.22.79c.38.27.98.42,1.55.42.63,0,1.29-.19,1.74-.67.45-.49.67-1.22.67-2.62v-3.33c0-.76.02-1.25.05-1.65h-.81ZM49.41,63.69c-.19.68-.65,1.01-1.14,1.01-.37,0-.68-.16-.9-.45-.29-.37-.45-.96-.45-1.66,0-1.33.55-2.2,1.36-2.2.63,0,1,.51,1.15,1.05.04.14.05.3.05.46v1.24c0,.17-.02.35-.06.52,0,.01-.01.02-.01.03ZM45.44,62.64c0,.15.01.3.03.45v-.98c-.02.17-.03.34-.03.53Z"/><path class="b" d="M49.62,59.71l-.04.8h-.02c-.21-.44-.63-.93-1.42-.93-1.07,0-2.13,1.04-2.13,3.06,0,.73.17,1.38.46,1.87.34.61.89.98,1.54.98.7,0,1.2-.38,1.46-.9h.02v.63c0,1.42-.62,1.96-1.49,1.96-.58,0-1.05-.2-1.36-.41l-.22.79c.38.27.98.42,1.55.42.63,0,1.29-.19,1.74-.67.45-.49.67-1.22.67-2.62v-3.33c0-.76.02-1.25.05-1.65h-.81ZM49.41,63.69c-.19.68-.65,1.01-1.14,1.01-.37,0-.68-.16-.9-.45-.29-.37-.45-.96-.45-1.66,0-1.33.55-2.2,1.36-2.2.63,0,1,.51,1.15,1.05.04.14.05.3.05.46v1.24c0,.17-.02.35-.06.52,0,.01-.01.02-.01.03Z"/><path class="b" d="M49.62,59.71l-.04.8h-.02c-.21-.44-.63-.93-1.42-.93-1.07,0-2.13,1.04-2.13,3.06,0,.73.17,1.38.46,1.87.34.61.89.98,1.54.98.7,0,1.2-.38,1.46-.9h.02v.63c0,1.42-.62,1.96-1.49,1.96-.58,0-1.05-.2-1.36-.41l-.22.79c.38.27.98.42,1.55.42.63,0,1.29-.19,1.74-.67.45-.49.67-1.22.67-2.62v-3.33c0-.76.02-1.25.05-1.65h-.81ZM49.41,63.69c-.19.68-.65,1.01-1.14,1.01-.37,0-.68-.16-.9-.45-.29-.37-.45-.96-.45-1.66,0-1.33.55-2.2,1.36-2.2.63,0,1,.51,1.15,1.05.04.14.05.3.05.46v1.24c0,.17-.02.35-.06.52,0,.01-.01.02-.01.03ZM45.44,62.64c0,.15.01.3.03.45v-.98c-.02.17-.03.34-.03.53Z"/><path class="b" d="M49.62,59.71l-.04.8h-.02c-.21-.44-.63-.93-1.42-.93-1.07,0-2.13,1.04-2.13,3.06,0,.73.17,1.38.46,1.87.34.61.89.98,1.54.98.7,0,1.2-.38,1.46-.9h.02v.63c0,1.42-.62,1.96-1.49,1.96-.58,0-1.05-.2-1.36-.41l-.22.79c.38.27.98.42,1.55.42.63,0,1.29-.19,1.74-.67.45-.49.67-1.22.67-2.62v-3.33c0-.76.02-1.25.05-1.65h-.81ZM49.41,63.69c-.19.68-.65,1.01-1.14,1.01-.37,0-.68-.16-.9-.45-.29-.37-.45-.96-.45-1.66,0-1.33.55-2.2,1.36-2.2.63,0,1,.51,1.15,1.05.04.14.05.3.05.46v1.24c0,.17-.02.35-.06.52,0,.01-.01.02-.01.03Z"/><path class="b" d="M53.85,60.42c-.54,0-.97.44-1.12,1.04-.04.14-.06.32-.06.5v3.55h-.9v-4.26c0-.63-.02-1.07-.05-1.54h.8l.05.87h.03c.24-.52.79-1,1.55-1,.71,0,1.62.5,1.66,2.23v3.7h-.9v-3.47c0-.86-.26-1.62-1.06-1.62Z"/><path class="b" d="M55.81,61.81v3.7h-.9v-3.47c0-.86-.26-1.62-1.06-1.62-.54,0-.97.44-1.12,1.04-.04.14-.06.32-.06.5v3.55h-.9v-4.26c0-.63-.02-1.07-.05-1.54h.8l.05.87h.03c.24-.52.79-1,1.55-1,.71,0,1.62.5,1.66,2.23Z"/><path class="b" d="M53.85,60.42c-.54,0-.97.44-1.12,1.04-.04.14-.06.32-.06.5v3.55h-.9v-4.26c0-.63-.02-1.07-.05-1.54h.8l.05.87h.03c.24-.52.79-1,1.55-1,.71,0,1.62.5,1.66,2.23v3.7h-.9v-3.47c0-.86-.26-1.62-1.06-1.62Z"/><path class="b" d="M54.15,59.58c-.76,0-1.31.48-1.55,1h-.03l-.05-.87h-.8c.03.47.05.91.05,1.54v4.26h.9v-3.55c0-.18.02-.36.06-.5.15-.6.58-1.04,1.12-1.04.8,0,1.06.76,1.06,1.62v3.47h.9v-3.7c-.04-1.73-.95-2.23-1.66-2.23Z"/><path class="b" d="M60.62,64.58c0-.14,0-.29,0-.44v-2.27c0-.5-.07-.99-.26-1.38-.25-.55-.74-.91-1.56-.91-.62,0-1.2.2-1.57.47l.21.69c.33-.25.77-.39,1.2-.39s.7.16.85.39c.19.27.23.63.23.94v.14c-1.76,0-2.85.73-2.85,2.14,0,.64.28,1.22.78,1.49.2.12.43.18.7.18.64,0,1.13-.36,1.4-.8h.05s.08.68.08.68h.81c-.03-.28-.05-.6-.06-.93ZM59.73,62.53v1.06c0,.1-.01.22-.04.33-.14.51-.53.94-1.12.94-.42,0-.8-.3-.8-1.01,0-1.16,1.11-1.34,1.96-1.32Z"/><path class="b" d="M60.62,64.58c0-.14,0-.29,0-.44v-2.27c0-.5-.07-.99-.26-1.38-.25-.55-.74-.91-1.56-.91-.62,0-1.2.2-1.57.47l.21.69c.33-.25.77-.39,1.2-.39s.7.16.85.39c.19.27.23.63.23.94v.14c-1.76,0-2.85.73-2.85,2.14,0,.64.28,1.22.78,1.49.2.12.43.18.7.18.64,0,1.13-.36,1.4-.8h.05s.08.68.08.68h.81c-.03-.28-.05-.6-.06-.93ZM59.73,62.53v1.06c0,.1-.01.22-.04.33-.14.51-.53.94-1.12.94-.42,0-.8-.3-.8-1.01,0-1.16,1.11-1.34,1.96-1.32Z"/><path class="b" d="M60.62,64.58c0-.14,0-.29,0-.44v-2.27c0-.5-.07-.99-.26-1.38-.25-.55-.74-.91-1.56-.91-.62,0-1.2.2-1.57.47l.21.69c.33-.25.77-.39,1.2-.39s.7.16.85.39c.19.27.23.63.23.94v.14c-1.76,0-2.85.73-2.85,2.14,0,.64.28,1.22.78,1.49.2.12.43.18.7.18.64,0,1.13-.36,1.4-.8h.05s.08.68.08.68h.81c-.03-.28-.05-.6-.06-.93ZM59.73,62.53v1.06c0,.1-.01.22-.04.33-.14.51-.53.94-1.12.94-.42,0-.8-.3-.8-1.01,0-1.16,1.11-1.34,1.96-1.32Z"/><path class="b" d="M60.62,64.58c0-.14,0-.29,0-.44v-2.27c0-.5-.07-.99-.26-1.38-.25-.55-.74-.91-1.56-.91-.62,0-1.2.2-1.57.47l.21.69c.33-.25.77-.39,1.2-.39s.7.16.85.39c.19.27.23.63.23.94v.14c-1.76,0-2.85.73-2.85,2.14,0,.64.28,1.22.78,1.49.2.12.43.18.7.18.64,0,1.13-.36,1.4-.8.01-.01.02-.01.02-.02h.03s.08.7.08.7h.81c-.03-.28-.05-.6-.06-.93ZM59.73,62.53v1.06c0,.1-.01.22-.04.33-.14.51-.53.94-1.12.94-.42,0-.8-.3-.8-1.01,0-1.16,1.11-1.34,1.96-1.32Z"/><rect class="b" x="62.03" y="57.06" width=".9" height="8.45"/><rect class="b" x="62.03" y="57.06" width=".9" height="8.45"/><rect class="b" x="62.03" y="57.06" width=".9" height="8.45"/><path class="b" d="M62.03,57.06v8.45h.9v-8.45h-.9Z"/><path class="b" d="M70.07,58.01c-.09-.09-.2-.18-.31-.25-.4-.26-.94-.39-1.59-.39s-1.2.06-1.62.16v7.98h.9v-3.27c.19.05.4.06.64.06.2,0,.4-.02.6-.06h.01l.56-.16s.01-.01.02-.01c.34-.15.64-.37.87-.66.34-.42.52-.97.52-1.71s-.22-1.3-.6-1.69ZM68.09,61.49c-.25,0-.46-.02-.64-.07v-3.17c.15-.04.41-.08.76-.08.04,0,.08,0,.11.01.92.04,1.45.62,1.45,1.58,0,1.11-.64,1.73-1.68,1.73Z"/><path class="b" d="M70.07,58.01c-.09-.09-.2-.18-.31-.25-.4-.26-.94-.39-1.59-.39s-1.2.06-1.62.16v7.98h.9v-3.27c.19.05.4.06.64.06.2,0,.4-.02.6-.06h.01l.56-.16s.01-.01.02-.01c.34-.15.64-.37.87-.66.34-.42.52-.97.52-1.71s-.22-1.3-.6-1.69ZM68.09,61.49c-.25,0-.46-.02-.64-.07v-3.17c.15-.04.41-.08.76-.08.04,0,.08,0,.11.01.92.04,1.45.62,1.45,1.58,0,1.11-.64,1.73-1.68,1.73Z"/><path class="b" d="M70.07,58.01c-.09-.09-.2-.18-.31-.25-.4-.26-.94-.39-1.59-.39s-1.2.06-1.62.16v7.98h.9v-3.27c.19.05.4.06.64.06.2,0,.4-.02.6-.06h.01l.56-.16s.01-.01.02-.01c.34-.15.64-.37.87-.66.34-.42.52-.97.52-1.71s-.22-1.3-.6-1.69ZM68.09,61.49c-.25,0-.46-.02-.64-.07v-3.17c.15-.04.41-.08.76-.08.04,0,.08,0,.11.01.92.04,1.45.62,1.45,1.58,0,1.11-.64,1.73-1.68,1.73Z"/><path class="b" d="M70.07,58.01c-.09-.09-.2-.18-.31-.25-.4-.26-.94-.39-1.59-.39s-1.2.06-1.62.16v7.98h.9v-3.27c.19.05.4.06.64.06.2,0,.4-.02.6-.06h.01l.56-.16s.01-.01.02-.01c.34-.15.64-.37.87-.66.34-.42.52-.97.52-1.71s-.22-1.3-.6-1.69ZM68.09,61.49c-.25,0-.46-.02-.64-.07v-3.17c.15-.04.41-.08.76-.08.04,0,.08,0,.11.01.92.04,1.45.62,1.45,1.58,0,1.11-.64,1.73-1.68,1.73Z"/><path class="b" d="M74.05,59.61v.98c-.09-.02-.17-.03-.28-.03-.34,0-.63.17-.84.45-.17.22-.29.52-.34.86-.03.15-.04.32-.04.5v3.14h-.9v-4.13c0-.62-.02-1.18-.05-1.67h.8l.04,1.06h.03c.22-.71.76-1.19,1.34-1.19.09,0,.16.01.24.03Z"/><path class="b" d="M73.81,59.58c.09,0,.16.01.24.03v.98c-.09-.02-.17-.03-.28-.03-.34,0-.63.17-.84.45-.17.22-.29.52-.34.86-.03.15-.04.32-.04.5v3.14h-.9v-4.13c0-.62-.02-1.18-.05-1.67h.8l.04,1.06h.03c.22-.71.76-1.19,1.34-1.19Z"/><path class="b" d="M73.81,59.58c-.58,0-1.12.48-1.34,1.19h-.03l-.04-1.06h-.8c.03.49.05,1.05.05,1.67v4.13h.9v-3.14c0-.18,0-.35.04-.5.05-.34.17-.64.34-.86.21-.28.5-.45.84-.45.11,0,.19,0,.28.03v-.98c-.08-.02-.15-.03-.24-.03Z"/><path class="b" d="M77.47,59.7h-.01c-.21-.08-.44-.12-.69-.12-.64,0-1.23.27-1.65.8-.42.51-.67,1.27-.67,2.26,0,1.9.99,2.99,2.25,2.99,1.11,0,2.32-.89,2.32-3.07,0-1.49-.61-2.53-1.55-2.86ZM76.74,64.85c-.87,0-1.37-1.06-1.37-2.24,0-1.03.38-2.25,1.38-2.25s1.35,1.28,1.35,2.23c0,1.19-.51,2.26-1.36,2.26Z"/><path class="b" d="M77.47,59.7h-.01c-.21-.08-.44-.12-.69-.12-.64,0-1.23.27-1.65.8-.42.51-.67,1.27-.67,2.26,0,1.9.99,2.99,2.25,2.99,1.11,0,2.32-.89,2.32-3.07,0-1.49-.61-2.53-1.55-2.86ZM76.74,64.85c-.87,0-1.37-1.06-1.37-2.24,0-1.03.38-2.25,1.38-2.25s1.35,1.28,1.35,2.23c0,1.19-.51,2.26-1.36,2.26Z"/><path class="b" d="M77.47,59.7h-.01c-.21-.08-.44-.12-.69-.12-.64,0-1.23.27-1.65.8-.42.51-.67,1.27-.67,2.26,0,1.9.99,2.99,2.25,2.99,1.11,0,2.32-.89,2.32-3.07,0-1.49-.61-2.53-1.55-2.86ZM76.74,64.85c-.87,0-1.37-1.06-1.37-2.24,0-1.03.38-2.25,1.38-2.25s1.35,1.28,1.35,2.23c0,1.19-.51,2.26-1.36,2.26Z"/><path class="b" d="M82.36,64.79c-.95,0-1.63-.82-1.63-2.17,0-1.19.56-2.21,1.64-2.21.44,0,.75.13.95.24l.19-.79c-.22-.14-.66-.27-1.13-.27-1.58,0-2.57,1.32-2.57,3.07s.95,2.95,2.38,2.95c.6,0,1.07-.16,1.3-.29l-.14-.77c-.24.12-.55.24-.99.24Z"/><path class="b" d="M88.25,62.26c0-1.14-.43-2.68-1.94-2.68-1.37,0-2.23,1.32-2.23,3.11s.86,2.92,2.35,2.92c.7,0,1.24-.17,1.56-.34l-.16-.72c-.3.14-.68.27-1.26.27-.84,0-1.6-.53-1.61-2.06h3.27c0-.12.02-.28.02-.5ZM84.97,62.03c.06-.76.43-1.7,1.27-1.7s1.15.88,1.14,1.7h-2.41Z"/><path class="b" d="M88.25,62.26c0-1.14-.43-2.68-1.94-2.68-1.37,0-2.23,1.32-2.23,3.11s.86,2.92,2.35,2.92c.7,0,1.24-.17,1.56-.34l-.16-.72c-.3.14-.68.27-1.26.27-.84,0-1.6-.53-1.61-2.06h3.27c0-.12.02-.28.02-.5ZM84.97,62.03c.06-.76.43-1.7,1.27-1.7s1.15.88,1.14,1.7h-2.41Z"/><path class="b" d="M92.14,63.87c0,1.07-.71,1.74-1.82,1.74-.51,0-1.01-.15-1.33-.38l.22-.76c.25.17.7.38,1.13.38.62,0,.93-.37.93-.86s-.23-.77-.87-1.09c-.86-.41-1.28-.96-1.28-1.64,0-.94.66-1.68,1.69-1.68.49,0,.9.16,1.16.34l-.23.75c-.2-.15-.53-.32-.95-.32-.52,0-.8.36-.8.78,0,.45.25.67.88.99.81.39,1.27.91,1.27,1.75Z"/><path class="b" d="M90.87,62.12c-.63-.32-.88-.54-.88-.99,0-.42.28-.78.8-.78.42,0,.75.17.95.32l.23-.75c-.26-.18-.67-.34-1.16-.34-1.03,0-1.69.74-1.69,1.68,0,.68.42,1.23,1.28,1.64.64.32.87.6.87,1.09s-.31.86-.93.86c-.43,0-.88-.21-1.13-.38l-.22.76c.32.23.82.38,1.33.38,1.11,0,1.82-.67,1.82-1.74,0-.84-.46-1.36-1.27-1.75Z"/><path class="b" d="M96.05,63.87c0,1.07-.72,1.74-1.83,1.74-.51,0-1.01-.15-1.33-.38l.22-.76c.26.17.7.38,1.13.38.62,0,.94-.37.94-.86s-.24-.77-.88-1.09c-.86-.41-1.28-.96-1.28-1.64,0-.94.67-1.68,1.69-1.68.49,0,.9.16,1.16.34l-.23.75c-.19-.15-.53-.32-.95-.32-.52,0-.8.36-.8.78,0,.45.25.67.88.99.81.39,1.28.91,1.28,1.75Z"/><path class="b" d="M94.77,62.12c-.63-.32-.88-.54-.88-.99,0-.42.28-.78.8-.78.42,0,.76.17.95.32l.23-.75c-.26-.18-.67-.34-1.16-.34-1.02,0-1.69.74-1.69,1.68,0,.68.42,1.23,1.28,1.64.64.32.88.6.88,1.09s-.32.86-.94.86c-.43,0-.87-.21-1.13-.38l-.22.76c.32.23.82.38,1.33.38,1.11,0,1.83-.67,1.83-1.74,0-.84-.47-1.36-1.28-1.75Z"/><path class="b" d="M97.15,59.71v5.8h.91v-5.8h-.91Z"/><path class="b" d="M97.6,57.47c-.32,0-.55.27-.55.64s.22.63.54.63c.35,0,.57-.27.57-.63s-.22-.64-.56-.64ZM97.15,59.71v5.8h.91v-5.8h-.91Z"/><path class="b" d="M101.89,59.58c-.77,0-1.31.48-1.56,1h-.02l-.05-.87h-.8c.02.47.04.91.04,1.54v4.26h.9v-3.55c0-.18.03-.36.06-.5.15-.6.59-1.04,1.13-1.04.79,0,1.05.76,1.05,1.62v3.47h.91v-3.6c0-1.81-.95-2.33-1.66-2.33Z"/><path class="b" d="M108.25,59.71l-.04.8h-.02c-.21-.44-.63-.93-1.42-.93-1.07,0-2.13,1.04-2.13,3.06,0,1.64.82,2.85,2.01,2.85.69,0,1.2-.38,1.45-.9h.02v.63c0,1.42-.62,1.96-1.49,1.96-.58,0-1.05-.2-1.36-.41l-.22.79c.38.27.98.42,1.55.42.64,0,1.29-.19,1.74-.67.45-.49.67-1.22.67-2.62v-3.33c0-.76.02-1.25.05-1.65h-.81ZM108.11,63.14c0,.18-.02.37-.07.55-.19.68-.65,1.01-1.14,1.01-.86,0-1.35-.87-1.35-2.11,0-1.33.55-2.2,1.36-2.2.63,0,1,.51,1.15,1.05.04.14.05.3.05.46v1.24Z"/><path class="b" d="M108.25,59.71l-.04.8h-.02c-.21-.44-.63-.93-1.42-.93-1.07,0-2.13,1.04-2.13,3.06,0,1.64.82,2.85,2.01,2.85.69,0,1.2-.38,1.45-.9h.02v.63c0,1.42-.62,1.96-1.49,1.96-.58,0-1.05-.2-1.36-.41l-.22.79c.38.27.98.42,1.55.42.64,0,1.29-.19,1.74-.67.45-.49.67-1.22.67-2.62v-3.33c0-.76.02-1.25.05-1.65h-.81ZM108.11,63.14c0,.18-.02.37-.07.55-.19.68-.65,1.01-1.14,1.01-.86,0-1.35-.87-1.35-2.11,0-1.33.55-2.2,1.36-2.2.63,0,1,.51,1.15,1.05.04.14.05.3.05.46v1.24Z"/><path class="b" d="M113.57,59.37v.34h1.16v.76h-1.16v5.04h-.9v-5.04h-.7v-.76h.7v-.31c0-.76.14-1.47.56-1.94.34-.38.79-.53,1.19-.53.33,0,.59.08.76.17l-.13.78c-.13-.06-.3-.12-.56-.12-.73,0-.92.76-.92,1.61Z"/><path class="b" d="M114.49,57.76c.26,0,.43.06.56.12l.13-.78c-.17-.09-.43-.17-.76-.17-.4,0-.85.15-1.19.53-.42.47-.56,1.18-.56,1.94v.31h-.7v.76h.7v5.04h.9v-5.04h1.16v-.76h-1.16v-.34c0-.85.19-1.61.92-1.61Z"/><path class="b" d="M117.37,59.58c-1.28,0-2.33,1.06-2.33,3.06s.99,2.99,2.25,2.99c1.11,0,2.33-.89,2.33-3.07,0-1.84-.93-2.98-2.25-2.98ZM117.33,64.85c-.87,0-1.37-1.06-1.37-2.24,0-1.03.38-2.25,1.38-2.25s1.35,1.28,1.35,2.23c0,1.19-.51,2.26-1.36,2.26Z"/><path class="b" d="M117.37,59.58c-1.28,0-2.33,1.06-2.33,3.06s.99,2.99,2.25,2.99c1.11,0,2.33-.89,2.33-3.07,0-1.84-.93-2.98-2.25-2.98ZM117.33,64.85c-.87,0-1.37-1.06-1.37-2.24,0-1.03.38-2.25,1.38-2.25s1.35,1.28,1.35,2.23c0,1.19-.51,2.26-1.36,2.26Z"/><path class="b" d="M123.12,59.61v.98c-.08-.02-.16-.03-.28-.03-.62,0-1.06.56-1.18,1.31-.02.15-.04.32-.04.5v3.14h-.9v-4.09c0-.63-.02-1.21-.04-1.71h.8l.04,1.06h.03c.22-.71.75-1.19,1.33-1.19.1,0,.16.01.24.03Z"/><path class="b" d="M122.88,59.58c-.58,0-1.11.48-1.33,1.19h-.03l-.04-1.06h-.8c.02.5.04,1.08.04,1.71v4.09h.9v-3.14c0-.18.02-.35.04-.5.12-.75.56-1.31,1.18-1.31.12,0,.2,0,.28.03v-.98c-.08-.02-.14-.03-.24-.03Z"/><path class="b" d="M132.74,65.51h-.87l-.17-3.53c-.06-1.11-.12-2.42-.1-3.39h-.04c-.22.92-.49,1.92-.81,2.98l-1.16,3.88h-.65l-1.08-3.78c-.31-1.11-.57-2.13-.76-3.08h-.02c-.02.99-.07,2.27-.13,3.46l-.17,3.46h-.85l.48-8.09h1.11l1.11,3.85c.28,1.01.51,1.87.69,2.74h.02c.18-.85.4-1.7.7-2.74l1.15-3.85h1.11l.44,8.09Z"/><path class="b" d="M132.3,57.42h-1.11l-1.15,3.85c-.3,1.04-.52,1.89-.7,2.74h-.02c-.18-.87-.41-1.73-.69-2.74l-1.11-3.85h-1.11l-.48,8.09h.85l.17-3.46c.06-1.19.11-2.47.13-3.46h.02c.19.95.45,1.97.76,3.08l1.08,3.78h.65l1.16-3.88c.32-1.06.59-2.06.81-2.98h.04c-.02.97.04,2.28.1,3.39l.17,3.53h.87l-.44-8.09Z"/><path class="b" d="M137.92,62.26c0-1.14-.44-2.68-1.94-2.68-1.37,0-2.24,1.32-2.24,3.11s.87,2.92,2.36,2.92c.7,0,1.23-.17,1.55-.34l-.15-.72c-.31.14-.69.27-1.27.27-.84,0-1.59-.53-1.61-2.06h3.27c.02-.12.03-.28.03-.5ZM134.63,62.03c.07-.76.43-1.7,1.27-1.7s1.15.88,1.14,1.7h-2.41Z"/><path class="b" d="M137.92,62.26c0-1.14-.44-2.68-1.94-2.68-1.37,0-2.24,1.32-2.24,3.11s.87,2.92,2.36,2.92c.7,0,1.23-.17,1.55-.34l-.15-.72c-.31.14-.69.27-1.27.27-.84,0-1.59-.53-1.61-2.06h3.27c.02-.12.03-.28.03-.5ZM134.63,62.03c.07-.76.43-1.7,1.27-1.7s1.15.88,1.14,1.7h-2.41Z"/><path class="b" d="M143.08,64.04v-6.98h-.9v3.35h-.02c-.23-.48-.71-.83-1.38-.83-1.12,0-2.11,1.12-2.1,3.09,0,1.81.87,2.96,2.01,2.96.76,0,1.3-.47,1.56-1.05h.02l.06.93h.79c-.02-.39-.04-.99-.04-1.47ZM142.18,63.19c0,.15,0,.3-.04.43-.18.8-.69,1.18-1.21,1.18-.89,0-1.34-.98-1.34-2.17s.48-2.23,1.37-2.23c.62,0,1.07.54,1.19,1.19.02.13.03.3.03.43v1.17Z"/><path class="b" d="M143.08,64.04v-6.98h-.9v3.35h-.02c-.23-.48-.71-.83-1.38-.83-1.12,0-2.11,1.12-2.1,3.09,0,1.81.87,2.96,2.01,2.96.76,0,1.3-.47,1.56-1.05h.02l.06.93h.79c-.02-.39-.04-.99-.04-1.47ZM142.18,63.19c0,.15,0,.3-.04.43-.18.8-.69,1.18-1.21,1.18-.89,0-1.34-.98-1.34-2.17s.48-2.23,1.37-2.23c.62,0,1.07.54,1.19,1.19.02.13.03.3.03.43v1.17Z"/><path class="b" d="M144.52,59.71v5.8h.91v-5.8h-.91ZM144.97,57.47c-.32,0-.56.27-.55.64-.01.36.22.63.54.63.35,0,.57-.27.57-.63s-.22-.64-.56-.64Z"/><path class="b" d="M144.97,57.47c-.32,0-.56.27-.55.64-.01.36.22.63.54.63.35,0,.57-.27.57-.63s-.22-.64-.56-.64ZM144.52,59.71v5.8h.91v-5.8h-.91Z"/><path class="b" d="M150.25,64.14v-2.27c0-1.21-.41-2.29-1.83-2.29-.61,0-1.19.2-1.56.47l.2.69c.33-.25.77-.39,1.21-.39.94-.01,1.07.76,1.07,1.33v.14c-1.75,0-2.84.73-2.84,2.14,0,.89.53,1.67,1.47,1.67.66,0,1.16-.37,1.43-.82h.03l.07.7h.82c-.06-.4-.07-.89-.07-1.37ZM149.36,63.59c0,.1-.01.22-.04.33-.13.51-.53.94-1.11.94-.42,0-.81-.3-.81-1.01,0-1.16,1.12-1.34,1.96-1.32v1.06Z"/><path class="b" d="M150.25,64.14v-2.27c0-1.21-.41-2.29-1.83-2.29-.61,0-1.19.2-1.56.47l.2.69c.33-.25.77-.39,1.21-.39.94-.01,1.07.76,1.07,1.33v.14c-1.75,0-2.84.73-2.84,2.14,0,.89.53,1.67,1.47,1.67.66,0,1.16-.37,1.43-.82h.03l.07.7h.82c-.06-.4-.07-.89-.07-1.37ZM149.36,63.59c0,.1-.01.22-.04.33-.13.51-.53.94-1.11.94-.42,0-.81-.3-.81-1.01,0-1.16,1.12-1.34,1.96-1.32v1.06Z"/><path class="b" d="M156.58,57.42h-1.06l-2.22,8.09h.92l.67-2.51h2.27l.69,2.51h.94l-2.21-8.09ZM155.05,62.21l.62-2.26c.13-.51.24-1.06.34-1.57h.02c.1.5.21,1.04.35,1.58l.62,2.25h-1.95Z"/><path class="b" d="M156.58,57.42h-1.06l-2.22,8.09h.92l.67-2.51h2.27l.69,2.51h.94l-2.21-8.09ZM155.05,62.21l.62-2.26c.13-.51.24-1.06.34-1.57h.02c.1.5.21,1.04.35,1.58l.62,2.25h-1.95Z"/><path class="b" d="M162.18,59.58c-.71,0-1.27.36-1.62,1.04h-.02l-.05-.91h-.81c.02.5.05,1.07.05,1.86v6.29h.9v-3.07h.02c.26.5.76.84,1.39.84,1.09,0,2.13-.98,2.13-3.09,0-1.81-.84-2.96-1.99-2.96ZM161.88,64.82c-.53,0-1.04-.4-1.21-1.16-.03-.14-.04-.29-.04-.45v-1.14c0-.15.02-.3.05-.44.14-.71.66-1.22,1.23-1.22.89,0,1.35,1,1.35,2.17,0,1.28-.47,2.24-1.38,2.24Z"/><path class="b" d="M162.18,59.58c-.71,0-1.27.36-1.62,1.04h-.02l-.05-.91h-.81c.02.5.05,1.07.05,1.86v6.29h.9v-3.07h.02c.26.5.76.84,1.39.84,1.09,0,2.13-.98,2.13-3.09,0-1.81-.84-2.96-1.99-2.96ZM161.88,64.82c-.53,0-1.04-.4-1.21-1.16-.03-.14-.04-.29-.04-.45v-1.14c0-.15.02-.3.05-.44.14-.71.66-1.22,1.23-1.22.89,0,1.35,1,1.35,2.17,0,1.28-.47,2.24-1.38,2.24Z"/><path class="b" d="M167.74,59.58c-.71,0-1.27.36-1.62,1.04h-.02l-.05-.91h-.81c.02.5.04,1.07.04,1.86v6.29h.9v-3.07h.02c.26.5.77.84,1.4.84,1.09,0,2.13-.98,2.13-3.09,0-1.81-.84-2.96-1.99-2.96ZM167.44,64.82c-.54,0-1.05-.4-1.22-1.16-.02-.14-.04-.29-.04-.45v-1.14c0-.15.03-.3.05-.44.14-.71.67-1.22,1.23-1.22.9,0,1.35,1,1.35,2.17,0,1.28-.47,2.24-1.37,2.24Z"/><path class="b" d="M167.74,59.58c-.71,0-1.27.36-1.62,1.04h-.02l-.05-.91h-.81c.02.5.04,1.07.04,1.86v6.29h.9v-3.07h.02c.26.5.77.84,1.4.84,1.09,0,2.13-.98,2.13-3.09,0-1.81-.84-2.96-1.99-2.96ZM167.44,64.82c-.54,0-1.05-.4-1.22-1.16-.02-.14-.04-.29-.04-.45v-1.14c0-.15.03-.3.05-.44.14-.71.67-1.22,1.23-1.22.9,0,1.35,1,1.35,2.17,0,1.28-.47,2.24-1.37,2.24Z"/><rect class="b" x="170.84" y="57.06" width=".9" height="8.45"/><path class="b" d="M170.84,57.06v8.45h.9v-8.45h-.9Z"/><path class="b" d="M173.22,59.71v5.8h.9v-5.8h-.9ZM173.67,57.47c-.32,0-.56.27-.56.64s.23.63.54.63c.36,0,.58-.27.58-.63s-.22-.64-.56-.64Z"/><path class="b" d="M173.67,57.47c-.32,0-.56.27-.56.64s.23.63.54.63c.36,0,.58-.27.58-.63s-.22-.64-.56-.64ZM173.22,59.71v5.8h.9v-5.8h-.9Z"/><path class="b" d="M178.77,64.55l.15.77c-.23.13-.7.29-1.3.29-1.44,0-2.38-1.14-2.38-2.95s.99-3.07,2.56-3.07c.48,0,.92.13,1.14.27l-.2.79c-.19-.11-.5-.24-.95-.24-1.07,0-1.64,1.02-1.64,2.21,0,1.35.68,2.17,1.63,2.17.44,0,.75-.12.99-.24Z"/><path class="b" d="M177.78,64.79c-.95,0-1.63-.82-1.63-2.17,0-1.19.57-2.21,1.64-2.21.45,0,.76.13.95.24l.2-.79c-.22-.14-.66-.27-1.14-.27-1.57,0-2.56,1.32-2.56,3.07s.94,2.95,2.38,2.95c.6,0,1.07-.16,1.3-.29l-.15-.77c-.24.12-.55.24-.99.24Z"/><path class="b" d="M183.29,64.14v-2.27c0-1.21-.4-2.29-1.83-2.29-.61,0-1.19.2-1.56.47l.2.69c.33-.25.77-.39,1.21-.39.94-.01,1.07.76,1.07,1.33v.14c-1.75,0-2.84.73-2.84,2.14,0,.89.53,1.67,1.48,1.67.65,0,1.15-.37,1.42-.82h.03l.07.7h.82c-.05-.4-.07-.89-.07-1.37ZM182.4,63.59c0,.1-.01.22-.04.33-.13.51-.52.94-1.11.94-.42,0-.81-.3-.81-1.01,0-1.16,1.12-1.34,1.96-1.32v1.06Z"/><path class="b" d="M183.29,64.14v-2.27c0-1.21-.4-2.29-1.83-2.29-.61,0-1.19.2-1.56.47l.2.69c.33-.25.77-.39,1.21-.39.94-.01,1.07.76,1.07,1.33v.14c-1.75,0-2.84.73-2.84,2.14,0,.89.53,1.67,1.48,1.67.65,0,1.15-.37,1.42-.82h.03l.07.7h.82c-.05-.4-.07-.89-.07-1.37ZM182.4,63.59c0,.1-.01.22-.04.33-.13.51-.52.94-1.11.94-.42,0-.81-.3-.81-1.01,0-1.16,1.12-1.34,1.96-1.32v1.06Z"/><path class="b" d="M185.74,60.47v3.23c0,.73.2,1.07.66,1.07.21,0,.37-.02.48-.06l.04.78c-.17.07-.43.12-.77.12-.4,0-.74-.14-.96-.41-.24-.31-.35-.78-.35-1.5v-3.23h-.75v-.76h.75v-1.37l.9-.27v1.64h1.25v.76h-1.25Z"/><path class="b" d="M186.99,60.47v-.76h-1.25v-1.64l-.9.27v1.37h-.75v.76h.75v3.23c0,.72.11,1.19.35,1.5.22.27.56.41.96.41.34,0,.6-.05.77-.12l-.04-.78c-.11.04-.27.06-.48.06-.46,0-.66-.34-.66-1.07v-3.23h1.25Z"/><path class="b" d="M188.4,57.47c-.33,0-.56.27-.56.64s.22.63.54.63c.36,0,.57-.27.57-.63s-.22-.64-.55-.64Z"/><path class="b" d="M188.4,57.47c-.33,0-.56.27-.56.64s.22.63.54.63c.36,0,.57-.27.57-.63s-.22-.64-.55-.64ZM187.94,59.71v5.8h.91v-5.8h-.91Z"/><path class="b" d="M192.29,59.58c-1.28,0-2.33,1.06-2.33,3.06s.99,2.99,2.25,2.99c1.11,0,2.33-.89,2.33-3.07,0-1.84-.93-2.98-2.25-2.98ZM192.25,64.85c-.87,0-1.37-1.06-1.37-2.24,0-1.03.38-2.25,1.38-2.25s1.35,1.28,1.35,2.23c0,1.19-.51,2.26-1.36,2.26Z"/><path class="b" d="M199.69,61.91v3.6h-.9v-3.47c0-.86-.26-1.62-1.06-1.62-.54,0-.97.44-1.12,1.04-.04.14-.06.32-.06.5v3.55h-.91v-4.26c0-.63-.02-1.07-.04-1.54h.8l.05.87h.03c.24-.52.79-1,1.55-1,.72,0,1.66.52,1.66,2.33Z"/><path class="b" d="M198.03,59.58c-.76,0-1.31.48-1.55,1h-.03l-.05-.87h-.8c.02.47.04.91.04,1.54v4.26h.91v-3.55c0-.18.02-.36.06-.5.15-.6.58-1.04,1.12-1.04.8,0,1.06.76,1.06,1.62v3.47h.9v-3.6c0-1.81-.94-2.33-1.66-2.33Z"/><path class="b" d="M203.91,63.87c0,1.07-.71,1.74-1.82,1.74-.51,0-1.01-.15-1.33-.38l.22-.76c.25.17.7.38,1.13.38.62,0,.93-.37.93-.86s-.23-.77-.87-1.09c-.86-.41-1.28-.96-1.28-1.64,0-.94.66-1.68,1.68-1.68.5,0,.91.16,1.17.34l-.23.75c-.2-.15-.53-.32-.95-.32-.52,0-.8.36-.8.78,0,.45.25.67.88.99.8.39,1.27.91,1.27,1.75Z"/><path class="b" d="M202.64,62.12c-.63-.32-.88-.54-.88-.99,0-.42.28-.78.8-.78.42,0,.75.17.95.32l.23-.75c-.26-.18-.67-.34-1.17-.34-1.02,0-1.68.74-1.68,1.68,0,.68.42,1.23,1.28,1.64.64.32.87.6.87,1.09s-.31.86-.93.86c-.43,0-.88-.21-1.13-.38l-.22.76c.32.23.82.38,1.33.38,1.11,0,1.82-.67,1.82-1.74,0-.84-.47-1.36-1.27-1.75Z"/></svg>