<?xml version="1.0" encoding="UTF-8"?><svg id="a" xmlns="http://www.w3.org/2000/svg" viewBox="0 0 204.09 75.13"><defs><style>.b{opacity:.45;}.b,.c{fill:#fed206;}.d{fill:#fff;}.e{opacity:.8;}</style></defs><path class="c" d="M49.17,38.85v4.8l1.19-.79c-.43-1.24-.67-2.64-.67-4.14,0-.08,0-.15,0-.22l-.52.35Z"/><path class="c" d="M44.48,56.05c1.12,0,1.97.88,1.97,2.05,0,.23-.04.44-.1.65v.02c.56-.39,1.19-.6,1.83-.6.31,0,.6.04.87.12h.66l6.99-2.03c-1.94-.18-3.74-.73-4.99-1.55l-.85-.56.1-.39-8.26,2.39c.22.08.43.17.62.29.33-.25.74-.4,1.16-.4Z"/><path class="c" d="M56.63,38.7l4.37-2.91c-.23-.66-.74-1.52-1.86-1.52-1.51,0-2.52,1.73-2.52,4.31,0,.04,0,.08,0,.12Z"/><path class="c" d="M65.27,53.78l7.52-2.18,1.41,4.87-2.87.83c.23.29.42.62.56.99h1.19c.25-.08.5-.12.77-.12.2,0,.38.02.55.06l1.01.23c.45-.19.93-.29,1.4-.29.91,0,1.69.34,2.31.9l-2.98-10.26h-6.71v-.4l-1.75.51c-.42,2.08-1.21,3.67-2.42,4.87Z"/><path class="c" d="M51.56,66.92c-.03.1-.07.21-.11.3l1.04-.3h-.94Z"/><polygon class="c" points="65.18 59.08 64.39 59.31 64.39 63.47 65.18 63.25 65.18 59.08"/><path class="c" d="M45.63,68.71l-.81-.58.34-1.21h-2.55v-.45c-.59.36-1.3.56-2.1.56-.57,0-1.15-.12-1.66-.32l-11.75,3.41-1.41-4.87,12.59-3.65c-.57-.78-.7-1.59-.7-2.12,0-.76.22-1.45.59-2.01l-17.31,5.02,21.42-14.25v-4.8l-1.61,1.07c-1.15,2.23-3.38,4.01-6.8,4.52l-12.01,7.99L5.8,32.87,46.7,5.67l15.19,22.84v-.06h4.76L47.81.13.25,31.76l20.49,30.8,3.63,12.52,21.49-6.23c-.08-.04-.16-.08-.23-.13Z"/><path class="c" d="M68.12,31.06l.18-.12-.17-.25c0,.12-.01.24-.02.37Z"/><g class="e"><path class="c" d="M62.61,30.64l.05-.76-.5.33c.16.14.31.28.45.43Z"/><path class="c" d="M55.77,38.58c0,.22.01.44.03.67l5.92-3.94c-.48-1.19-1.42-1.89-2.58-1.89-2.01,0-3.37,2.07-3.37,5.16Z"/><path class="c" d="M69.24,59.76c0-.7-.32-1.02-.99-1.02-.07,0-.13,0-.19,0v2.18h.07c.75,0,1.11-.38,1.11-1.16Z"/><path class="c" d="M50.54,38.73c0-.28.02-.54.03-.8l-2.25,1.49v4.8l2.77-1.84c-.36-1.1-.55-2.33-.55-3.65Z"/><path class="c" d="M48.77,63.84l-.73.21c.08.05.17.08.27.08.19,0,.34-.11.46-.29Z"/><path class="c" d="M58.61,64.29c.4,0,.53-.4.57-.52.01-.05.02-.12.02-.19v-.47c-.83.11-.83.51-.83.72,0,.3.08.45.24.45Z"/><path class="c" d="M54.38,66.07v-3.86l-1.1.32v3.54h-2.04v-2.95l-.25.07v1.49c0,1.4-.23,2.27-.74,2.88l5.17-1.5h-1.05Z"/><path class="c" d="M72.79,51.59l1.41,4.87-3.77,1.09s.06.04.08.07c.38.38.62.91.72,1.52h1.76v.12c.27-.15.56-.24.86-.24.14,0,.25.01.36.04l.44.1v.97c.56-.75,1.36-1.11,2.16-1.11.55,0,1.03.16,1.44.44l.91-.26-3.64-12.55-.14.04v1.28h-4.4l-4.22,1.22c-.41,1.7-1.09,3.02-2.09,4.01-.55.53-1.18.96-1.88,1.31l10.01-2.9Z"/><path class="c" d="M67.33,29.9c-.03.45-.06,1.01-.09,1.73l1.06-.7-.95-1.42-.03.39Z"/><path class="c" d="M56.42,61.91v1.37c.27-1.14,1.23-1.86,2.73-2.01-.06-.27-.19-.34-.32-.36l-1.07.31-.6.45-.08-.25-.68.2c0,.1.02.18.02.29Z"/><path class="c" d="M71.12,61.42c0-.19,0-.37,0-.55-.09.29-.23.54-.4.78l.41-.12v-.1Z"/><path class="c" d="M46.13,68.02l-.33-.23.55-1.92.65.44c.14.09.51.31,1.04.31.24,0,.69,0,.85-.71-.26.1-.54.16-.84.16-.91,0-1.66-.54-2.11-1.4l-.44.13v1.29h-2.04v-.7l-1.3.38c-.4.24-.88.38-1.41.41l-13.65,3.96-1.41-4.87,13.48-3.91c-.58-.63-.74-1.31-.74-1.86,0-1.59,1.17-2.74,2.78-2.74.66,0,1.29.17,1.73.46l.35.23-.58,1.99-.65-.45c-.06-.04-.39-.25-.89-.25-.65,0-.7.48-.7.63,0,.39.1.61,1.02,1.08.1.05.19.11.28.16l1.71-.49v-.96h.45c-.07-.04-.15-.08-.21-.14-.23-.23-.35-.54-.35-.89,0-.34.12-.66.35-.88.21-.21.48-.32.77-.32.64,0,1.12.52,1.12,1.2,0,.35-.12.66-.34.89-.06.06-.15.1-.22.15h.47v.37l14.28-4.14c-.55.07-1.12.11-1.72.11-2.28,0-4.48-.55-5.89-1.48l-.34-.22.08-.29-31.05,9,22.27-14.81v-4.8l-4.35,2.89c-.71.76-1.64,1.41-2.8,1.86l-14.12,9.39L5.8,32.87,46.7,5.67l15.97,24.01.02-.38h4.52L47.81.13.25,31.76l20.49,30.8,3.63,12.52,22.84-6.62c-.41-.09-.79-.23-1.08-.43Z"/><path class="c" d="M56.42,64.6v1.19l.56-.16c-.27-.27-.46-.62-.56-1.02Z"/><path class="c" d="M61.5,60.15l-.58.17c.19.42.3.94.3,1.55v2.27c0,.09,0,.16,0,.25l.28-.08v-4.17Z"/><polygon class="c" points="66.03 58.83 63.54 59.55 63.54 63.72 66.03 63 66.03 58.83"/></g><path class="b" d="M79.16,59.19l-3.64-12.55-54.66,15.85,47.45-31.55L47.81.13.25,31.76l20.49,30.8,3.63,12.52,54.79-15.88ZM72.79,51.59l1.41,4.87-47.1,13.66-1.41-4.87,47.1-13.66ZM46.7,5.67l16.06,24.15-40.9,27.2L5.8,32.87,46.7,5.67Z"/><path class="d" d="M26.77,42.56c1.31.82,3.3,1.55,5.36,1.55,2.59,0,4.03-1.33,4.03-3.31,0-1.83-1.12-2.91-3.93-4.03-3.66-1.42-6.01-3.57-6.01-7.05,0-3.97,3.04-6.97,7.85-6.97,2.4,0,4.16.56,5.32,1.2l-.97,3.58c-.8-.46-2.35-1.15-4.43-1.15-2.57,0-3.66,1.5-3.66,2.92,0,1.86,1.28,2.74,4.24,3.97,3.85,1.61,5.71,3.72,5.71,7.21,0,3.9-2.69,7.29-8.41,7.29-2.35,0-4.78-.73-6-1.54l.9-3.67Z"/><path class="d" d="M48.05,24.96c0,1.32-.87,2.39-2.31,2.39-1.34,0-2.22-1.07-2.22-2.39,0-1.35.91-2.4,2.27-2.4s2.25,1.03,2.26,2.4ZM43.76,47.39v-17.52h4.05v17.52h-4.05Z"/><path class="d" d="M66.83,29.87c-.08,1.18-.14,2.63-.14,5.03v9.94c0,3.67-.68,6.29-2.37,7.94-1.67,1.62-3.99,2.13-6.2,2.13-2.04,0-4.2-.48-5.58-1.39l.87-3.38c1.03.68,2.74,1.35,4.67,1.35,2.63,0,4.61-1.52,4.61-5.3v-1.5h-.07c-.91,1.53-2.54,2.57-4.67,2.57-3.97,0-6.8-3.6-6.8-8.55,0-5.78,3.42-9.26,7.25-9.26,2.46,0,3.89,1.28,4.66,2.73h.07l.15-2.33h3.54ZM62.64,36.9c0-.43-.04-.84-.13-1.19-.43-1.63-1.59-2.85-3.31-2.85-2.24,0-3.94,2.15-3.94,5.73,0,2.98,1.38,5.39,3.92,5.39,1.52,0,2.81-1.07,3.27-2.69.13-.46.18-1.06.18-1.55v-2.84Z"/><path class="d" d="M70.92,35.08c0-2.02-.06-3.69-.13-5.21h3.46l.19,2.57h.09c.77-1.36,2.23-2.97,4.93-2.97,2.12,0,3.76,1.29,4.44,3.23h.07c.56-.96,1.23-1.69,1.96-2.2.91-.67,1.92-1.03,3.26-1.03,2.65,0,5.35,1.98,5.35,7.6v10.32h-3.95v-9.69c0-2.92-.92-4.63-2.86-4.63-1.39,0-2.4,1.07-2.82,2.33-.13.42-.21.98-.21,1.48v10.52h-3.95v-10.13c0-2.47-.9-4.19-2.76-4.19-1.52,0-2.53,1.3-2.92,2.5-.14.44-.2.97-.2,1.47v10.36h-3.95v-12.31Z"/><path class="d" d="M101.68,39.85c.11,3.18,2.35,4.56,4.95,4.56,1.86,0,3.2-.32,4.42-.81l.6,3.05c-1.37.64-3.27,1.11-5.6,1.11-5.2,0-8.25-3.51-8.25-8.88,0-4.84,2.68-9.41,7.84-9.41s6.9,4.68,6.9,8.52c0,.82-.07,1.48-.14,1.86h-10.72ZM108.73,36.77c.02-1.62-.63-4.27-3.34-4.27-2.49,0-3.53,2.48-3.71,4.27h7.05Z"/><path class="d" d="M130.58,21.83v20.64c0,1.8.06,3.73.13,4.92h-3.61l-.18-2.77h-.07c-.96,1.96-2.89,3.17-5.2,3.17-3.83,0-6.86-3.57-6.86-8.96-.02-5.87,3.33-9.36,7.18-9.36,2.19,0,3.77.99,4.49,2.28h.07v-9.92h4.05ZM126.53,37.17c0-.35-.02-.8-.09-1.15-.36-1.71-1.66-3.11-3.48-3.11-2.61,0-4.06,2.52-4.06,5.77s1.46,5.57,4.01,5.57c1.66,0,3.09-1.24,3.5-3.15.09-.4.12-.83.12-1.29v-2.63Z"/><path class="d" d="M139.23,24.96c0,1.32-.87,2.39-2.31,2.39-1.34,0-2.22-1.07-2.22-2.39,0-1.35.91-2.4,2.27-2.4s2.25,1.03,2.26,2.4ZM134.94,47.39v-17.52h4.05v17.52h-4.05Z"/><path class="d" d="M152.38,47.39l-.28-1.95h-.1c-.97,1.38-2.65,2.35-4.72,2.35-3.25,0-5.05-2.54-5.05-5.21,0-4.42,3.6-6.66,9.5-6.63v-.29c0-1.15-.42-3.07-3.25-3.06-1.57,0-3.22.55-4.31,1.31l-.8-2.88c1.21-.8,3.29-1.56,5.81-1.56,5.14,0,6.61,3.54,6.61,7.39v6.31c0,1.59.07,3.14.25,4.22h-3.66ZM151.85,38.81c-2.86-.04-5.59.62-5.59,3.29,0,1.71,1.03,2.52,2.31,2.52,1.62,0,2.78-1.14,3.17-2.42.09-.31.11-.66.11-.96v-2.42Z"/><path class="d" d="M39.04,64.29c.36.26.92.47,1.48.47.9,0,1.42-.56,1.42-1.38,0-.75-.39-1.19-1.24-1.62-1-.46-1.75-1.17-1.75-2.28,0-1.25.88-2.17,2.21-2.17.65,0,1.15.18,1.42.36l-.24.84c-.22-.15-.65-.35-1.21-.35-.91,0-1.27.64-1.27,1.19,0,.77.42,1.12,1.33,1.58,1.12.58,1.67,1.27,1.67,2.37,0,1.29-.83,2.31-2.38,2.31-.64,0-1.33-.22-1.66-.47l.23-.85Z"/><path class="d" d="M45,58.11c0,.36-.22.64-.57.64-.32,0-.54-.28-.54-.64,0-.36.23-.64.56-.64s.55.27.56.64ZM43.99,65.5v-5.8h.9v5.8h-.9Z"/><path class="d" d="M50.43,59.71c-.02.41-.04.89-.04,1.65v3.33c0,1.4-.22,2.14-.67,2.62-.45.48-1.11.67-1.74.67-.57,0-1.18-.15-1.56-.42l.22-.79c.3.21.78.4,1.36.4.87,0,1.49-.53,1.49-1.96v-.63h-.02c-.25.52-.76.89-1.45.89-1.18,0-2.01-1.21-2.01-2.84,0-2.02,1.06-3.06,2.13-3.06.79,0,1.21.48,1.42.92h.02l.04-.8h.8ZM49.48,61.9c0-.17-.01-.32-.05-.46-.15-.55-.52-1.05-1.15-1.05-.81,0-1.36.87-1.36,2.19,0,1.24.49,2.11,1.35,2.11.49,0,.95-.33,1.14-1.01.05-.17.07-.37.07-.55v-1.24Z"/><path class="d" d="M51.77,61.25c0-.63-.02-1.07-.04-1.55h.8l.05.88h.02c.25-.52.79-1,1.56-1,.71,0,1.66.51,1.66,2.33v3.59h-.9v-3.46c0-.86-.26-1.62-1.06-1.62-.54,0-.97.44-1.12,1.04-.04.13-.06.32-.06.5v3.54h-.9v-4.25Z"/><path class="d" d="M59.87,65.5l-.07-.7h-.03c-.27.45-.77.82-1.42.82-.94,0-1.48-.78-1.48-1.66,0-1.42,1.09-2.15,2.85-2.14v-.14c0-.57-.14-1.34-1.08-1.33-.43,0-.88.15-1.2.39l-.2-.69c.37-.27.95-.47,1.56-.47,1.42,0,1.83,1.08,1.83,2.28v2.27c0,.48.02.97.07,1.37h-.82ZM59.73,62.53c-.84-.02-1.96.16-1.96,1.32,0,.71.39,1.01.81,1.01.59,0,.98-.43,1.11-.94.03-.11.04-.23.04-.33v-1.06Z"/><path class="d" d="M62.03,57.05h.9v8.45h-.9v-8.45Z"/><path class="d" d="M66.55,57.53c.42-.09.94-.16,1.62-.16.84,0,1.48.22,1.9.65.38.39.61.97.61,1.69s-.19,1.29-.53,1.71c-.47.6-1.23.89-2.06.89-.24,0-.45,0-.64-.06v3.26h-.9v-7.98ZM67.45,61.42c.17.05.38.07.64.07,1.03,0,1.68-.61,1.68-1.73,0-1-.57-1.59-1.56-1.59-.35,0-.61.04-.76.08v3.17Z"/><path class="d" d="M71.65,61.42c0-.63-.02-1.21-.04-1.71h.8l.04,1.07h.03c.22-.71.75-1.19,1.34-1.19.09,0,.16,0,.24.02v.98c-.08-.02-.16-.02-.28-.02-.62,0-1.07.55-1.18,1.31-.02.15-.04.32-.04.5v3.13h-.9v-4.09Z"/><path class="d" d="M79.03,62.56c0,2.18-1.21,3.06-2.32,3.06-1.26,0-2.25-1.09-2.25-2.99s1.05-3.05,2.33-3.05,2.25,1.14,2.25,2.98ZM75.37,62.61c0,1.18.5,2.24,1.37,2.24s1.36-1.07,1.36-2.26c0-.95-.35-2.23-1.36-2.23s-1.38,1.22-1.38,2.25Z"/><path class="d" d="M83.49,65.32c-.23.13-.7.3-1.3.3-1.43,0-2.38-1.14-2.38-2.96s.99-3.07,2.57-3.07c.47,0,.91.14,1.14.27l-.2.79c-.19-.11-.5-.24-.95-.24-1.08,0-1.64,1.03-1.64,2.21,0,1.35.68,2.17,1.63,2.17.44,0,.75-.12.99-.24l.14.77Z"/><path class="d" d="M84.96,62.76c.01,1.53.77,2.06,1.61,2.06.58,0,.96-.12,1.26-.27l.16.73c-.32.17-.85.34-1.56.34-1.49,0-2.35-1.17-2.35-2.92s.86-3.11,2.23-3.11c1.5,0,1.94,1.54,1.94,2.68,0,.22,0,.38-.03.5h-3.27ZM87.38,62.03c.01-.81-.28-1.7-1.14-1.7s-1.21.95-1.27,1.7h2.41Z"/><path class="d" d="M89.21,64.46c.25.18.7.38,1.13.38.62,0,.94-.36.94-.86s-.24-.76-.87-1.08c-.86-.41-1.28-.96-1.28-1.65,0-.94.66-1.67,1.69-1.67.49,0,.9.16,1.17.34l-.23.75c-.2-.14-.53-.32-.95-.32-.52,0-.8.36-.8.78,0,.45.25.67.88.99.81.39,1.27.9,1.27,1.75,0,1.07-.71,1.74-1.83,1.74-.51,0-1.01-.15-1.33-.38l.22-.77Z"/><path class="d" d="M93.11,64.46c.25.18.7.38,1.13.38.62,0,.94-.36.94-.86s-.24-.76-.87-1.08c-.86-.41-1.28-.96-1.28-1.65,0-.94.66-1.67,1.69-1.67.49,0,.9.16,1.17.34l-.23.75c-.2-.14-.53-.32-.95-.32-.52,0-.8.36-.8.78,0,.45.25.67.88.99.81.39,1.27.9,1.27,1.75,0,1.07-.71,1.74-1.83,1.74-.51,0-1.01-.15-1.33-.38l.22-.77Z"/><path class="d" d="M98.16,58.11c0,.36-.22.64-.57.64-.32,0-.54-.28-.54-.64,0-.36.23-.64.56-.64s.55.27.56.64ZM97.15,65.5v-5.8h.9v5.8h-.9Z"/><path class="d" d="M99.5,61.25c0-.63-.02-1.07-.04-1.55h.8l.05.88h.02c.25-.52.79-1,1.56-1,.71,0,1.66.51,1.66,2.33v3.59h-.9v-3.46c0-.86-.26-1.62-1.06-1.62-.54,0-.97.44-1.12,1.04-.04.13-.06.32-.06.5v3.54h-.9v-4.25Z"/><path class="d" d="M109.06,59.71c-.02.41-.04.89-.04,1.65v3.33c0,1.4-.22,2.14-.67,2.62-.45.48-1.11.67-1.74.67-.57,0-1.18-.15-1.56-.42l.22-.79c.3.21.78.4,1.36.4.87,0,1.49-.53,1.49-1.96v-.63h-.02c-.25.52-.76.89-1.45.89-1.18,0-2.01-1.21-2.01-2.84,0-2.02,1.06-3.06,2.13-3.06.79,0,1.21.48,1.42.92h.02l.04-.8h.8ZM108.11,61.9c0-.17-.01-.32-.05-.46-.15-.55-.52-1.05-1.15-1.05-.81,0-1.36.87-1.36,2.19,0,1.24.49,2.11,1.35,2.11.49,0,.95-.33,1.14-1.01.05-.17.07-.37.07-.55v-1.24Z"/><path class="d" d="M112.67,65.5v-5.03h-.7v-.77h.7v-.3c0-.76.14-1.47.56-1.95.34-.38.8-.52,1.19-.52.33,0,.59.07.76.16l-.13.78c-.13-.06-.3-.12-.56-.12-.74,0-.92.76-.92,1.62v.33h1.16v.77h-1.16v5.03h-.9Z"/><path class="d" d="M119.62,62.56c0,2.18-1.21,3.06-2.32,3.06-1.26,0-2.25-1.09-2.25-2.99s1.05-3.05,2.33-3.05,2.25,1.14,2.25,2.98ZM115.96,62.61c0,1.18.5,2.24,1.37,2.24s1.36-1.07,1.36-2.26c0-.95-.35-2.23-1.36-2.23s-1.38,1.22-1.38,2.25Z"/><path class="d" d="M120.72,61.42c0-.63-.02-1.21-.04-1.71h.8l.04,1.07h.03c.22-.71.75-1.19,1.34-1.19.09,0,.16,0,.24.02v.98c-.08-.02-.16-.02-.28-.02-.62,0-1.07.55-1.18,1.31-.02.15-.04.32-.04.5v3.13h-.9v-4.09Z"/><path class="d" d="M131.7,61.98c-.05-1.11-.11-2.42-.1-3.39h-.03c-.22.93-.49,1.93-.81,2.99l-1.16,3.88h-.65l-1.08-3.79c-.31-1.11-.57-2.13-.76-3.08h-.03c-.02.99-.06,2.27-.13,3.47l-.17,3.45h-.84l.48-8.08h1.1l1.11,3.85c.28,1.01.51,1.87.68,2.74h.03c.18-.85.4-1.7.7-2.74l1.15-3.85h1.11l.44,8.08h-.87l-.17-3.53Z"/><path class="d" d="M134.62,62.76c.01,1.53.77,2.06,1.61,2.06.58,0,.96-.12,1.26-.27l.16.73c-.32.17-.85.34-1.56.34-1.49,0-2.35-1.17-2.35-2.92s.86-3.11,2.23-3.11c1.5,0,1.94,1.54,1.94,2.68,0,.22,0,.38-.03.5h-3.27ZM137.04,62.03c.01-.81-.28-1.7-1.14-1.7s-1.21.95-1.27,1.7h2.41Z"/><path class="d" d="M143.08,57.05v6.99c0,.48.02,1.08.04,1.46h-.8l-.05-.92h-.03c-.25.58-.8,1.04-1.56,1.04-1.14,0-2.01-1.15-2.01-2.96,0-1.97.98-3.09,2.1-3.09.67,0,1.16.35,1.38.82h.02v-3.35h.9ZM142.18,62.02c0-.13,0-.3-.03-.43-.12-.65-.57-1.19-1.19-1.19-.89,0-1.37.99-1.37,2.23s.45,2.17,1.34,2.17c.52,0,1.03-.38,1.2-1.18.03-.13.04-.27.04-.43v-1.17Z"/><path class="d" d="M145.53,58.11c0,.36-.22.64-.57.64-.32,0-.54-.28-.54-.64,0-.36.23-.64.56-.64s.55.27.56.64ZM144.52,65.5v-5.8h.9v5.8h-.9Z"/><path class="d" d="M149.5,65.5l-.08-.7h-.03c-.27.45-.77.82-1.42.82-.94,0-1.48-.78-1.48-1.66,0-1.42,1.09-2.15,2.85-2.14v-.14c0-.57-.14-1.34-1.08-1.33-.43,0-.88.15-1.2.39l-.2-.69c.37-.27.95-.47,1.56-.47,1.42,0,1.83,1.08,1.83,2.28v2.27c0,.48.02.97.07,1.37h-.82ZM149.36,62.53c-.84-.02-1.96.16-1.96,1.32,0,.71.39,1.01.81,1.01.59,0,.98-.43,1.11-.94.03-.11.04-.23.04-.33v-1.06Z"/><path class="d" d="M154.89,63l-.67,2.51h-.92l2.22-8.08h1.06l2.21,8.08h-.94l-.68-2.51h-2.28ZM157,62.21l-.61-2.25c-.14-.54-.25-1.08-.35-1.59h-.03c-.1.51-.21,1.07-.34,1.58l-.61,2.25h1.94Z"/><path class="d" d="M159.73,61.57c0-.79-.02-1.36-.04-1.86h.81l.05.91h.02c.35-.68.91-1.03,1.62-1.03,1.15,0,1.99,1.15,1.99,2.95,0,2.11-1.04,3.09-2.13,3.09-.63,0-1.13-.34-1.39-.84h-.02v3.07h-.9v-6.29ZM160.63,63.21c0,.16.01.31.04.44.17.76.68,1.16,1.21,1.16.91,0,1.38-.96,1.38-2.24,0-1.17-.46-2.17-1.35-2.17-.56,0-1.09.51-1.23,1.23-.03.14-.05.29-.05.43v1.15Z"/><path class="d" d="M165.28,61.57c0-.79-.02-1.36-.04-1.86h.81l.05.91h.02c.35-.68.91-1.03,1.62-1.03,1.15,0,1.99,1.15,1.99,2.95,0,2.11-1.04,3.09-2.13,3.09-.63,0-1.13-.34-1.39-.84h-.02v3.07h-.9v-6.29ZM166.18,63.21c0,.16.01.31.04.44.17.76.68,1.16,1.21,1.16.91,0,1.38-.96,1.38-2.24,0-1.17-.46-2.17-1.35-2.17-.56,0-1.09.51-1.23,1.23-.03.14-.05.29-.05.43v1.15Z"/><path class="d" d="M170.84,57.05h.9v8.45h-.9v-8.45Z"/><path class="d" d="M174.23,58.11c0,.36-.22.64-.57.64-.32,0-.54-.28-.54-.64,0-.36.23-.64.56-.64s.55.27.56.64ZM173.22,65.5v-5.8h.9v5.8h-.9Z"/><path class="d" d="M178.92,65.32c-.23.13-.7.3-1.3.3-1.43,0-2.38-1.14-2.38-2.96s.99-3.07,2.57-3.07c.47,0,.91.14,1.14.27l-.2.79c-.2-.11-.5-.24-.95-.24-1.08,0-1.64,1.03-1.64,2.21,0,1.35.68,2.17,1.63,2.17.44,0,.75-.12.99-.24l.14.77Z"/><path class="d" d="M182.54,65.5l-.08-.7h-.03c-.27.45-.77.82-1.42.82-.94,0-1.48-.78-1.48-1.66,0-1.42,1.09-2.15,2.85-2.14v-.14c0-.57-.14-1.34-1.08-1.33-.43,0-.88.15-1.2.39l-.2-.69c.37-.27.95-.47,1.56-.47,1.42,0,1.83,1.08,1.83,2.28v2.27c0,.48.02.97.07,1.37h-.82ZM182.4,62.53c-.84-.02-1.96.16-1.96,1.32,0,.71.39,1.01.81,1.01.59,0,.98-.43,1.11-.94.03-.11.04-.23.04-.33v-1.06Z"/><path class="d" d="M185.74,58.07v1.63h1.25v.77h-1.25v3.22c0,.73.2,1.08.66,1.08.21,0,.37-.03.48-.06l.04.77c-.17.08-.44.13-.77.13-.4,0-.74-.14-.96-.42-.25-.3-.35-.78-.35-1.5v-3.23h-.75v-.77h.75v-1.36l.89-.27Z"/><path class="d" d="M188.95,58.11c0,.36-.22.64-.57.64-.32,0-.54-.28-.54-.64,0-.36.23-.64.56-.64s.55.27.56.64ZM187.95,65.5v-5.8h.9v5.8h-.9Z"/><path class="d" d="M194.54,62.56c0,2.18-1.21,3.06-2.32,3.06-1.26,0-2.25-1.09-2.25-2.99s1.05-3.05,2.33-3.05,2.25,1.14,2.25,2.98ZM190.88,62.61c0,1.18.5,2.24,1.37,2.24s1.36-1.07,1.36-2.26c0-.95-.35-2.23-1.36-2.23s-1.38,1.22-1.38,2.25Z"/><path class="d" d="M195.65,61.25c0-.63-.02-1.07-.04-1.55h.8l.05.88h.03c.25-.52.79-1,1.56-1,.71,0,1.66.51,1.66,2.33v3.59h-.9v-3.46c0-.86-.26-1.62-1.06-1.62-.54,0-.97.44-1.12,1.04-.04.13-.06.32-.06.5v3.54h-.9v-4.25Z"/><path class="d" d="M200.98,64.46c.25.18.7.38,1.13.38.62,0,.94-.36.94-.86s-.24-.76-.87-1.08c-.86-.41-1.28-.96-1.28-1.65,0-.94.66-1.67,1.69-1.67.49,0,.9.16,1.17.34l-.23.75c-.2-.14-.53-.32-.95-.32-.52,0-.8.36-.8.78,0,.45.25.67.88.99.81.39,1.27.9,1.27,1.75,0,1.07-.71,1.74-1.83,1.74-.51,0-1.01-.15-1.33-.38l.22-.77Z"/></svg>