<?xml version="1.0" encoding="UTF-8"?><svg id="a" xmlns="http://www.w3.org/2000/svg" viewBox="0 0 204.09 75.13"><defs><style>.b{fill:#231f20;}.c{fill:none;stroke:#fed206;stroke-miterlimit:10;stroke-width:4px;}</style></defs><rect class="c" x="23.41" y="56.34" width="53.04" height="9.07" transform="translate(-14.97 16.31) rotate(-16.17)"/><rect class="c" x="7.71" y="14.86" width="53.12" height="33" transform="translate(-11.63 24.22) rotate(-33.63)"/><path class="b" d="M26.77,42.56c1.31.82,3.3,1.55,5.36,1.55,2.59,0,4.03-1.33,4.03-3.31,0-1.83-1.12-2.91-3.93-4.03-3.66-1.42-6.01-3.57-6.01-7.05,0-3.97,3.04-6.97,7.85-6.97,2.4,0,4.16.56,5.32,1.2l-.97,3.58c-.8-.46-2.35-1.15-4.43-1.15-2.57,0-3.66,1.5-3.66,2.92,0,1.86,1.28,2.74,4.24,3.97,3.85,1.61,5.71,3.72,5.71,7.21,0,3.9-2.69,7.29-8.41,7.29-2.35,0-4.78-.73-6-1.54l.9-3.67Z"/><path class="b" d="M48.05,24.96c0,1.32-.87,2.39-2.31,2.39-1.34,0-2.22-1.07-2.22-2.39,0-1.35.91-2.4,2.27-2.4s2.25,1.03,2.26,2.4ZM43.76,47.39v-17.52h4.05v17.52h-4.05Z"/><path class="b" d="M66.83,29.87c-.08,1.18-.14,2.63-.14,5.03v9.94c0,3.67-.68,6.29-2.37,7.94-1.67,1.62-3.99,2.13-6.2,2.13-2.04,0-4.2-.48-5.58-1.39l.87-3.38c1.03.68,2.74,1.35,4.67,1.35,2.63,0,4.61-1.52,4.61-5.3v-1.5h-.07c-.91,1.53-2.54,2.57-4.67,2.57-3.97,0-6.8-3.6-6.8-8.55,0-5.78,3.42-9.26,7.25-9.26,2.46,0,3.89,1.28,4.66,2.73h.07l.15-2.33h3.54ZM62.64,36.9c0-.43-.04-.84-.13-1.19-.43-1.63-1.59-2.85-3.31-2.85-2.24,0-3.94,2.15-3.94,5.73,0,2.98,1.38,5.39,3.92,5.39,1.52,0,2.81-1.07,3.27-2.69.13-.46.18-1.06.18-1.55v-2.84Z"/><path class="b" d="M70.92,35.08c0-2.02-.06-3.69-.13-5.21h3.46l.19,2.57h.09c.77-1.36,2.23-2.97,4.93-2.97,2.12,0,3.76,1.29,4.44,3.23h.07c.56-.96,1.23-1.69,1.96-2.2.91-.67,1.92-1.03,3.26-1.03,2.65,0,5.35,1.98,5.35,7.6v10.32h-3.95v-9.69c0-2.92-.92-4.63-2.86-4.63-1.39,0-2.4,1.07-2.82,2.33-.13.42-.21.98-.21,1.48v10.52h-3.95v-10.13c0-2.47-.9-4.19-2.76-4.19-1.52,0-2.53,1.3-2.92,2.5-.14.44-.2.97-.2,1.47v10.36h-3.95v-12.31Z"/><path class="b" d="M101.68,39.85c.11,3.18,2.35,4.56,4.95,4.56,1.86,0,3.2-.32,4.42-.81l.6,3.05c-1.37.64-3.27,1.11-5.6,1.11-5.2,0-8.25-3.51-8.25-8.88,0-4.84,2.68-9.41,7.84-9.41s6.9,4.68,6.9,8.52c0,.82-.07,1.48-.14,1.86h-10.72ZM108.73,36.77c.02-1.62-.63-4.27-3.34-4.27-2.49,0-3.53,2.48-3.71,4.27h7.05Z"/><path class="b" d="M130.58,21.83v20.64c0,1.8.06,3.73.13,4.92h-3.61l-.18-2.77h-.07c-.96,1.96-2.89,3.17-5.2,3.17-3.83,0-6.86-3.57-6.86-8.96-.02-5.87,3.33-9.36,7.18-9.36,2.19,0,3.77.99,4.49,2.28h.07v-9.92h4.05ZM126.53,37.17c0-.35-.02-.8-.09-1.15-.36-1.71-1.66-3.11-3.48-3.11-2.61,0-4.06,2.52-4.06,5.77s1.46,5.57,4.01,5.57c1.66,0,3.09-1.24,3.5-3.15.09-.4.12-.83.12-1.29v-2.63Z"/><path class="b" d="M139.23,24.96c0,1.32-.87,2.39-2.31,2.39-1.34,0-2.22-1.07-2.22-2.39,0-1.35.91-2.4,2.27-2.4s2.25,1.03,2.26,2.4ZM134.94,47.39v-17.52h4.05v17.52h-4.05Z"/><path class="b" d="M152.38,47.39l-.28-1.95h-.1c-.97,1.38-2.65,2.35-4.72,2.35-3.25,0-5.05-2.54-5.05-5.21,0-4.42,3.6-6.66,9.5-6.63v-.29c0-1.15-.42-3.07-3.25-3.06-1.57,0-3.22.55-4.31,1.31l-.8-2.88c1.21-.8,3.29-1.56,5.81-1.56,5.14,0,6.61,3.54,6.61,7.39v6.31c0,1.59.07,3.14.25,4.22h-3.66ZM151.85,38.81c-2.86-.04-5.59.62-5.59,3.29,0,1.71,1.03,2.52,2.31,2.52,1.62,0,2.78-1.14,3.17-2.42.09-.31.11-.66.11-.96v-2.42Z"/><path class="b" d="M39.04,64.29c.36.26.92.47,1.48.47.9,0,1.42-.56,1.42-1.38,0-.75-.39-1.19-1.24-1.62-1-.46-1.75-1.17-1.75-2.28,0-1.25.88-2.17,2.21-2.17.65,0,1.15.18,1.42.36l-.24.84c-.22-.15-.65-.35-1.21-.35-.91,0-1.27.64-1.27,1.19,0,.77.42,1.12,1.33,1.58,1.12.58,1.67,1.27,1.67,2.37,0,1.29-.83,2.31-2.38,2.31-.64,0-1.33-.22-1.66-.47l.23-.85Z"/><path class="b" d="M45,58.11c0,.36-.22.64-.57.64-.32,0-.54-.28-.54-.64,0-.36.23-.64.56-.64s.55.27.56.64ZM43.99,65.5v-5.8h.9v5.8h-.9Z"/><path class="b" d="M50.43,59.71c-.02.41-.04.89-.04,1.65v3.33c0,1.4-.22,2.14-.67,2.62-.45.48-1.11.67-1.74.67-.57,0-1.18-.15-1.56-.42l.22-.79c.3.21.78.4,1.36.4.87,0,1.49-.53,1.49-1.96v-.63h-.02c-.25.52-.76.89-1.45.89-1.18,0-2.01-1.21-2.01-2.84,0-2.02,1.06-3.06,2.13-3.06.79,0,1.21.48,1.42.92h.02l.04-.8h.8ZM49.48,61.9c0-.17-.01-.32-.05-.46-.15-.55-.52-1.05-1.15-1.05-.81,0-1.36.87-1.36,2.19,0,1.24.49,2.11,1.35,2.11.49,0,.95-.33,1.14-1.01.05-.17.07-.37.07-.55v-1.24Z"/><path class="b" d="M51.77,61.25c0-.63-.02-1.07-.04-1.55h.8l.05.88h.02c.25-.52.79-1,1.56-1,.71,0,1.66.51,1.66,2.33v3.59h-.9v-3.46c0-.86-.26-1.62-1.06-1.62-.54,0-.97.44-1.12,1.04-.04.13-.06.32-.06.5v3.54h-.9v-4.25Z"/><path class="b" d="M59.87,65.5l-.07-.7h-.03c-.27.45-.77.82-1.42.82-.94,0-1.48-.78-1.48-1.66,0-1.42,1.09-2.15,2.85-2.14v-.14c0-.57-.14-1.34-1.08-1.33-.43,0-.88.15-1.2.39l-.2-.69c.37-.27.95-.47,1.56-.47,1.42,0,1.83,1.08,1.83,2.28v2.27c0,.48.02.97.07,1.37h-.82ZM59.73,62.53c-.84-.02-1.96.16-1.96,1.32,0,.71.39,1.01.81,1.01.59,0,.98-.43,1.11-.94.03-.11.04-.23.04-.33v-1.06Z"/><path class="b" d="M62.03,57.05h.9v8.45h-.9v-8.45Z"/><path class="b" d="M66.55,57.53c.42-.09.94-.16,1.62-.16.84,0,1.48.22,1.9.65.38.39.61.97.61,1.69s-.19,1.29-.53,1.71c-.47.6-1.23.89-2.06.89-.24,0-.45,0-.64-.06v3.26h-.9v-7.98ZM67.45,61.42c.17.05.38.07.64.07,1.03,0,1.68-.61,1.68-1.73,0-1-.57-1.59-1.56-1.59-.35,0-.61.04-.76.08v3.17Z"/><path class="b" d="M71.65,61.42c0-.63-.02-1.21-.04-1.71h.8l.04,1.07h.03c.22-.71.75-1.19,1.34-1.19.09,0,.16,0,.24.02v.98c-.08-.02-.16-.02-.28-.02-.62,0-1.07.55-1.18,1.31-.02.15-.04.32-.04.5v3.13h-.9v-4.09Z"/><path class="b" d="M79.03,62.56c0,2.18-1.21,3.06-2.32,3.06-1.26,0-2.25-1.09-2.25-2.99s1.05-3.05,2.33-3.05,2.25,1.14,2.25,2.98ZM75.37,62.61c0,1.18.5,2.24,1.37,2.24s1.36-1.07,1.36-2.26c0-.95-.35-2.23-1.36-2.23s-1.38,1.22-1.38,2.25Z"/><path class="b" d="M83.49,65.32c-.23.13-.7.3-1.3.3-1.43,0-2.38-1.14-2.38-2.96s.99-3.07,2.57-3.07c.47,0,.91.14,1.14.27l-.2.79c-.19-.11-.5-.24-.95-.24-1.08,0-1.64,1.03-1.64,2.21,0,1.35.68,2.17,1.63,2.17.44,0,.75-.12.99-.24l.14.77Z"/><path class="b" d="M84.96,62.76c.01,1.53.77,2.06,1.61,2.06.58,0,.96-.12,1.26-.27l.16.73c-.32.17-.85.34-1.56.34-1.49,0-2.35-1.17-2.35-2.92s.86-3.11,2.23-3.11c1.5,0,1.94,1.54,1.94,2.68,0,.22,0,.38-.03.5h-3.27ZM87.38,62.03c.01-.81-.28-1.7-1.14-1.7s-1.21.95-1.27,1.7h2.41Z"/><path class="b" d="M89.21,64.46c.25.18.7.38,1.13.38.62,0,.94-.36.94-.86s-.24-.76-.87-1.08c-.86-.41-1.28-.96-1.28-1.65,0-.94.66-1.67,1.69-1.67.49,0,.9.16,1.17.34l-.23.75c-.2-.14-.53-.32-.95-.32-.52,0-.8.36-.8.78,0,.45.25.67.88.99.81.39,1.27.9,1.27,1.75,0,1.07-.71,1.74-1.83,1.74-.51,0-1.01-.15-1.33-.38l.22-.77Z"/><path class="b" d="M93.11,64.46c.25.18.7.38,1.13.38.62,0,.94-.36.94-.86s-.24-.76-.87-1.08c-.86-.41-1.28-.96-1.28-1.65,0-.94.66-1.67,1.69-1.67.49,0,.9.16,1.17.34l-.23.75c-.2-.14-.53-.32-.95-.32-.52,0-.8.36-.8.78,0,.45.25.67.88.99.81.39,1.27.9,1.27,1.75,0,1.07-.71,1.74-1.83,1.74-.51,0-1.01-.15-1.33-.38l.22-.77Z"/><path class="b" d="M98.16,58.11c0,.36-.22.64-.57.64-.32,0-.54-.28-.54-.64,0-.36.23-.64.56-.64s.55.27.56.64ZM97.15,65.5v-5.8h.9v5.8h-.9Z"/><path class="b" d="M99.5,61.25c0-.63-.02-1.07-.04-1.55h.8l.05.88h.02c.25-.52.79-1,1.56-1,.71,0,1.66.51,1.66,2.33v3.59h-.9v-3.46c0-.86-.26-1.62-1.06-1.62-.54,0-.97.44-1.12,1.04-.04.13-.06.32-.06.5v3.54h-.9v-4.25Z"/><path class="b" d="M109.06,59.71c-.02.41-.04.89-.04,1.65v3.33c0,1.4-.22,2.14-.67,2.62-.45.48-1.11.67-1.74.67-.57,0-1.18-.15-1.56-.42l.22-.79c.3.21.78.4,1.36.4.87,0,1.49-.53,1.49-1.96v-.63h-.02c-.25.52-.76.89-1.45.89-1.18,0-2.01-1.21-2.01-2.84,0-2.02,1.06-3.06,2.13-3.06.79,0,1.21.48,1.42.92h.02l.04-.8h.8ZM108.11,61.9c0-.17-.01-.32-.05-.46-.15-.55-.52-1.05-1.15-1.05-.81,0-1.36.87-1.36,2.19,0,1.24.49,2.11,1.35,2.11.49,0,.95-.33,1.14-1.01.05-.17.07-.37.07-.55v-1.24Z"/><path class="b" d="M112.67,65.5v-5.03h-.7v-.77h.7v-.3c0-.76.14-1.47.56-1.95.34-.38.8-.52,1.19-.52.33,0,.59.07.76.16l-.13.78c-.13-.06-.3-.12-.56-.12-.74,0-.92.76-.92,1.62v.33h1.16v.77h-1.16v5.03h-.9Z"/><path class="b" d="M119.62,62.56c0,2.18-1.21,3.06-2.32,3.06-1.26,0-2.25-1.09-2.25-2.99s1.05-3.05,2.33-3.05,2.25,1.14,2.25,2.98ZM115.96,62.61c0,1.18.5,2.24,1.37,2.24s1.36-1.07,1.36-2.26c0-.95-.35-2.23-1.36-2.23s-1.38,1.22-1.38,2.25Z"/><path class="b" d="M120.72,61.42c0-.63-.02-1.21-.04-1.71h.8l.04,1.07h.03c.22-.71.75-1.19,1.34-1.19.09,0,.16,0,.24.02v.98c-.08-.02-.16-.02-.28-.02-.62,0-1.07.55-1.18,1.31-.02.15-.04.32-.04.5v3.13h-.9v-4.09Z"/><path class="b" d="M131.7,61.98c-.05-1.11-.11-2.42-.1-3.39h-.03c-.22.93-.49,1.93-.81,2.99l-1.16,3.88h-.65l-1.08-3.79c-.31-1.11-.57-2.13-.76-3.08h-.03c-.02.99-.06,2.27-.13,3.47l-.17,3.45h-.84l.48-8.08h1.1l1.11,3.85c.28,1.01.51,1.87.68,2.74h.03c.18-.85.4-1.7.7-2.74l1.15-3.85h1.11l.44,8.08h-.87l-.17-3.53Z"/><path class="b" d="M134.62,62.76c.01,1.53.77,2.06,1.61,2.06.58,0,.96-.12,1.26-.27l.16.73c-.32.17-.85.34-1.56.34-1.49,0-2.35-1.17-2.35-2.92s.86-3.11,2.23-3.11c1.5,0,1.94,1.54,1.94,2.68,0,.22,0,.38-.03.5h-3.27ZM137.04,62.03c.01-.81-.28-1.7-1.14-1.7s-1.21.95-1.27,1.7h2.41Z"/><path class="b" d="M143.08,57.05v6.99c0,.48.02,1.08.04,1.46h-.8l-.05-.92h-.03c-.25.58-.8,1.04-1.56,1.04-1.14,0-2.01-1.15-2.01-2.96,0-1.97.98-3.09,2.1-3.09.67,0,1.16.35,1.38.82h.02v-3.35h.9ZM142.18,62.02c0-.13,0-.3-.03-.43-.12-.65-.57-1.19-1.19-1.19-.89,0-1.37.99-1.37,2.23s.45,2.17,1.34,2.17c.52,0,1.03-.38,1.2-1.18.03-.13.04-.27.04-.43v-1.17Z"/><path class="b" d="M145.53,58.11c0,.36-.22.64-.57.64-.32,0-.54-.28-.54-.64,0-.36.23-.64.56-.64s.55.27.56.64ZM144.52,65.5v-5.8h.9v5.8h-.9Z"/><path class="b" d="M149.5,65.5l-.08-.7h-.03c-.27.45-.77.82-1.42.82-.94,0-1.48-.78-1.48-1.66,0-1.42,1.09-2.15,2.85-2.14v-.14c0-.57-.14-1.34-1.08-1.33-.43,0-.88.15-1.2.39l-.2-.69c.37-.27.95-.47,1.56-.47,1.42,0,1.83,1.08,1.83,2.28v2.27c0,.48.02.97.07,1.37h-.82ZM149.36,62.53c-.84-.02-1.96.16-1.96,1.32,0,.71.39,1.01.81,1.01.59,0,.98-.43,1.11-.94.03-.11.04-.23.04-.33v-1.06Z"/><path class="b" d="M154.89,63l-.67,2.51h-.92l2.22-8.08h1.06l2.21,8.08h-.94l-.68-2.51h-2.28ZM157,62.21l-.61-2.25c-.14-.54-.25-1.08-.35-1.59h-.03c-.1.51-.21,1.07-.34,1.58l-.61,2.25h1.94Z"/><path class="b" d="M159.73,61.57c0-.79-.02-1.36-.04-1.86h.81l.05.91h.02c.35-.68.91-1.03,1.62-1.03,1.15,0,1.99,1.15,1.99,2.95,0,2.11-1.04,3.09-2.13,3.09-.63,0-1.13-.34-1.39-.84h-.02v3.07h-.9v-6.29ZM160.63,63.21c0,.16.01.31.04.44.17.76.68,1.16,1.21,1.16.91,0,1.38-.96,1.38-2.24,0-1.17-.46-2.17-1.35-2.17-.56,0-1.09.51-1.23,1.23-.03.14-.05.29-.05.43v1.15Z"/><path class="b" d="M165.28,61.57c0-.79-.02-1.36-.04-1.86h.81l.05.91h.02c.35-.68.91-1.03,1.62-1.03,1.15,0,1.99,1.15,1.99,2.95,0,2.11-1.04,3.09-2.13,3.09-.63,0-1.13-.34-1.39-.84h-.02v3.07h-.9v-6.29ZM166.18,63.21c0,.16.01.31.04.44.17.76.68,1.16,1.21,1.16.91,0,1.38-.96,1.38-2.24,0-1.17-.46-2.17-1.35-2.17-.56,0-1.09.51-1.23,1.23-.03.14-.05.29-.05.43v1.15Z"/><path class="b" d="M170.84,57.05h.9v8.45h-.9v-8.45Z"/><path class="b" d="M174.23,58.11c0,.36-.22.64-.57.64-.32,0-.54-.28-.54-.64,0-.36.23-.64.56-.64s.55.27.56.64ZM173.22,65.5v-5.8h.9v5.8h-.9Z"/><path class="b" d="M178.92,65.32c-.23.13-.7.3-1.3.3-1.43,0-2.38-1.14-2.38-2.96s.99-3.07,2.57-3.07c.47,0,.91.14,1.14.27l-.2.79c-.2-.11-.5-.24-.95-.24-1.08,0-1.64,1.03-1.64,2.21,0,1.35.68,2.17,1.63,2.17.44,0,.75-.12.99-.24l.14.77Z"/><path class="b" d="M182.54,65.5l-.08-.7h-.03c-.27.45-.77.82-1.42.82-.94,0-1.48-.78-1.48-1.66,0-1.42,1.09-2.15,2.85-2.14v-.14c0-.57-.14-1.34-1.08-1.33-.43,0-.88.15-1.2.39l-.2-.69c.37-.27.95-.47,1.56-.47,1.42,0,1.83,1.08,1.83,2.28v2.27c0,.48.02.97.07,1.37h-.82ZM182.4,62.53c-.84-.02-1.96.16-1.96,1.32,0,.71.39,1.01.81,1.01.59,0,.98-.43,1.11-.94.03-.11.04-.23.04-.33v-1.06Z"/><path class="b" d="M185.74,58.07v1.63h1.25v.77h-1.25v3.22c0,.73.2,1.08.66,1.08.21,0,.37-.03.48-.06l.04.77c-.17.08-.44.13-.77.13-.4,0-.74-.14-.96-.42-.25-.3-.35-.78-.35-1.5v-3.23h-.75v-.77h.75v-1.36l.89-.27Z"/><path class="b" d="M188.95,58.11c0,.36-.22.64-.57.64-.32,0-.54-.28-.54-.64,0-.36.23-.64.56-.64s.55.27.56.64ZM187.95,65.5v-5.8h.9v5.8h-.9Z"/><path class="b" d="M194.54,62.56c0,2.18-1.21,3.06-2.32,3.06-1.26,0-2.25-1.09-2.25-2.99s1.05-3.05,2.33-3.05,2.25,1.14,2.25,2.98ZM190.88,62.61c0,1.18.5,2.24,1.37,2.24s1.36-1.07,1.36-2.26c0-.95-.35-2.23-1.36-2.23s-1.38,1.22-1.38,2.25Z"/><path class="b" d="M195.65,61.25c0-.63-.02-1.07-.04-1.55h.8l.05.88h.03c.25-.52.79-1,1.56-1,.71,0,1.66.51,1.66,2.33v3.59h-.9v-3.46c0-.86-.26-1.62-1.06-1.62-.54,0-.97.44-1.12,1.04-.04.13-.06.32-.06.5v3.54h-.9v-4.25Z"/><path class="b" d="M200.98,64.46c.25.18.7.38,1.13.38.62,0,.94-.36.94-.86s-.24-.76-.87-1.08c-.86-.41-1.28-.96-1.28-1.65,0-.94.66-1.67,1.69-1.67.49,0,.9.16,1.17.34l-.23.75c-.2-.14-.53-.32-.95-.32-.52,0-.8.36-.8.78,0,.45.25.67.88.99.81.39,1.27.9,1.27,1.75,0,1.07-.71,1.74-1.83,1.74-.51,0-1.01-.15-1.33-.38l.22-.77Z"/></svg>